Vollkorn-Italic.ufo
<glyph name="exclam" format="2">
  <advance width="414"/>
  <unicode hex="0021"/>
  <outline>
    <contour>
      <point x="352" y="707"/>
      <point x="333" y="714" type="curve"/>
      <point x="310" y="702"/>
      <point x="264" y="687"/>
      <point x="233" y="681" type="curve"/>
      <point x="226" y="545"/>
      <point x="216" y="419"/>
      <point x="193" y="231" type="curve"/>
      <point x="205" y="225"/>
      <point x="221" y="223"/>
      <point x="237" y="225" type="curve"/>
      <point x="270" y="377"/>
      <point x="316" y="558"/>
      <point x="346" y="662" type="curve" smooth="yes"/>
      <point x="355" y="694"/>
    </contour>
    <component base="_part.dot" xOffset="122"/>
  </outline>
</glyph>
<glyph name="quotesingle" format="2">
  <advance width="197"/>
  <unicode hex="0027"/>
  <outline>
    <contour>
      <point x="207" y="714" type="curve"/>
      <point x="193" y="705"/>
      <point x="167" y="696"/>
      <point x="150" y="693" type="curve"/>
      <point x="147" y="627"/>
      <point x="139" y="557"/>
      <point x="128" y="487" type="curve"/>
      <point x="140" y="479"/>
      <point x="153" y="477"/>
      <point x="169" y="477" type="curve"/>
      <point x="190" y="564"/>
      <point x="207" y="623"/>
      <point x="222" y="669" type="curve" smooth="yes"/>
      <point x="229" y="692"/>
      <point x="222" y="708"/>
    </contour>
  </outline>
</glyph>
<glyph name="hyphen" format="2">
  <advance width="372"/>
  <unicode hex="002D"/>
  <outline>
    <contour>
      <point x="46" y="226" type="curve"/>
      <point x="161" y="229"/>
      <point x="257" y="229"/>
      <point x="323" y="229" type="curve"/>
      <point x="331" y="247"/>
      <point x="335" y="265"/>
      <point x="336" y="294" type="curve"/>
      <point x="63" y="294" type="line"/>
      <point x="53" y="275"/>
      <point x="49" y="256"/>
    </contour>
  </outline>
</glyph>
<glyph name="period" format="2">
  <advance width="187"/>
  <unicode hex="002E"/>
  <outline>
    <contour>
      <point x="57.2" y="-9.6" type="curve" smooth="yes"/>
      <point x="92.0" y="-9.6"/>
      <point x="114.8" y="13.2"/>
      <point x="122.0" y="49.199999999999996" type="curve" smooth="yes"/>
      <point x="130.4" y="92.39999999999999"/>
      <point x="102.8" y="123.6"/>
      <point x="65.6" y="123.6" type="curve" smooth="yes"/>
      <point x="32.0" y="123.6"/>
      <point x="4.399999999999999" y="99.6"/>
      <point x="-1.5999999999999996" y="67.2" type="curve" smooth="yes"/>
      <point x="-11.2" y="21.599999999999998"/>
      <point x="14.0" y="-9.6"/>
    </contour>
  </outline>
</glyph>
<glyph name="slash" format="2">
  <advance width="288"/>
  <unicode hex="002F"/>
  <outline>
    <contour>
      <point x="332" y="717" type="curve"/>
      <point x="-35" y="21" type="line"/>
      <point x="-26" y="4"/>
      <point x="-15" y="-4"/>
      <point x="5" y="-9" type="curve"/>
      <point x="122" y="226"/>
      <point x="245" y="458"/>
      <point x="372" y="687" type="curve"/>
      <point x="363" y="702"/>
      <point x="352" y="710"/>
    </contour>
  </outline>
</glyph>
<glyph name="one" format="2">
  <advance width="377"/>
  <unicode hex="0031"/>
  <outline>
    <contour>
      <point x="36" y="-3" type="curve"/>
      <point x="70" y="-1"/>
      <point x="116" y="0"/>
      <point x="155" y="0" type="curve" smooth="yes"/>
      <point x="194" y="0"/>
      <point x="236" y="-1"/>
      <point x="276" y="-3" type="curve"/>
      <point x="278" y="12"/>
      <point x="277" y="28"/>
      <point x="274" y="40" type="curve"/>
      <point x="215" y="47"/>
      <point x="202" y="59"/>
      <point x="215" y="127" type="curve" smooth="yes"/>
      <point x="262" y="373" type="line" smooth="yes"/>
      <point x="274" y="437"/>
      <point x="289" y="451"/>
      <point x="340" y="460" type="curve"/>
      <point x="346" y="473"/>
      <point x="348" y="487"/>
      <point x="349" y="503" type="curve"/>
      <point x="309" y="501"/>
      <point x="270" y="500"/>
      <point x="227" y="500" type="curve" smooth="yes"/>
      <point x="184" y="500"/>
      <point x="146" y="501"/>
      <point x="109" y="503" type="curve"/>
      <point x="107" y="487"/>
      <point x="108" y="473"/>
      <point x="110" y="460" type="curve"/>
      <point x="165" y="453"/>
      <point x="183" y="440"/>
      <point x="170" y="373" type="curve" smooth="yes"/>
      <point x="123" y="127" type="line" smooth="yes"/>
      <point x="110" y="59"/>
      <point x="98" y="46"/>
      <point x="44" y="40" type="curve"/>
      <point x="39" y="29"/>
      <point x="36" y="14"/>
    </contour>
  </outline>
</glyph>
<glyph name="two" format="2">
  <advance width="485"/>
  <unicode hex="0032"/>
  <outline>
    <contour>
      <point x="286" y="506" type="curve" smooth="yes"/>
      <point x="393" y="506"/>
      <point x="449" y="459"/>
      <point x="436" y="377" type="curve" smooth="yes"/>
      <point x="426" y="317"/>
      <point x="388" y="276"/>
      <point x="305" y="212" type="curve" smooth="yes"/>
      <point x="190" y="123"/>
      <point x="287" y="200"/>
      <point x="137" y="81" type="curve"/>
      <point x="128" y="87" type="line"/>
      <point x="159" y="90"/>
      <point x="187" y="90"/>
      <point x="217" y="90" type="curve" smooth="yes"/>
      <point x="251" y="90"/>
      <point x="283" y="87"/>
      <point x="297" y="87" type="curve" smooth="yes"/>
      <point x="325" y="87"/>
      <point x="338" y="98"/>
      <point x="350" y="152" type="curve"/>
      <point x="369" y="152"/>
      <point x="391" y="149"/>
      <point x="402" y="144" type="curve"/>
      <point x="394" y="100"/>
      <point x="389" y="55"/>
      <point x="389" y="21" type="curve"/>
      <point x="379" y="1"/>
      <point x="368" y="-3"/>
      <point x="340" y="-3" type="curve" smooth="yes"/>
      <point x="316" y="-3"/>
      <point x="262" y="0"/>
      <point x="196" y="0" type="curve" smooth="yes"/>
      <point x="135" y="0"/>
      <point x="84" y="0"/>
      <point x="16" y="-3" type="curve"/>
      <point x="8" y="10"/>
      <point x="6" y="22"/>
      <point x="9" y="39" type="curve"/>
      <point x="93" y="105"/>
      <point x="102" y="112"/>
      <point x="230" y="209" type="curve" smooth="yes"/>
      <point x="291" y="255"/>
      <point x="326" y="307"/>
      <point x="336" y="359" type="curve" smooth="yes"/>
      <point x="348" y="422"/>
      <point x="319" y="460"/>
      <point x="265" y="460" type="curve" smooth="yes"/>
      <point x="208" y="460"/>
      <point x="167" y="416"/>
      <point x="147" y="321" type="curve"/>
      <point x="128" y="321"/>
      <point x="108" y="323"/>
      <point x="94" y="330" type="curve"/>
      <point x="107" y="371"/>
      <point x="115" y="417"/>
      <point x="117" y="460" type="curve"/>
      <point x="173" y="493"/>
      <point x="230" y="506"/>
    </contour>
  </outline>
</glyph>
<glyph name="four" format="2">
  <advance width="529"/>
  <unicode hex="0034"/>
  <guideline x="278" y="204" angle="51.5165"/>
  <outline>
    <contour>
      <point x="243" y="-171" type="curve"/>
      <point x="267" y="-161"/>
      <point x="293" y="-155"/>
      <point x="322" y="-153" type="curve"/>
      <point x="440" y="497" type="line"/>
      <point x="430" y="502"/>
      <point x="412" y="506"/>
      <point x="395" y="506" type="curve"/>
      <point x="270" y="351"/>
      <point x="141" y="200"/>
      <point x="10" y="50" type="curve"/>
      <point x="9" y="28"/>
      <point x="14" y="9"/>
      <point x="25" y="-5" type="curve"/>
      <point x="98" y="-3"/>
      <point x="227" y="0"/>
      <point x="430" y="0" type="curve"/>
      <point x="434" y="25"/>
      <point x="443" y="50"/>
      <point x="453" y="70" type="curve"/>
      <point x="444" y="81"/>
      <point x="435" y="85"/>
      <point x="421" y="85" type="curve" smooth="yes"/>
      <point x="334" y="85" type="line"/>
      <point x="295" y="78" type="line"/>
      <point x="55" y="78" type="line"/>
      <point x="56" y="44" type="line"/>
      <point x="133" y="118"/>
      <point x="291" y="303"/>
      <point x="348" y="387" type="curve"/>
      <point x="341" y="399" type="line"/>
      <point x="323" y="346"/>
      <point x="315" y="309"/>
      <point x="298" y="215" type="curve" smooth="yes"/>
      <point x="268" y="44" type="line"/>
      <point x="260" y="13" type="line"/>
      <point x="233" y="-136" type="line" smooth="yes"/>
      <point x="230" y="-155"/>
      <point x="233" y="-165"/>
    </contour>
  </outline>
</glyph>
<glyph name="five" format="2">
  <advance width="464"/>
  <unicode hex="0035"/>
  <outline>
    <contour>
      <point x="70" y="246" type="curve"/>
      <point x="152" y="503" type="line"/>
      <point x="207" y="500"/>
      <point x="262" y="500"/>
      <point x="318" y="500" type="curve" smooth="yes"/>
      <point x="370" y="500"/>
      <point x="381" y="528"/>
      <point x="386" y="555" type="curve"/>
      <point x="408" y="555"/>
      <point x="425" y="553"/>
      <point x="439" y="546" type="curve"/>
      <point x="429" y="512"/>
      <point x="423" y="469"/>
      <point x="421" y="428" type="curve"/>
      <point x="414" y="416"/>
      <point x="403" y="410"/>
      <point x="385" y="410" type="curve" smooth="yes"/>
      <point x="306" y="410"/>
      <point x="232" y="410"/>
      <point x="161" y="405" type="curve"/>
      <point x="181" y="447" type="line"/>
      <point x="131" y="284" type="line"/>
      <point x="122" y="305" type="line"/>
      <point x="289" y="290"/>
      <point x="405" y="193"/>
      <point x="378" y="45" type="curve" smooth="yes"/>
      <point x="353" y="-88"/>
      <point x="230" y="-171"/>
      <point x="92" y="-171" type="curve" smooth="yes"/>
      <point x="49" y="-171"/>
      <point x="13" y="-163"/>
      <point x="-17" y="-143" type="curve"/>
      <point x="-15" y="-127"/>
      <point x="-9" y="-115"/>
      <point x="3" y="-106" type="curve"/>
      <point x="28" y="-118"/>
      <point x="61" y="-123"/>
      <point x="90" y="-123" type="curve" smooth="yes"/>
      <point x="193" y="-123"/>
      <point x="268" y="-56"/>
      <point x="283" y="30" type="curve" smooth="yes"/>
      <point x="301" y="130"/>
      <point x="226" y="213"/>
      <point x="88" y="218" type="curve"/>
      <point x="77" y="224"/>
      <point x="71" y="233"/>
    </contour>
  </outline>
</glyph>
<glyph name="seven" format="2">
  <advance width="464"/>
  <unicode hex="0037"/>
  <outline>
    <contour>
      <point x="447" y="503" type="curve"/>
      <point x="374" y="500"/>
      <point x="345" y="500"/>
      <point x="297" y="500" type="curve" smooth="yes"/>
      <point x="250" y="500"/>
      <point x="174" y="500"/>
      <point x="117" y="503" type="curve"/>
      <point x="112" y="445"/>
      <point x="101" y="388"/>
      <point x="84" y="330" type="curve"/>
      <point x="98" y="322"/>
      <point x="118" y="320"/>
      <point x="137" y="321" type="curve"/>
      <point x="159" y="391"/>
      <point x="179" y="411"/>
      <point x="237" y="411" type="curve" smooth="yes"/>
      <point x="398" y="411" type="line"/>
      <point x="383" y="430" type="line"/>
      <point x="135" y="92"/>
      <point x="81" y="-10"/>
      <point x="81" y="-112" type="curve" smooth="yes"/>
      <point x="81" y="-156"/>
      <point x="91" y="-167"/>
      <point x="109" y="-170" type="curve"/>
      <point x="125" y="-149"/>
      <point x="160" y="-121"/>
      <point x="186" y="-108" type="curve"/>
      <point x="194" y="4"/>
      <point x="205" y="64"/>
      <point x="242" y="136" type="curve" smooth="yes"/>
      <point x="271" y="193"/>
      <point x="317" y="263"/>
      <point x="461" y="471" type="curve"/>
      <point x="460" y="486"/>
      <point x="455" y="497"/>
    </contour>
  </outline>
</glyph>
<glyph name="equal" format="2">
  <advance width="550"/>
  <unicode hex="003D"/>
  <outline>
    <contour>
      <point x="45" y="147" type="curve"/>
      <point x="133" y="149"/>
      <point x="185" y="149"/>
      <point x="271" y="149" type="curve" smooth="yes"/>
      <point x="355" y="149"/>
      <point x="394" y="149"/>
      <point x="472" y="148" type="curve"/>
      <point x="480" y="162"/>
      <point x="482" y="176"/>
      <point x="482" y="197" type="curve"/>
      <point x="55" y="197" type="line"/>
      <point x="49" y="188"/>
      <point x="45" y="162"/>
    </contour>
    <contour>
      <point x="77" y="313" type="curve"/>
      <point x="166" y="315"/>
      <point x="217" y="315"/>
      <point x="303" y="315" type="curve" smooth="yes"/>
      <point x="387" y="315"/>
      <point x="425" y="315"/>
      <point x="503" y="314" type="curve"/>
      <point x="511" y="328"/>
      <point x="513" y="342"/>
      <point x="513" y="362" type="curve"/>
      <point x="88" y="362" type="line"/>
      <point x="82" y="353"/>
      <point x="77" y="328"/>
    </contour>
  </outline>
</glyph>
<glyph name="question" format="2">
  <advance width="520.916"/>
  <unicode hex="003F"/>
  <outline>
    <contour>
      <point x="206" y="671" type="curve"/>
      <point x="203" y="626"/>
      <point x="198" y="603"/>
      <point x="184" y="554" type="curve"/>
      <point x="196" y="546"/>
      <point x="207" y="544"/>
      <point x="228" y="544" type="curve"/>
      <point x="256" y="637"/>
      <point x="288" y="673"/>
      <point x="333" y="673" type="curve" smooth="yes"/>
      <point x="385" y="673"/>
      <point x="401" y="630"/>
      <point x="391" y="576" type="curve" smooth="yes"/>
      <point x="374" y="483"/>
      <point x="253" y="448"/>
      <point x="227" y="315" type="curve" smooth="yes"/>
      <point x="216" y="258"/>
      <point x="229" y="208"/>
      <point x="246" y="193" type="curve"/>
      <point x="258" y="193"/>
      <point x="267" y="194"/>
      <point x="279" y="201" type="curve"/>
      <point x="277" y="220"/>
      <point x="279" y="253"/>
      <point x="283" y="269" type="curve" smooth="yes"/>
      <point x="309" y="409"/>
      <point x="459" y="441"/>
      <point x="485" y="569" type="curve" smooth="yes"/>
      <point x="502" y="656"/>
      <point x="448" y="714"/>
      <point x="348" y="714" type="curve" smooth="yes"/>
      <point x="285" y="714"/>
      <point x="229" y="691"/>
    </contour>
    <component base="_part.dot" xOffset="165"/>
  </outline>
</glyph>
<glyph name="at" format="2">
  <advance width="809"/>
  <unicode hex="0040"/>
  <outline>
    <contour>
      <point x="480" y="660" type="curve" smooth="yes"/>
      <point x="256" y="660"/>
      <point x="78" y="500"/>
      <point x="37" y="260" type="curve" smooth="yes"/>
      <point x="-12" y="-17"/>
      <point x="127" y="-202"/>
      <point x="384" y="-202" type="curve" smooth="yes"/>
      <point x="528" y="-202"/>
      <point x="635" y="-152"/>
      <point x="710" y="-78" type="curve"/>
      <point x="707" y="-64"/>
      <point x="699" y="-56"/>
      <point x="684" y="-53" type="curve"/>
      <point x="607" y="-115"/>
      <point x="511" y="-157"/>
      <point x="399" y="-157" type="curve" smooth="yes"/>
      <point x="175" y="-157"/>
      <point x="55" y="14"/>
      <point x="101" y="271" type="curve" smooth="yes"/>
      <point x="137" y="480"/>
      <point x="284" y="619"/>
      <point x="467" y="619" type="curve" smooth="yes"/>
      <point x="665" y="619"/>
      <point x="776" y="495"/>
      <point x="739" y="287" type="curve" smooth="yes"/>
      <point x="717" y="153"/>
      <point x="649" y="64"/>
      <point x="569" y="64" type="curve" smooth="yes"/>
      <point x="547" y="64"/>
      <point x="539" y="70"/>
      <point x="555" y="147" type="curve" smooth="yes"/>
      <point x="605" y="371" type="line"/>
      <point x="623" y="451"/>
      <point x="615" y="462"/>
      <point x="603" y="467" type="curve"/>
      <point x="588" y="460"/>
      <point x="561" y="457"/>
      <point x="540" y="458" type="curve"/>
      <point x="537" y="346" type="line"/>
      <point x="468" y="147" type="line"/>
      <point x="475" y="147" type="line"/>
      <point x="451" y="92"/>
      <point x="434" y="-9"/>
      <point x="524" y="-9" type="curve" smooth="yes"/>
      <point x="651" y="-9"/>
      <point x="760" y="121"/>
      <point x="790" y="291" type="curve" smooth="yes"/>
      <point x="831" y="521"/>
      <point x="706" y="660"/>
    </contour>
    <component base="bauch.comp" xOffset="191"/>
  </outline>
</glyph>
<glyph name="E" format="2">
  <advance width="583"/>
  <unicode hex="0045"/>
  <anchor x="271" y="0" name="bottom"/>
  <anchor x="403" y="0" name="ogonek"/>
  <anchor x="366" y="676" name="top"/>
  <anchor x="104" y="676" name="topleft"/>
  <outline>
    <contour>
      <point x="29" y="-3" type="curve"/>
      <point x="107" y="0"/>
      <point x="183" y="0"/>
      <point x="280" y="0" type="curve"/>
      <point x="286" y="45" type="line"/>
      <point x="211" y="45"/>
      <point x="199" y="59"/>
      <point x="213" y="143" type="curve" smooth="yes"/>
      <point x="304" y="676" type="line"/>
      <point x="268" y="676"/>
      <point x="206" y="676"/>
      <point x="128" y="679" type="curve"/>
      <point x="126" y="663"/>
      <point x="127" y="649"/>
      <point x="129" y="636" type="curve"/>
      <point x="186" y="629"/>
      <point x="201" y="613"/>
      <point x="188" y="540" type="curve" smooth="yes"/>
      <point x="119" y="143" type="line" smooth="yes"/>
      <point x="106" y="65"/>
      <point x="96" y="48"/>
      <point x="36" y="40" type="curve"/>
      <point x="31" y="26"/>
      <point x="29" y="12"/>
    </contour>
    <contour>
      <point x="488" y="-3" type="curve"/>
      <point x="500" y="55"/>
      <point x="520" y="108"/>
      <point x="542" y="150" type="curve" smooth="yes"/>
      <point x="530" y="163"/>
      <point x="515" y="169"/>
      <point x="497" y="172" type="curve"/>
      <point x="456" y="91"/>
      <point x="428" y="45"/>
      <point x="305" y="45" type="curve" smooth="yes"/>
      <point x="286" y="45" type="line"/>
      <point x="280" y="0" type="line"/>
      <point x="369" y="0"/>
      <point x="429" y="0"/>
    </contour>
    <contour>
      <point x="448" y="221" type="curve"/>
      <point x="450" y="254"/>
      <point x="453" y="288"/>
      <point x="460" y="336" type="curve" smooth="yes"/>
      <point x="467" y="388"/>
      <point x="473" y="414"/>
      <point x="481" y="447" type="curve"/>
      <point x="463" y="450"/>
      <point x="450" y="449"/>
      <point x="433" y="446" type="curve"/>
      <point x="422" y="380"/>
      <point x="389" y="364"/>
      <point x="307" y="364" type="curve" smooth="yes"/>
      <point x="242" y="364" type="line"/>
      <point x="234" y="319" type="line"/>
      <point x="303" y="319" type="line" smooth="yes"/>
      <point x="385" y="319"/>
      <point x="407" y="301"/>
      <point x="402" y="234" type="curve"/>
      <point x="414" y="226"/>
      <point x="429" y="223"/>
    </contour>
    <contour>
      <point x="525" y="509" type="curve"/>
      <point x="546" y="508"/>
      <point x="564" y="511"/>
      <point x="575" y="516" type="curve"/>
      <point x="572" y="563"/>
      <point x="576" y="629"/>
      <point x="582" y="679" type="curve"/>
      <point x="479" y="676"/>
      <point x="396" y="676"/>
      <point x="304" y="676" type="curve"/>
      <point x="276" y="631" type="line"/>
      <point x="383" y="631" type="line" smooth="yes"/>
      <point x="512" y="631"/>
      <point x="522" y="595"/>
    </contour>
  </outline>
</glyph>
<glyph name="H" format="2">
  <advance width="756"/>
  <unicode hex="0048"/>
  <anchor x="338" y="0" name="bottom"/>
  <anchor x="668" y="40" name="bottomright"/>
  <anchor x="422" y="478" name="center"/>
  <anchor x="610" y="0" name="ogonek"/>
  <anchor x="445" y="676" name="top"/>
  <anchor x="94" y="676" name="topleft"/>
  <outline>
    <contour>
      <point x="428" y="-3" type="curve"/>
      <point x="462" y="-1"/>
      <point x="510" y="0"/>
      <point x="549" y="0" type="curve" smooth="yes"/>
      <point x="588" y="0"/>
      <point x="630" y="-1"/>
      <point x="670" y="-3" type="curve"/>
      <point x="672" y="12"/>
      <point x="671" y="28"/>
      <point x="668" y="40" type="curve"/>
      <point x="609" y="47"/>
      <point x="597" y="60"/>
      <point x="609" y="127" type="curve" smooth="yes"/>
      <point x="682" y="549" type="line" smooth="yes"/>
      <point x="694" y="614"/>
      <point x="709" y="627"/>
      <point x="760" y="636" type="curve"/>
      <point x="766" y="649"/>
      <point x="768" y="663"/>
      <point x="769" y="679" type="curve"/>
      <point x="729" y="677"/>
      <point x="690" y="676"/>
      <point x="647" y="676" type="curve" smooth="yes"/>
      <point x="604" y="676"/>
      <point x="564" y="677"/>
      <point x="527" y="679" type="curve"/>
      <point x="525" y="663"/>
      <point x="526" y="649"/>
      <point x="528" y="636" type="curve"/>
      <point x="583" y="629"/>
      <point x="600" y="616"/>
      <point x="588" y="549" type="curve" smooth="yes"/>
      <point x="515" y="127" type="line" smooth="yes"/>
      <point x="503" y="60"/>
      <point x="490" y="46"/>
      <point x="436" y="40" type="curve"/>
      <point x="431" y="29"/>
      <point x="428" y="14"/>
    </contour>
    <contour>
      <point x="29" y="-3" type="curve"/>
      <point x="63" y="-1"/>
      <point x="111" y="0"/>
      <point x="150" y="0" type="curve" smooth="yes"/>
      <point x="189" y="0"/>
      <point x="231" y="-1"/>
      <point x="271" y="-3" type="curve"/>
      <point x="273" y="12"/>
      <point x="272" y="28"/>
      <point x="269" y="40" type="curve"/>
      <point x="210" y="47"/>
      <point x="198" y="60"/>
      <point x="210" y="127" type="curve" smooth="yes"/>
      <point x="283" y="549" type="line" smooth="yes"/>
      <point x="295" y="614"/>
      <point x="310" y="627"/>
      <point x="361" y="636" type="curve"/>
      <point x="367" y="649"/>
      <point x="369" y="663"/>
      <point x="370" y="679" type="curve"/>
      <point x="330" y="677"/>
      <point x="291" y="676"/>
      <point x="248" y="676" type="curve" smooth="yes"/>
      <point x="205" y="676"/>
      <point x="165" y="677"/>
      <point x="128" y="679" type="curve"/>
      <point x="126" y="663"/>
      <point x="127" y="649"/>
      <point x="129" y="636" type="curve"/>
      <point x="184" y="629"/>
      <point x="201" y="616"/>
      <point x="189" y="549" type="curve" smooth="yes"/>
      <point x="116" y="127" type="line" smooth="yes"/>
      <point x="104" y="60"/>
      <point x="91" y="46"/>
      <point x="37" y="40" type="curve"/>
      <point x="32" y="29"/>
      <point x="29" y="14"/>
    </contour>
    <contour>
      <point x="231" y="319" type="line"/>
      <point x="313" y="325"/>
      <point x="486" y="325"/>
      <point x="567" y="325" type="curve"/>
      <point x="575" y="368" type="line"/>
      <point x="240" y="368" type="line"/>
    </contour>
  </outline>
</glyph>
<glyph name="L" format="2">
  <advance width="545"/>
  <unicode hex="004C"/>
  <anchor x="254" y="0" name="bottom"/>
  <anchor x="207" y="354" name="center"/>
  <anchor x="254" y="676" name="top"/>
  <anchor x="502" y="446" name="topright"/>
  <outline>
    <contour>
      <point x="25" y="-3" type="curve"/>
      <point x="104" y="0"/>
      <point x="203" y="0"/>
      <point x="279" y="0" type="curve" smooth="yes"/>
      <point x="351" y="0"/>
      <point x="433" y="0"/>
      <point x="471" y="-3" type="curve"/>
      <point x="484" y="56"/>
      <point x="502" y="108"/>
      <point x="524" y="150" type="curve"/>
      <point x="512" y="163"/>
      <point x="498" y="169"/>
      <point x="480" y="172" type="curve"/>
      <point x="433" y="78"/>
      <point x="398" y="45"/>
      <point x="287" y="45" type="curve" smooth="yes"/>
      <point x="281" y="45" type="line" smooth="yes"/>
      <point x="206" y="45"/>
      <point x="196" y="59"/>
      <point x="209" y="133" type="curve" smooth="yes"/>
      <point x="280" y="541" type="line" smooth="yes"/>
      <point x="292" y="611"/>
      <point x="306" y="629"/>
      <point x="367" y="636" type="curve"/>
      <point x="372" y="647"/>
      <point x="375" y="662"/>
      <point x="375" y="678" type="curve"/>
      <point x="336" y="676"/>
      <point x="287" y="676"/>
      <point x="246" y="676" type="curve" smooth="yes"/>
      <point x="205" y="676"/>
      <point x="165" y="676"/>
      <point x="128" y="679" type="curve"/>
      <point x="127" y="665"/>
      <point x="127" y="649"/>
      <point x="130" y="636" type="curve"/>
      <point x="181" y="629"/>
      <point x="199" y="617"/>
      <point x="188" y="554" type="curve" smooth="yes"/>
      <point x="116" y="143" type="line" smooth="yes"/>
      <point x="103" y="65"/>
      <point x="92" y="46"/>
      <point x="32" y="40" type="curve"/>
      <point x="27" y="26"/>
      <point x="26" y="12"/>
    </contour>
  </outline>
</glyph>
<glyph name="N" format="2">
  <advance width="675.428"/>
  <unicode hex="004E"/>
  <anchor x="337" y="0" name="bottom"/>
  <anchor x="383" y="353" name="center"/>
  <anchor x="427" y="676" name="top"/>
  <outline>
    <contour>
      <point x="31" y="40" type="curve"/>
      <point x="27" y="26"/>
      <point x="25" y="13"/>
      <point x="24" y="-3" type="curve"/>
      <point x="68" y="0"/>
      <point x="88" y="0"/>
      <point x="119" y="0" type="curve" smooth="yes"/>
      <point x="146" y="0"/>
      <point x="188" y="0"/>
      <point x="228" y="-3" type="curve"/>
      <point x="230" y="14"/>
      <point x="230" y="27"/>
      <point x="226" y="40" type="curve"/>
      <point x="164" y="51"/>
      <point x="153" y="75"/>
      <point x="172" y="182" type="curve" smooth="yes"/>
      <point x="247" y="610" type="line"/>
      <point x="196" y="610" type="line"/>
      <point x="119" y="172" type="line" smooth="yes"/>
      <point x="102" y="76"/>
      <point x="81" y="47"/>
    </contour>
    <contour>
      <point x="128" y="679" type="curve"/>
      <point x="126" y="664"/>
      <point x="126" y="649"/>
      <point x="130" y="636" type="curve"/>
      <point x="162" y="633"/>
      <point x="174" y="629"/>
      <point x="188" y="603" type="curve" smooth="yes"/>
      <point x="302" y="397"/>
      <point x="406" y="201"/>
      <point x="510" y="-9" type="curve"/>
      <point x="548" y="124" type="line"/>
      <point x="458" y="306"/>
      <point x="357" y="500"/>
      <point x="257" y="679" type="curve"/>
      <point x="240" y="677"/>
      <point x="215" y="676"/>
      <point x="188" y="676" type="curve" smooth="yes"/>
      <point x="165" y="676"/>
      <point x="148" y="677"/>
    </contour>
    <contour>
      <point x="532" y="679" type="curve"/>
      <point x="530" y="663"/>
      <point x="531" y="649"/>
      <point x="533" y="636" type="curve"/>
      <point x="592" y="625"/>
      <point x="605" y="604"/>
      <point x="587" y="499" type="curve" smooth="yes"/>
      <point x="516" y="94" type="line"/>
      <point x="510" y="-9" type="line"/>
      <point x="524" y="-9"/>
      <point x="540" y="-8"/>
      <point x="551" y="-4" type="curve"/>
      <point x="636" y="489" type="line" smooth="yes"/>
      <point x="654" y="595"/>
      <point x="668" y="624"/>
      <point x="712" y="636" type="curve"/>
      <point x="717" y="649"/>
      <point x="720" y="667"/>
      <point x="720" y="679" type="curve"/>
      <point x="693" y="676"/>
      <point x="653" y="676"/>
      <point x="623" y="676" type="curve" smooth="yes"/>
      <point x="597" y="676"/>
      <point x="561" y="676"/>
    </contour>
  </outline>
</glyph>
<glyph name="O" format="2">
  <advance width="741"/>
  <unicode hex="004F"/>
  <anchor x="347" y="0" name="bottom"/>
  <anchor x="397" y="326" name="center"/>
  <anchor x="505" y="25" name="ogonek"/>
  <anchor x="442" y="676" name="top"/>
  <anchor x="117" y="676" name="topleft"/>
  <anchor x="677" y="676" name="topright"/>
  <outline>
    <contour>
      <point x="347" y="-9" type="curve" smooth="yes"/>
      <point x="539" y="-9"/>
      <point x="682" y="128"/>
      <point x="714" y="296" type="curve" smooth="yes"/>
      <point x="763" y="548"/>
      <point x="629" y="685"/>
      <point x="436" y="685" type="curve" smooth="yes"/>
      <point x="253" y="685"/>
      <point x="102" y="549"/>
      <point x="69" y="375" type="curve" smooth="yes"/>
      <point x="25" y="146"/>
      <point x="147" y="-9"/>
    </contour>
    <contour>
      <point x="365" y="35" type="curve" smooth="yes"/>
      <point x="208" y="35"/>
      <point x="137" y="193"/>
      <point x="173" y="382" type="curve" smooth="yes"/>
      <point x="200" y="524"/>
      <point x="297" y="641"/>
      <point x="417" y="641" type="curve" smooth="yes"/>
      <point x="558" y="641"/>
      <point x="649" y="497"/>
      <point x="612" y="294" type="curve" smooth="yes"/>
      <point x="585" y="146"/>
      <point x="497" y="35"/>
    </contour>
  </outline>
</glyph>
<glyph name="S" format="2">
  <advance width="460"/>
  <unicode hex="0053"/>
  <anchor x="217" y="0" name="bottom"/>
  <anchor x="253" y="338" name="center"/>
  <anchor x="294" y="676" name="top"/>
  <outline>
    <contour>
      <point x="209" y="-9" type="curve" smooth="yes"/>
      <point x="317" y="-9"/>
      <point x="408" y="56"/>
      <point x="425" y="153" type="curve" smooth="yes"/>
      <point x="462" y="364"/>
      <point x="148" y="381"/>
      <point x="173" y="541" type="curve" smooth="yes"/>
      <point x="184" y="611"/>
      <point x="226" y="639"/>
      <point x="291" y="639" type="curve" smooth="yes"/>
      <point x="349" y="639"/>
      <point x="386" y="608"/>
      <point x="388" y="504" type="curve"/>
      <point x="407" y="501"/>
      <point x="428" y="503"/>
      <point x="443" y="509" type="curve"/>
      <point x="443" y="554"/>
      <point x="447" y="593"/>
      <point x="454" y="638" type="curve"/>
      <point x="421" y="665"/>
      <point x="367" y="685"/>
      <point x="298" y="685" type="curve" smooth="yes"/>
      <point x="178" y="685"/>
      <point x="101" y="627"/>
      <point x="85" y="535" type="curve" smooth="yes"/>
      <point x="44" y="302"/>
      <point x="361" y="308"/>
      <point x="328" y="136" type="curve" smooth="yes"/>
      <point x="317" y="78"/>
      <point x="270" y="39"/>
      <point x="211" y="39" type="curve" smooth="yes"/>
      <point x="110" y="39"/>
      <point x="78" y="87"/>
      <point x="85" y="204" type="curve"/>
      <point x="69" y="209"/>
      <point x="47" y="208"/>
      <point x="31" y="202" type="curve"/>
      <point x="28" y="157"/>
      <point x="17" y="110"/>
      <point x="2" y="63" type="curve"/>
      <point x="51" y="20"/>
      <point x="107" y="-9"/>
    </contour>
  </outline>
</glyph>
<glyph name="T" format="2">
  <advance width="545"/>
  <unicode hex="0054"/>
  <anchor x="249" y="0" name="bottom"/>
  <anchor x="372" y="40" name="bottomright"/>
  <anchor x="302" y="348" name="center"/>
  <anchor x="349" y="676" name="top"/>
  <outline>
    <contour>
      <point x="242" y="637" type="curve" smooth="yes"/>
      <point x="445" y="637" type="line" smooth="yes"/>
      <point x="528" y="637"/>
      <point x="547" y="605"/>
      <point x="548" y="513" type="curve"/>
      <point x="566" y="512"/>
      <point x="581" y="513"/>
      <point x="596" y="521" type="curve"/>
      <point x="596" y="577"/>
      <point x="601" y="632"/>
      <point x="609" y="679" type="curve"/>
      <point x="554" y="676"/>
      <point x="453" y="676"/>
      <point x="350" y="676" type="curve" smooth="yes"/>
      <point x="251" y="676"/>
      <point x="154" y="676"/>
      <point x="99" y="679" type="curve"/>
      <point x="92" y="632"/>
      <point x="77" y="566"/>
      <point x="63" y="524" type="curve"/>
      <point x="74" y="512"/>
      <point x="90" y="510"/>
      <point x="110" y="510" type="curve"/>
      <point x="139" y="600"/>
      <point x="169" y="637"/>
    </contour>
    <contour>
      <point x="303" y="649" type="line"/>
      <point x="213" y="132" type="line" smooth="yes"/>
      <point x="201" y="65"/>
      <point x="187" y="49"/>
      <point x="122" y="41" type="curve"/>
      <point x="118" y="30"/>
      <point x="115" y="15"/>
      <point x="115" y="-3" type="curve"/>
      <point x="151" y="0"/>
      <point x="202" y="0"/>
      <point x="246" y="0" type="curve" smooth="yes"/>
      <point x="286" y="0"/>
      <point x="332" y="0"/>
      <point x="374" y="-3" type="curve"/>
      <point x="376" y="13"/>
      <point x="375" y="27"/>
      <point x="372" y="40" type="curve"/>
      <point x="301" y="49"/>
      <point x="295" y="65"/>
      <point x="305" y="122" type="curve" smooth="yes"/>
      <point x="397" y="649" type="line"/>
    </contour>
  </outline>
</glyph>
<glyph name="W" format="2">
  <advance width="962"/>
  <unicode hex="0057"/>
  <anchor x="510" y="281" name="center"/>
  <anchor x="594" y="676" name="top"/>
  <outline>
    <contour>
      <point x="102" y="679" type="curve"/>
      <point x="100" y="664"/>
      <point x="101" y="650"/>
      <point x="105" y="637" type="curve"/>
      <point x="135" y="627"/>
      <point x="139" y="620"/>
      <point x="156" y="529" type="curve" smooth="yes"/>
      <point x="183" y="382"/>
      <point x="213" y="202"/>
      <point x="243" y="-6" type="curve"/>
      <point x="257" y="-8"/>
      <point x="276" y="-6"/>
      <point x="286" y="0" type="curve"/>
      <point x="382" y="178"/>
      <point x="478" y="369"/>
      <point x="563" y="555" type="curve"/>
      <point x="543" y="555" type="line"/>
      <point x="589" y="387"/>
      <point x="631" y="167"/>
      <point x="656" y="-5" type="curve"/>
      <point x="669" y="-7"/>
      <point x="685" y="-6"/>
      <point x="697" y="0" type="curve"/>
      <point x="780" y="162"/>
      <point x="854" y="324"/>
      <point x="924" y="486" type="curve" smooth="yes"/>
      <point x="972" y="597"/>
      <point x="990" y="622"/>
      <point x="1023" y="636" type="curve"/>
      <point x="1029" y="650"/>
      <point x="1032" y="665"/>
      <point x="1032" y="679" type="curve"/>
      <point x="1006" y="676"/>
      <point x="970" y="676"/>
      <point x="937" y="676" type="curve" smooth="yes"/>
      <point x="903" y="676"/>
      <point x="874" y="676"/>
      <point x="847" y="679" type="curve"/>
      <point x="845" y="665"/>
      <point x="845" y="650"/>
      <point x="848" y="636" type="curve"/>
      <point x="917" y="621"/>
      <point x="922" y="602"/>
      <point x="880" y="499" type="curve" smooth="yes"/>
      <point x="829" y="375"/>
      <point x="773" y="252"/>
      <point x="709" y="128" type="curve"/>
      <point x="729" y="128" type="line"/>
      <point x="703" y="305"/>
      <point x="659" y="513"/>
      <point x="614" y="683" type="curve"/>
      <point x="596" y="685"/>
      <point x="582" y="683"/>
      <point x="571" y="678" type="curve"/>
      <point x="484" y="488"/>
      <point x="394" y="301"/>
      <point x="300" y="121" type="curve"/>
      <point x="318" y="121" type="line"/>
      <point x="300" y="249"/>
      <point x="274" y="407"/>
      <point x="254" y="525" type="curve" smooth="yes"/>
      <point x="240" y="607"/>
      <point x="247" y="622"/>
      <point x="321" y="635" type="curve"/>
      <point x="327" y="650"/>
      <point x="328" y="664"/>
      <point x="328" y="679" type="curve"/>
      <point x="292" y="676"/>
      <point x="246" y="676"/>
      <point x="213" y="676" type="curve" smooth="yes"/>
      <point x="184" y="676"/>
      <point x="154" y="676"/>
    </contour>
  </outline>
</glyph>
<glyph name="Z" format="2">
  <advance width="540"/>
  <unicode hex="005A"/>
  <anchor x="225" y="0" name="bottom"/>
  <anchor x="340" y="676" name="top"/>
  <outline>
    <contour>
      <point x="-13" y="-3" type="curve"/>
      <point x="66" y="0"/>
      <point x="114" y="0"/>
      <point x="208" y="0" type="curve" smooth="yes"/>
      <point x="298" y="0"/>
      <point x="369" y="0"/>
      <point x="465" y="-3" type="curve"/>
      <point x="474" y="50"/>
      <point x="492" y="107"/>
      <point x="509" y="148" type="curve"/>
      <point x="495" y="161"/>
      <point x="479" y="168"/>
      <point x="459" y="172" type="curve"/>
      <point x="412" y="61"/>
      <point x="382" y="45"/>
      <point x="259" y="45" type="curve" smooth="yes"/>
      <point x="87" y="45" type="line"/>
      <point x="94" y="21" type="line"/>
      <point x="261" y="222"/>
      <point x="417" y="426"/>
      <point x="573" y="638" type="curve"/>
      <point x="573" y="655"/>
      <point x="568" y="670"/>
      <point x="560" y="679" type="curve"/>
      <point x="481" y="676"/>
      <point x="429" y="676"/>
      <point x="361" y="676" type="curve" smooth="yes"/>
      <point x="267" y="676"/>
      <point x="210" y="676"/>
      <point x="129" y="679" type="curve"/>
      <point x="121" y="624"/>
      <point x="103" y="561"/>
      <point x="86" y="522" type="curve"/>
      <point x="100" y="510"/>
      <point x="116" y="505"/>
      <point x="138" y="503" type="curve"/>
      <point x="181" y="612"/>
      <point x="219" y="632"/>
      <point x="307" y="632" type="curve" smooth="yes"/>
      <point x="463" y="632" type="line"/>
      <point x="453" y="651" type="line"/>
      <point x="302" y="442"/>
      <point x="145" y="239"/>
      <point x="-22" y="38" type="curve"/>
      <point x="-23" y="21"/>
      <point x="-19" y="7"/>
    </contour>
  </outline>
</glyph>
<glyph name="backslash" format="2">
  <advance width="292"/>
  <unicode hex="005C"/>
  <outline>
    <contour>
      <point x="94" y="709" type="curve"/>
      <point x="133" y="471"/>
      <point x="167" y="232"/>
      <point x="198" y="-8" type="curve"/>
      <point x="215" y="-9"/>
      <point x="234" y="-7"/>
      <point x="247" y="0" type="curve"/>
      <point x="144" y="715" type="line"/>
      <point x="128" y="718"/>
      <point x="110" y="716"/>
    </contour>
  </outline>
</glyph>
<glyph name="bracketright" format="2">
  <advance width="289.556"/>
  <unicode hex="005D"/>
  <outline>
    <contour>
      <point x="142" y="-269" type="curve"/>
      <point x="320" y="742" type="line"/>
      <point x="274" y="739"/>
      <point x="176" y="739"/>
      <point x="127" y="742" type="curve"/>
      <point x="119" y="734"/>
      <point x="114" y="718"/>
      <point x="114" y="704" type="curve"/>
      <point x="219" y="695"/>
      <point x="241" y="688"/>
      <point x="227" y="610" type="curve" smooth="yes"/>
      <point x="92" y="-157" type="line" smooth="yes"/>
      <point x="82" y="-213"/>
      <point x="54" y="-225"/>
      <point x="-47" y="-229" type="curve"/>
      <point x="-55" y="-239"/>
      <point x="-58" y="-256"/>
      <point x="-57" y="-269" type="curve"/>
      <point x="-10" y="-266"/>
      <point x="89" y="-266"/>
    </contour>
  </outline>
</glyph>
<glyph name="asciicircum" format="2">
  <advance width="499"/>
  <unicode hex="005E"/>
  <outline>
    <contour>
      <point x="314" y="685" type="curve"/>
      <point x="80" y="430" type="line"/>
      <point x="80" y="409"/>
      <point x="84" y="396"/>
      <point x="95" y="383" type="curve"/>
      <point x="162" y="459"/>
      <point x="255" y="564"/>
      <point x="338" y="651" type="curve"/>
      <point x="451" y="394" type="line"/>
      <point x="466" y="392"/>
      <point x="484" y="397"/>
      <point x="493" y="404" type="curve"/>
      <point x="453" y="486"/>
      <point x="398" y="612"/>
      <point x="365" y="694" type="curve"/>
      <point x="351" y="697"/>
      <point x="332" y="697"/>
    </contour>
  </outline>
</glyph>
<glyph name="underscore" format="2">
  <advance width="550"/>
  <unicode hex="005F"/>
  <outline>
    <contour>
      <point x="-35" y="-143" type="curve"/>
      <point x="64" y="-142"/>
      <point x="122" y="-141"/>
      <point x="196" y="-141" type="curve" smooth="yes"/>
      <point x="280" y="-141"/>
      <point x="329" y="-141"/>
      <point x="439" y="-142" type="curve"/>
      <point x="446" y="-131"/>
      <point x="451" y="-106"/>
      <point x="451" y="-92" type="curve"/>
      <point x="-23" y="-92" type="line"/>
      <point x="-32" y="-105"/>
      <point x="-35" y="-122"/>
    </contour>
  </outline>
</glyph>
<glyph name="b" format="2">
  <advance width="442"/>
  <unicode hex="0062"/>
  <outline>
    <contour>
      <point x="207" y="710" type="curve"/>
      <point x="171" y="692"/>
      <point x="113" y="675"/>
      <point x="72" y="669" type="curve"/>
      <point x="67" y="660"/>
      <point x="65" y="644"/>
      <point x="66" y="631" type="curve"/>
      <point x="130" y="631"/>
      <point x="134" y="627"/>
      <point x="117" y="534" type="curve" smooth="yes"/>
      <point x="61" y="217" type="line"/>
      <point x="48" y="142"/>
      <point x="26" y="69"/>
      <point x="8" y="41" type="curve"/>
      <point x="41" y="7"/>
      <point x="81" y="-9"/>
      <point x="145" y="-9" type="curve"/>
      <point x="89" y="79" type="line"/>
      <point x="142" y="262" type="line"/>
      <point x="176" y="370"/>
      <point x="186" y="405"/>
      <point x="228" y="646" type="curve" smooth="yes"/>
      <point x="234" y="683"/>
      <point x="228" y="703"/>
    </contour>
    <contour>
      <point x="82" y="4" type="line"/>
      <point x="95" y="-3"/>
      <point x="125" y="-9"/>
      <point x="147" y="-9" type="curve" smooth="yes"/>
      <point x="277" y="-9"/>
      <point x="385" y="102"/>
      <point x="416" y="256" type="curve" smooth="yes"/>
      <point x="445" y="404"/>
      <point x="413" y="467"/>
      <point x="346" y="467" type="curve" smooth="yes"/>
      <point x="262" y="467"/>
      <point x="180" y="363"/>
      <point x="143" y="262" type="curve"/>
      <point x="117" y="262" type="line"/>
      <point x="62" y="49" type="line"/>
      <point x="109" y="42" type="line"/>
      <point x="128" y="122" type="line" smooth="yes"/>
      <point x="166" y="287"/>
      <point x="255" y="386"/>
      <point x="290" y="386" type="curve" smooth="yes"/>
      <point x="330" y="386"/>
      <point x="343" y="323"/>
      <point x="319" y="210" type="curve" smooth="yes"/>
      <point x="299" y="111"/>
      <point x="254" y="42"/>
      <point x="172" y="42" type="curve" smooth="yes"/>
      <point x="145" y="42"/>
      <point x="119" y="47"/>
      <point x="99" y="58" type="curve"/>
    </contour>
  </outline>
</glyph>
<glyph name="c" format="2">
  <advance width="363.942"/>
  <unicode hex="0063"/>
  <anchor x="151" y="0" name="bottom"/>
  <anchor x="187" y="229" name="center"/>
  <anchor x="252" y="458" name="top"/>
  <outline>
    <contour>
      <point x="138" y="-9" type="curve" smooth="yes"/>
      <point x="197" y="-9"/>
      <point x="263" y="21"/>
      <point x="317" y="90" type="curve"/>
      <point x="312" y="102"/>
      <point x="306" y="111"/>
      <point x="296" y="118" type="curve"/>
      <point x="264" y="83"/>
      <point x="226" y="60"/>
      <point x="187" y="60" type="curve" smooth="yes"/>
      <point x="104" y="60"/>
      <point x="107" y="167"/>
      <point x="121" y="250" type="curve" smooth="yes"/>
      <point x="135" y="332"/>
      <point x="165" y="418"/>
      <point x="238" y="418" type="curve" smooth="yes"/>
      <point x="274" y="418"/>
      <point x="291" y="397"/>
      <point x="286" y="331" type="curve"/>
      <point x="304" y="328"/>
      <point x="323" y="330"/>
      <point x="334" y="335" type="curve"/>
      <point x="338" y="371"/>
      <point x="346" y="410"/>
      <point x="357" y="443" type="curve"/>
      <point x="335" y="459"/>
      <point x="300" y="467"/>
      <point x="264" y="467" type="curve" smooth="yes"/>
      <point x="137" y="467"/>
      <point x="63" y="368"/>
      <point x="33" y="237" type="curve" smooth="yes"/>
      <point x="6" y="119"/>
      <point x="17" y="-9"/>
    </contour>
  </outline>
</glyph>
<glyph name="d" format="2">
  <advance width="482"/>
  <unicode hex="0064"/>
  <anchor x="196" y="0" name="bottom"/>
  <anchor x="387" y="543" name="center"/>
  <anchor x="320" y="708" name="top"/>
  <anchor x="532" y="458" name="topright"/>
  <outline>
    <contour>
      <point x="330" y="-9" type="curve" smooth="yes"/>
      <point x="375" y="-9"/>
      <point x="415" y="21"/>
      <point x="449" y="59" type="curve"/>
      <point x="445" y="71"/>
      <point x="440" y="81"/>
      <point x="431" y="90" type="curve"/>
      <point x="405" y="68"/>
      <point x="390" y="60"/>
      <point x="374" y="60" type="curve" smooth="yes"/>
      <point x="357" y="60"/>
      <point x="356" y="70"/>
      <point x="375" y="177" type="curve" smooth="yes"/>
      <point x="457" y="646" type="line" smooth="yes"/>
      <point x="463" y="683"/>
      <point x="457" y="703"/>
      <point x="436" y="710" type="curve"/>
      <point x="407" y="695"/>
      <point x="333" y="672"/>
      <point x="301" y="669" type="curve"/>
      <point x="296" y="659"/>
      <point x="294" y="644"/>
      <point x="295" y="631" type="curve"/>
      <point x="359" y="631"/>
      <point x="362" y="631"/>
      <point x="346" y="534" type="curve" smooth="yes"/>
      <point x="336" y="475"/>
      <point x="332" y="439"/>
      <point x="338" y="406" type="curve"/>
      <point x="304" y="200" type="line"/>
      <point x="296" y="186"/>
      <point x="280" y="141"/>
      <point x="274" y="120" type="curve" smooth="yes"/>
      <point x="258" y="64"/>
      <point x="259" y="-9"/>
    </contour>
    <component base="bauch.comp" xOffset="-4"/>
  </outline>
</glyph>
<glyph name="h" format="2">
  <advance width="497"/>
  <unicode hex="0068"/>
  <anchor x="210" y="0" name="bottom"/>
  <anchor x="464" y="58" name="bottomright"/>
  <anchor x="164" y="530" name="center"/>
  <anchor x="276" y="676" name="top"/>
  <outline>
    <contour>
      <point x="23" y="0" type="line"/>
      <point x="114" y="0" type="line"/>
      <point x="160" y="261" type="line"/>
      <point x="142" y="262" type="line"/>
      <point x="176" y="370"/>
      <point x="186" y="405"/>
      <point x="228" y="646" type="curve" smooth="yes"/>
      <point x="234" y="683"/>
      <point x="228" y="703"/>
      <point x="207" y="710" type="curve"/>
      <point x="171" y="692"/>
      <point x="113" y="675"/>
      <point x="72" y="669" type="curve"/>
      <point x="67" y="660"/>
      <point x="65" y="644"/>
      <point x="66" y="631" type="curve"/>
      <point x="130" y="631"/>
      <point x="134" y="627"/>
      <point x="117" y="534" type="curve" smooth="yes"/>
    </contour>
    <component base="schulter.comp" xOffset="-17"/>
  </outline>
</glyph>
<glyph name="k" format="2">
  <advance width="463"/>
  <unicode hex="006B"/>
  <anchor x="187" y="0" name="bottom"/>
  <anchor x="278" y="676" name="top"/>
  <outline>
    <contour>
      <point x="23" y="0" type="line"/>
      <point x="114" y="0" type="line"/>
      <point x="141" y="153" type="line" smooth="yes"/>
      <point x="142" y="159"/>
      <point x="148" y="195"/>
      <point x="151" y="213" type="curve"/>
      <point x="184" y="324"/>
      <point x="254" y="401"/>
      <point x="301" y="401" type="curve" smooth="yes"/>
      <point x="329" y="401"/>
      <point x="338" y="373"/>
      <point x="332" y="342" type="curve" smooth="yes"/>
      <point x="320" y="279"/>
      <point x="250" y="242"/>
      <point x="142" y="218" type="curve"/>
      <point x="135" y="199" type="line"/>
      <point x="158" y="186" type="line"/>
      <point x="304" y="222"/>
      <point x="412" y="274"/>
      <point x="430" y="360" type="curve" smooth="yes"/>
      <point x="442" y="416"/>
      <point x="409" y="467"/>
      <point x="341" y="467" type="curve" smooth="yes"/>
      <point x="262" y="467"/>
      <point x="200" y="398"/>
      <point x="158" y="309" type="curve"/>
      <point x="157" y="309" type="line"/>
      <point x="177" y="380"/>
      <point x="190" y="428"/>
      <point x="228" y="646" type="curve" smooth="yes"/>
      <point x="234" y="682"/>
      <point x="228" y="703"/>
      <point x="207" y="710" type="curve"/>
      <point x="171" y="692"/>
      <point x="113" y="675"/>
      <point x="72" y="669" type="curve"/>
      <point x="67" y="660"/>
      <point x="65" y="644"/>
      <point x="66" y="631" type="curve"/>
      <point x="130" y="631"/>
      <point x="133" y="627"/>
      <point x="117" y="534" type="curve" smooth="yes"/>
    </contour>
    <contour>
      <point x="312" y="-9" type="curve" smooth="yes"/>
      <point x="360" y="-9"/>
      <point x="399" y="25"/>
      <point x="430" y="59" type="curve"/>
      <point x="427" y="72"/>
      <point x="420" y="83"/>
      <point x="411" y="91" type="curve"/>
      <point x="389" y="70"/>
      <point x="377" y="62"/>
      <point x="359" y="62" type="curve" smooth="yes"/>
      <point x="343" y="62"/>
      <point x="331" y="68"/>
      <point x="307" y="107" type="curve" smooth="yes"/>
      <point x="264" y="176"/>
      <point x="251" y="196"/>
      <point x="220" y="227" type="curve"/>
      <point x="142" y="197" type="line"/>
      <point x="170" y="161"/>
      <point x="198" y="118"/>
      <point x="216" y="83" type="curve" smooth="yes"/>
      <point x="245" y="27"/>
      <point x="263" y="-9"/>
    </contour>
  </outline>
</glyph>
<glyph name="m" format="2">
  <advance width="770"/>
  <unicode hex="006D"/>
  <guideline x="-110" y="95" angle="0"/>
  <anchor x="340" y="0" name="bottom"/>
  <anchor x="737" y="58" name="bottomright"/>
  <anchor x="430" y="458" name="top"/>
  <outline>
    <contour>
      <point x="616" y="-9" type="curve" smooth="yes"/>
      <point x="659" y="-9"/>
      <point x="695" y="11"/>
      <point x="737" y="58" type="curve"/>
      <point x="735" y="71"/>
      <point x="730" y="81"/>
      <point x="720" y="90" type="curve"/>
      <point x="696" y="68"/>
      <point x="681" y="60"/>
      <point x="663" y="60" type="curve" smooth="yes"/>
      <point x="645" y="60"/>
      <point x="642" y="68"/>
      <point x="664" y="153" type="curve" smooth="yes"/>
      <point x="694" y="270" type="line" smooth="yes"/>
      <point x="725" y="391"/>
      <point x="698" y="467"/>
      <point x="631" y="467" type="curve" smooth="yes"/>
      <point x="556" y="467"/>
      <point x="466" y="371"/>
      <point x="439" y="311" type="curve" smooth="yes"/>
      <point x="424" y="278" type="line"/>
      <point x="423" y="278" type="line"/>
      <point x="433" y="303"/>
      <point x="441" y="329"/>
      <point x="445" y="352" type="curve" smooth="yes"/>
      <point x="458" y="433"/>
      <point x="415" y="466"/>
      <point x="372" y="466" type="curve" smooth="yes"/>
      <point x="299" y="466"/>
      <point x="214" y="370"/>
      <point x="188" y="311" type="curve" smooth="yes"/>
      <point x="173" y="278" type="line"/>
      <point x="172" y="278" type="line"/>
      <point x="186" y="311"/>
      <point x="197" y="345"/>
      <point x="208" y="402" type="curve"/>
      <point x="214" y="439"/>
      <point x="208" y="460"/>
      <point x="187" y="467" type="curve"/>
      <point x="158" y="452"/>
      <point x="85" y="429"/>
      <point x="53" y="426" type="curve"/>
      <point x="47" y="415"/>
      <point x="45" y="400"/>
      <point x="47" y="388" type="curve"/>
      <point x="111" y="388"/>
      <point x="116" y="384"/>
      <point x="99" y="291" type="curve" smooth="yes"/>
      <point x="44" y="0" type="line"/>
      <point x="135" y="0" type="line"/>
      <point x="160" y="130" type="line" smooth="yes"/>
      <point x="193" y="299"/>
      <point x="285" y="394"/>
      <point x="333" y="394" type="curve" smooth="yes"/>
      <point x="360" y="394"/>
      <point x="369" y="364"/>
      <point x="340" y="225" type="curve" smooth="yes"/>
      <point x="294" y="0" type="line"/>
      <point x="384" y="0" type="line"/>
      <point x="409" y="130" type="line" smooth="yes"/>
      <point x="444" y="305"/>
      <point x="541" y="394"/>
      <point x="587" y="394" type="curve" smooth="yes"/>
      <point x="616" y="394"/>
      <point x="621" y="358"/>
      <point x="600" y="266" type="curve" smooth="yes"/>
      <point x="574" y="152" type="line" smooth="yes"/>
      <point x="549" y="38"/>
      <point x="551" y="-9"/>
    </contour>
  </outline>
</glyph>
<glyph name="n" format="2">
  <advance width="518"/>
  <unicode hex="006E"/>
  <anchor x="245" y="0" name="bottom"/>
  <anchor x="485" y="58" name="bottomright"/>
  <anchor x="429" y="230" name="right"/>
  <anchor x="305" y="458" name="top"/>
  <outline>
    <contour>
      <point x="42" y="0" type="line"/>
      <point x="133" y="0" type="line"/>
      <point x="158" y="130" type="line"/>
      <point x="172" y="278" type="line"/>
      <point x="186" y="311"/>
      <point x="198" y="345"/>
      <point x="209" y="402" type="curve"/>
      <point x="215" y="439"/>
      <point x="209" y="460"/>
      <point x="188" y="467" type="curve"/>
      <point x="159" y="452"/>
      <point x="84" y="429"/>
      <point x="52" y="426" type="curve"/>
      <point x="46" y="416"/>
      <point x="46" y="402"/>
      <point x="46" y="388" type="curve"/>
      <point x="110" y="388"/>
      <point x="115" y="384"/>
      <point x="97" y="291" type="curve" smooth="yes"/>
    </contour>
    <component base="schulter.comp" xOffset="4"/>
  </outline>
</glyph>
<glyph name="o" format="2">
  <advance width="455"/>
  <unicode hex="006F"/>
  <guideline x="-80" y="234" angle="0"/>
  <guideline x="212" y="150" angle="79"/>
  <anchor x="183" y="0" name="bottom"/>
  <anchor x="229" y="233" name="center"/>
  <anchor x="240" y="0" name="ogonek"/>
  <anchor x="273" y="458" name="top"/>
  <anchor x="466" y="458" name="topright"/>
  <outline>
    <contour>
      <point x="180" y="-9" type="curve" smooth="yes"/>
      <point x="301" y="-9"/>
      <point x="401" y="96"/>
      <point x="426" y="238" type="curve" smooth="yes"/>
      <point x="450" y="371"/>
      <point x="394" y="467"/>
      <point x="276" y="467" type="curve" smooth="yes"/>
      <point x="157" y="467"/>
      <point x="58" y="371"/>
      <point x="31" y="230" type="curve" smooth="yes"/>
      <point x="4" y="94"/>
      <point x="60" y="-9"/>
    </contour>
    <contour>
      <point x="193" y="39" type="curve" smooth="yes"/>
      <point x="133" y="39"/>
      <point x="107" y="124"/>
      <point x="130" y="240" type="curve" smooth="yes"/>
      <point x="151" y="346"/>
      <point x="203" y="419"/>
      <point x="261" y="419" type="curve" smooth="yes"/>
      <point x="322" y="419"/>
      <point x="348" y="339"/>
      <point x="327" y="228" type="curve" smooth="yes"/>
      <point x="307" y="120"/>
      <point x="252" y="39"/>
    </contour>
  </outline>
</glyph>
<glyph name="p" format="2">
  <advance width="467"/>
  <unicode hex="0070"/>
  <anchor x="189" y="0" name="bottom"/>
  <anchor x="30" y="-84" name="center"/>
  <anchor x="279" y="458" name="top"/>
  <outline>
    <contour>
      <point x="3" y="-245" type="line"/>
      <point x="94" y="-245" type="line"/>
      <point x="117" y="-114" type="line" smooth="yes"/>
      <point x="130" y="-39"/>
      <point x="130" y="-10"/>
      <point x="123" y="26" type="curve"/>
      <point x="164" y="256" type="line"/>
      <point x="176" y="286" type="line"/>
      <point x="192" y="324"/>
      <point x="202" y="361"/>
      <point x="208" y="401" type="curve" smooth="yes"/>
      <point x="214" y="438"/>
      <point x="208" y="458"/>
      <point x="187" y="465" type="curve"/>
      <point x="158" y="450"/>
      <point x="84" y="427"/>
      <point x="52" y="424" type="curve"/>
      <point x="46" y="414"/>
      <point x="46" y="400"/>
      <point x="46" y="386" type="curve"/>
      <point x="110" y="386"/>
      <point x="114" y="382"/>
      <point x="97" y="289" type="curve" smooth="yes"/>
    </contour>
    <contour>
      <point x="108" y="5" type="line"/>
      <point x="121" y="-2"/>
      <point x="151" y="-8"/>
      <point x="173" y="-8" type="curve" smooth="yes"/>
      <point x="303" y="-8"/>
      <point x="411" y="103"/>
      <point x="442" y="257" type="curve" smooth="yes"/>
      <point x="471" y="405"/>
      <point x="439" y="468"/>
      <point x="372" y="468" type="curve" smooth="yes"/>
      <point x="288" y="468"/>
      <point x="206" y="364"/>
      <point x="169" y="263" type="curve"/>
      <point x="143" y="263" type="line"/>
      <point x="88" y="50" type="line"/>
      <point x="135" y="43" type="line"/>
      <point x="154" y="123" type="line" smooth="yes"/>
      <point x="192" y="288"/>
      <point x="281" y="387"/>
      <point x="316" y="387" type="curve" smooth="yes"/>
      <point x="356" y="387"/>
      <point x="369" y="324"/>
      <point x="345" y="211" type="curve" smooth="yes"/>
      <point x="325" y="112"/>
      <point x="280" y="43"/>
      <point x="198" y="43" type="curve" smooth="yes"/>
      <point x="171" y="43"/>
      <point x="145" y="48"/>
      <point x="125" y="59" type="curve"/>
    </contour>
  </outline>
</glyph>
<glyph name="r" format="2">
  <advance width="375"/>
  <unicode hex="0072"/>
  <anchor x="108" y="0" name="bottom"/>
  <anchor x="250" y="458" name="top"/>
  <outline>
    <contour>
      <point x="188" y="467" type="curve"/>
      <point x="159" y="452"/>
      <point x="85" y="429"/>
      <point x="53" y="426" type="curve"/>
      <point x="47" y="416"/>
      <point x="46" y="402"/>
      <point x="46" y="388" type="curve"/>
      <point x="110" y="388"/>
      <point x="113" y="384"/>
      <point x="95" y="291" type="curve" smooth="yes"/>
      <point x="39" y="0" type="line"/>
      <point x="131" y="0" type="line"/>
      <point x="148" y="89" type="line" smooth="yes"/>
      <point x="164" y="174"/>
      <point x="200" y="255"/>
      <point x="221" y="297" type="curve" smooth="yes"/>
      <point x="254" y="360"/>
      <point x="279" y="383"/>
      <point x="293" y="383" type="curve" smooth="yes"/>
      <point x="302" y="383"/>
      <point x="307" y="371"/>
      <point x="304" y="325" type="curve"/>
      <point x="324" y="324"/>
      <point x="341" y="327"/>
      <point x="353" y="333" type="curve"/>
      <point x="357" y="370"/>
      <point x="365" y="412"/>
      <point x="377" y="449" type="curve"/>
      <point x="362" y="461"/>
      <point x="344" y="467"/>
      <point x="326" y="467" type="curve" smooth="yes"/>
      <point x="267" y="467"/>
      <point x="228" y="402"/>
      <point x="183" y="308" type="curve" smooth="yes"/>
      <point x="166" y="271" type="line"/>
      <point x="164" y="271" type="line"/>
      <point x="187" y="325"/>
      <point x="202" y="370"/>
      <point x="208" y="403" type="curve" smooth="yes"/>
      <point x="215" y="440"/>
      <point x="209" y="460"/>
    </contour>
  </outline>
</glyph>
<glyph name="t" format="2">
  <advance width="321.937"/>
  <unicode hex="0074"/>
  <anchor x="149" y="0" name="bottom"/>
  <anchor x="152" y="259" name="center"/>
  <anchor x="201" y="560" name="top"/>
  <anchor x="404" y="458" name="topright"/>
  <outline>
    <contour>
      <point x="152" y="-9" type="curve" smooth="yes"/>
      <point x="205" y="-9"/>
      <point x="258" y="31"/>
      <point x="285" y="66" type="curve"/>
      <point x="283" y="78"/>
      <point x="274" y="92"/>
      <point x="264" y="98" type="curve"/>
      <point x="243" y="72"/>
      <point x="213" y="53"/>
      <point x="190" y="53" type="curve" smooth="yes"/>
      <point x="157" y="53"/>
      <point x="142" y="93"/>
      <point x="167" y="203" type="curve" smooth="yes"/>
      <point x="236" y="497" type="line" smooth="yes"/>
      <point x="259" y="597"/>
      <point x="256" y="611"/>
      <point x="240" y="620" type="curve"/>
      <point x="221" y="609"/>
      <point x="188" y="600"/>
      <point x="161" y="596" type="curve"/>
      <point x="159" y="568"/>
      <point x="149" y="519"/>
      <point x="135" y="458" type="curve" smooth="yes"/>
      <point x="75" y="196" type="line" smooth="yes"/>
      <point x="42" y="52"/>
      <point x="68" y="-9"/>
    </contour>
    <contour>
      <point x="131" y="402" type="curve"/>
      <point x="139" y="448" type="line"/>
      <point x="59" y="448" type="line"/>
      <point x="52" y="438"/>
      <point x="48" y="423"/>
      <point x="48" y="409" type="curve"/>
      <point x="75" y="409"/>
      <point x="105" y="405"/>
    </contour>
    <contour>
      <point x="207" y="401" type="line"/>
      <point x="234" y="405"/>
      <point x="272" y="409"/>
      <point x="331" y="409" type="curve"/>
      <point x="336" y="420"/>
      <point x="338" y="434"/>
      <point x="338" y="448" type="curve"/>
      <point x="215" y="448" type="line"/>
    </contour>
  </outline>
</glyph>
<glyph name="u" format="2">
  <advance width="508"/>
  <unicode hex="0075"/>
  <anchor x="212" y="0" name="bottom"/>
  <anchor x="475" y="59" name="bottomright"/>
  <anchor x="430" y="18" name="ogonek"/>
  <anchor x="282" y="458" name="top"/>
  <anchor x="462" y="458" name="topright"/>
  <outline>
    <contour>
      <point x="128" y="-9" type="curve" smooth="yes"/>
      <point x="205" y="-9"/>
      <point x="283" y="85"/>
      <point x="314" y="151" type="curve"/>
      <point x="316" y="151" type="line"/>
      <point x="308" y="135"/>
      <point x="303" y="119"/>
      <point x="300" y="103" type="curve" smooth="yes"/>
      <point x="287" y="37"/>
      <point x="302" y="-9"/>
      <point x="363" y="-9" type="curve" smooth="yes"/>
      <point x="399" y="-9"/>
      <point x="443" y="22"/>
      <point x="475" y="59" type="curve"/>
      <point x="471" y="71"/>
      <point x="465" y="83"/>
      <point x="456" y="91" type="curve"/>
      <point x="434" y="69"/>
      <point x="421" y="60"/>
      <point x="407" y="60" type="curve" smooth="yes"/>
      <point x="384" y="60"/>
      <point x="385" y="69"/>
      <point x="413" y="210" type="curve" smooth="yes"/>
      <point x="462" y="458" type="line"/>
      <point x="371" y="458" type="line"/>
      <point x="348" y="337" type="line" smooth="yes"/>
      <point x="313" y="153"/>
      <point x="218" y="65"/>
      <point x="180" y="65" type="curve" smooth="yes"/>
      <point x="145" y="65"/>
      <point x="138" y="117"/>
      <point x="163" y="218" type="curve" smooth="yes"/>
      <point x="217" y="442"/>
      <point x="215" y="449"/>
      <point x="185" y="467" type="curve"/>
      <point x="159" y="452"/>
      <point x="82" y="429"/>
      <point x="52" y="426" type="curve"/>
      <point x="46" y="415"/>
      <point x="45" y="400"/>
      <point x="47" y="388" type="curve"/>
      <point x="113" y="388"/>
      <point x="116" y="385"/>
      <point x="76" y="225" type="curve" smooth="yes"/>
      <point x="49" y="118"/>
      <point x="36" y="-9"/>
    </contour>
  </outline>
</glyph>
<glyph name="v" format="2">
  <advance width="466"/>
  <unicode hex="0076"/>
  <outline>
    <contour>
      <point x="381" y="468" type="curve"/>
      <point x="365" y="456"/>
      <point x="317" y="434"/>
      <point x="282" y="424" type="curve"/>
      <point x="281" y="411"/>
      <point x="283" y="398"/>
      <point x="288" y="387" type="curve"/>
      <point x="332" y="381"/>
      <point x="349" y="361"/>
      <point x="349" y="309" type="curve" smooth="yes"/>
      <point x="349" y="258"/>
      <point x="305" y="171"/>
      <point x="215" y="66" type="curve"/>
      <point x="224" y="66" type="line"/>
      <point x="220" y="137"/>
      <point x="204" y="256"/>
      <point x="185" y="356" type="curve" smooth="yes"/>
      <point x="170" y="435"/>
      <point x="167" y="455"/>
      <point x="129" y="467" type="curve"/>
      <point x="108" y="451"/>
      <point x="62" y="430"/>
      <point x="29" y="426" type="curve"/>
      <point x="25" y="415"/>
      <point x="24" y="393"/>
      <point x="24" y="388" type="curve"/>
      <point x="76" y="391"/>
      <point x="84" y="374"/>
      <point x="96" y="326" type="curve" smooth="yes"/>
      <point x="116" y="244"/>
      <point x="136" y="124"/>
      <point x="144" y="0" type="curve"/>
      <point x="157" y="-7"/>
      <point x="175" y="-10"/>
      <point x="192" y="-9" type="curve"/>
      <point x="384" y="182"/>
      <point x="439" y="287"/>
      <point x="439" y="365" type="curve" smooth="yes"/>
      <point x="439" y="423"/>
      <point x="418" y="454"/>
    </contour>
  </outline>
</glyph>
<glyph name="w" format="2">
  <advance width="694"/>
  <unicode hex="0077"/>
  <anchor x="353" y="458" name="top"/>
  <outline>
    <contour>
      <point x="129" y="467" type="curve"/>
      <point x="108" y="451"/>
      <point x="62" y="430"/>
      <point x="29" y="426" type="curve"/>
      <point x="25" y="415"/>
      <point x="24" y="393"/>
      <point x="24" y="388" type="curve"/>
      <point x="76" y="391"/>
      <point x="84" y="374"/>
      <point x="96" y="326" type="curve" smooth="yes"/>
      <point x="116" y="244"/>
      <point x="136" y="124"/>
      <point x="144" y="0" type="curve"/>
      <point x="157" y="-7"/>
      <point x="175" y="-10"/>
      <point x="192" y="-9" type="curve"/>
      <point x="310" y="109"/>
      <point x="347" y="167"/>
      <point x="376" y="281" type="curve"/>
      <point x="351" y="265" type="line"/>
      <point x="366" y="198"/>
      <point x="378" y="106"/>
      <point x="387" y="0" type="curve"/>
      <point x="400" y="-7"/>
      <point x="418" y="-10"/>
      <point x="435" y="-9" type="curve"/>
      <point x="624" y="186"/>
      <point x="666" y="287"/>
      <point x="666" y="363" type="curve" smooth="yes"/>
      <point x="666" y="423"/>
      <point x="643" y="453"/>
      <point x="606" y="467" type="curve"/>
      <point x="590" y="454"/>
      <point x="542" y="434"/>
      <point x="507" y="424" type="curve"/>
      <point x="506" y="411"/>
      <point x="508" y="398"/>
      <point x="513" y="387" type="curve"/>
      <point x="557" y="382"/>
      <point x="577" y="359"/>
      <point x="577" y="307" type="curve" smooth="yes"/>
      <point x="577" y="256"/>
      <point x="542" y="173"/>
      <point x="454" y="67" type="curve"/>
      <point x="466" y="67" type="line"/>
      <point x="461" y="138"/>
      <point x="440" y="258"/>
      <point x="419" y="357" type="curve" smooth="yes"/>
      <point x="400" y="447"/>
      <point x="395" y="459"/>
      <point x="364" y="467" type="curve"/>
      <point x="353" y="454"/>
      <point x="331" y="441"/>
      <point x="309" y="435" type="curve"/>
      <point x="351" y="277"/>
      <point x="320" y="188"/>
      <point x="212" y="66" type="curve"/>
      <point x="224" y="66" type="line"/>
      <point x="220" y="137"/>
      <point x="204" y="256"/>
      <point x="185" y="356" type="curve" smooth="yes"/>
      <point x="170" y="435"/>
      <point x="167" y="455"/>
    </contour>
  </outline>
</glyph>
<glyph name="z" format="2">
  <advance width="398"/>
  <unicode hex="007A"/>
  <anchor x="154" y="0" name="bottom"/>
  <anchor x="248" y="458" name="top"/>
  <outline>
    <contour>
      <point x="5" y="-9" type="curve"/>
      <point x="29" y="-2"/>
      <point x="52" y="0"/>
      <point x="74" y="0" type="curve" smooth="yes"/>
      <point x="121" y="0"/>
      <point x="169" y="-9"/>
      <point x="238" y="-9" type="curve" smooth="yes"/>
      <point x="293" y="-9"/>
      <point x="314" y="-3"/>
      <point x="323" y="9" type="curve"/>
      <point x="327" y="47"/>
      <point x="338" y="90"/>
      <point x="352" y="123" type="curve"/>
      <point x="341" y="132"/>
      <point x="324" y="136"/>
      <point x="309" y="135" type="curve"/>
      <point x="287" y="92"/>
      <point x="276" y="81"/>
      <point x="231" y="81" type="curve" smooth="yes"/>
      <point x="183" y="81"/>
      <point x="146" y="94"/>
      <point x="88" y="70" type="curve"/>
      <point x="82" y="53" type="line"/>
      <point x="202" y="162"/>
      <point x="314" y="303"/>
      <point x="383" y="422" type="curve"/>
      <point x="382" y="433"/>
      <point x="376" y="449"/>
      <point x="369" y="458" type="curve"/>
      <point x="329" y="461"/>
      <point x="280" y="462"/>
      <point x="234" y="462" type="curve" smooth="yes"/>
      <point x="186" y="462"/>
      <point x="142" y="461"/>
      <point x="101" y="458" type="curve"/>
      <point x="94" y="418"/>
      <point x="79" y="375"/>
      <point x="59" y="339" type="curve"/>
      <point x="67" y="329"/>
      <point x="80" y="322"/>
      <point x="96" y="322" type="curve"/>
      <point x="126" y="367"/>
      <point x="145" y="381"/>
      <point x="221" y="381" type="curve" smooth="yes"/>
      <point x="257" y="381"/>
      <point x="286" y="379"/>
      <point x="311" y="374" type="curve"/>
      <point x="309" y="381" type="line"/>
      <point x="247" y="283"/>
      <point x="136" y="157"/>
      <point x="-5" y="31" type="curve"/>
      <point x="-6" y="16"/>
      <point x="-2" y="2"/>
    </contour>
  </outline>
</glyph>
<glyph name="braceleft" format="2">
  <advance width="336.274"/>
  <unicode hex="007B"/>
  <outline>
    <contour>
      <point x="384" y="742" type="curve"/>
      <point x="30" y="670"/>
      <point x="291" y="355"/>
      <point x="66" y="276" type="curve"/>
      <point x="58" y="267"/>
      <point x="55" y="256"/>
      <point x="55" y="244" type="curve"/>
      <point x="256" y="169"/>
      <point x="-72" y="-167"/>
      <point x="214" y="-271" type="curve"/>
      <point x="221" y="-263"/>
      <point x="224" y="-250"/>
      <point x="224" y="-238" type="curve"/>
      <point x="33" y="-166"/>
      <point x="355" y="185"/>
      <point x="111" y="259" type="curve"/>
      <point x="380" y="328"/>
      <point x="141" y="663"/>
      <point x="386" y="708" type="curve"/>
      <point x="388" y="719"/>
      <point x="388" y="733"/>
    </contour>
  </outline>
</glyph>
<glyph name="bar" format="2">
  <advance width="141"/>
  <unicode hex="007C"/>
  <outline>
    <contour>
      <point x="-45" y="-246" type="line"/>
      <point x="-26" y="-249"/>
      <point x="-11" y="-247"/>
      <point x="5" y="-238" type="curve"/>
      <point x="62" y="70"/>
      <point x="122" y="383"/>
      <point x="191" y="717" type="curve"/>
      <point x="171" y="722"/>
      <point x="155" y="720"/>
      <point x="139" y="711" type="curve"/>
    </contour>
  </outline>
</glyph>
<glyph name="braceright" format="2">
  <advance width="341.647"/>
  <unicode hex="007D"/>
  <outline>
    <contour>
      <point x="125" y="741" type="curve"/>
      <point x="118" y="734"/>
      <point x="115" y="721"/>
      <point x="113" y="708" type="curve"/>
      <point x="341" y="621"/>
      <point x="-12" y="331"/>
      <point x="242" y="259" type="curve"/>
      <point x="-40" y="191"/>
      <point x="184" y="-196"/>
      <point x="-41" y="-238" type="curve"/>
      <point x="-44" y="-249"/>
      <point x="-42" y="-259"/>
      <point x="-38" y="-271" type="curve"/>
      <point x="283" y="-200"/>
      <point x="67" y="181"/>
      <point x="294" y="246" type="curve"/>
      <point x="297" y="258"/>
      <point x="298" y="268"/>
      <point x="296" y="278" type="curve"/>
      <point x="98" y="357"/>
      <point x="434" y="637"/>
    </contour>
  </outline>
</glyph>
<glyph name="exclamdown" format="2">
  <advance width="414"/>
  <unicode hex="00A1"/>
  <outline>
    <contour>
      <point x="59" y="-235"/>
      <point x="62" y="-248"/>
      <point x="81" y="-255" type="curve"/>
      <point x="104" y="-243"/>
      <point x="150" y="-228"/>
      <point x="181" y="-222" type="curve"/>
      <point x="188" y="-86"/>
      <point x="198" y="40"/>
      <point x="221" y="228" type="curve"/>
      <point x="209" y="234"/>
      <point x="193" y="236"/>
      <point x="177" y="234" type="curve"/>
      <point x="144" y="82"/>
      <point x="98" y="-99"/>
      <point x="68" y="-203" type="curve" smooth="yes"/>
    </contour>
    <contour>
      <point x="236" y="467" type="curve" smooth="yes"/>
      <point x="207" y="467"/>
      <point x="188" y="448"/>
      <point x="182" y="418" type="curve" smooth="yes"/>
      <point x="175" y="382"/>
      <point x="198" y="356"/>
      <point x="229" y="356" type="curve" smooth="yes"/>
      <point x="257" y="356"/>
      <point x="280" y="376"/>
      <point x="285" y="403" type="curve" smooth="yes"/>
      <point x="293" y="441"/>
      <point x="272" y="467"/>
    </contour>
  </outline>
</glyph>
<glyph name="sterling" format="2">
  <advance width="491"/>
  <unicode hex="00A3"/>
  <outline>
    <contour>
      <point x="328" y="-9" type="curve" smooth="yes"/>
      <point x="374" y="-9"/>
      <point x="418" y="24"/>
      <point x="440" y="74" type="curve"/>
      <point x="436" y="85"/>
      <point x="422" y="98"/>
      <point x="408" y="101" type="curve"/>
      <point x="397" y="84"/>
      <point x="382" y="74"/>
      <point x="363" y="74" type="curve" smooth="yes"/>
      <point x="329" y="74"/>
      <point x="290" y="125"/>
      <point x="216" y="125" type="curve" smooth="yes"/>
      <point x="172" y="125"/>
      <point x="134" y="112"/>
      <point x="90" y="81" type="curve"/>
      <point x="97" y="74" type="line"/>
      <point x="183" y="157"/>
      <point x="223" y="225"/>
      <point x="235" y="298" type="curve" smooth="yes"/>
      <point x="252" y="395"/>
      <point x="190" y="430"/>
      <point x="208" y="535" type="curve" smooth="yes"/>
      <point x="219" y="597"/>
      <point x="266" y="638"/>
      <point x="321" y="638" type="curve" smooth="yes"/>
      <point x="390" y="638"/>
      <point x="418" y="606"/>
      <point x="411" y="516" type="curve"/>
      <point x="426" y="510"/>
      <point x="444" y="507"/>
      <point x="464" y="511" type="curve"/>
      <point x="467" y="561"/>
      <point x="472" y="602"/>
      <point x="481" y="642" type="curve"/>
      <point x="442" y="671"/>
      <point x="398" y="685"/>
      <point x="337" y="685" type="curve" smooth="yes"/>
      <point x="214" y="685"/>
      <point x="135" y="596"/>
      <point x="119" y="504" type="curve" smooth="yes"/>
      <point x="98" y="382"/>
      <point x="157" y="339"/>
      <point x="141" y="248" type="curve" smooth="yes"/>
      <point x="124" y="155"/>
      <point x="68" y="97"/>
      <point x="-18" y="29" type="curve"/>
      <point x="-11" y="13"/>
      <point x="-2" y="0"/>
      <point x="13" y="-9" type="curve"/>
      <point x="63" y="34"/>
      <point x="111" y="50"/>
      <point x="153" y="50" type="curve" smooth="yes"/>
      <point x="249" y="50"/>
      <point x="259" y="-9"/>
    </contour>
    <contour>
      <point x="366" y="335" type="curve"/>
      <point x="52" y="335" type="line"/>
      <point x="42" y="321"/>
      <point x="38" y="301"/>
      <point x="39" y="280" type="curve"/>
      <point x="125" y="283"/>
      <point x="244" y="283"/>
      <point x="352" y="283" type="curve"/>
      <point x="361" y="296"/>
      <point x="366" y="315"/>
    </contour>
  </outline>
</glyph>
<glyph name="copyright" format="2">
  <advance width="737"/>
  <unicode hex="00A9"/>
  <outline>
    <contour>
      <point x="330" y="-111" type="curve" smooth="yes"/>
      <point x="513" y="-111"/>
      <point x="652" y="6"/>
      <point x="691" y="200" type="curve" smooth="yes"/>
      <point x="735" y="416"/>
      <point x="621" y="571"/>
      <point x="410" y="571" type="curve" smooth="yes"/>
      <point x="222" y="571"/>
      <point x="85" y="448"/>
      <point x="47" y="260" type="curve" smooth="yes"/>
      <point x="3" y="41"/>
      <point x="122" y="-111"/>
    </contour>
    <contour>
      <point x="335" y="-67" type="curve" smooth="yes"/>
      <point x="143" y="-67"/>
      <point x="51" y="70"/>
      <point x="91" y="260" type="curve" smooth="yes"/>
      <point x="126" y="428"/>
      <point x="241" y="528"/>
      <point x="404" y="528" type="curve" smooth="yes"/>
      <point x="600" y="528"/>
      <point x="685" y="383"/>
      <point x="647" y="200" type="curve" smooth="yes"/>
      <point x="614" y="37"/>
      <point x="502" y="-67"/>
    </contour>
    <component base="c" yScale="0.92" xOffset="168" yOffset="20"/>
  </outline>
</glyph>
<glyph name="paragraph" format="2">
  <advance width="555"/>
  <unicode hex="00B6"/>
  <outline>
    <contour>
      <point x="379" y="678" type="curve" smooth="yes"/>
      <point x="197" y="678"/>
      <point x="112" y="607"/>
      <point x="95" y="511" type="curve" smooth="yes"/>
      <point x="72" y="384"/>
      <point x="140" y="316"/>
      <point x="275" y="316" type="curve" smooth="yes"/>
      <point x="287" y="316"/>
      <point x="311" y="316"/>
      <point x="325" y="320" type="curve"/>
      <point x="333" y="355" type="line"/>
      <point x="302" y="355" type="line" smooth="yes"/>
      <point x="228" y="355"/>
      <point x="167" y="403"/>
      <point x="187" y="516" type="curve" smooth="yes"/>
      <point x="203" y="604"/>
      <point x="250" y="636"/>
      <point x="357" y="636" type="curve" smooth="yes"/>
      <point x="419" y="636"/>
      <point x="449" y="635"/>
      <point x="491" y="632" type="curve"/>
      <point x="481" y="648" type="line"/>
      <point x="325" y="-244" type="line"/>
      <point x="341" y="-249"/>
      <point x="357" y="-249"/>
      <point x="375" y="-246" type="curve"/>
      <point x="425" y="71"/>
      <point x="454" y="244"/>
      <point x="514" y="555" type="curve" smooth="yes"/>
      <point x="525" y="615"/>
      <point x="531" y="629"/>
      <point x="591" y="636" type="curve"/>
      <point x="596" y="649"/>
      <point x="599" y="664"/>
      <point x="600" y="679" type="curve"/>
      <point x="571" y="676"/>
      <point x="552" y="676"/>
      <point x="528" y="676" type="curve" smooth="yes"/>
      <point x="481" y="676"/>
      <point x="440" y="678"/>
    </contour>
    <contour>
      <point x="371" y="650" type="line"/>
      <point x="216" y="-241" type="line"/>
      <point x="229" y="-249"/>
      <point x="247" y="-250"/>
      <point x="265" y="-248" type="curve"/>
      <point x="315" y="69"/>
      <point x="363" y="340"/>
      <point x="423" y="651" type="curve"/>
    </contour>
  </outline>
</glyph>
<glyph name="ordmasculine" format="2">
  <advance width="413"/>
  <unicode hex="00BA"/>
  <outline>
    <contour>
      <point x="302" y="717" type="curve" smooth="yes"/>
      <point x="213" y="717"/>
      <point x="140" y="644"/>
      <point x="118" y="526" type="curve" smooth="yes"/>
      <point x="101" y="424"/>
      <point x="141" y="358"/>
      <point x="228" y="358" type="curve" smooth="yes"/>
      <point x="317" y="358"/>
      <point x="393" y="428"/>
      <point x="413" y="541" type="curve" smooth="yes"/>
      <point x="431" y="648"/>
      <point x="390" y="717"/>
    </contour>
    <contour>
      <point x="294" y="675" type="curve" smooth="yes"/>
      <point x="328" y="675"/>
      <point x="340" y="615"/>
      <point x="325" y="536" type="curve" smooth="yes"/>
      <point x="309" y="445"/>
      <point x="274" y="400"/>
      <point x="235" y="400" type="curve" smooth="yes"/>
      <point x="203" y="400"/>
      <point x="189" y="451"/>
      <point x="205" y="540" type="curve" smooth="yes"/>
      <point x="221" y="630"/>
      <point x="254" y="675"/>
    </contour>
  </outline>
</glyph>
<glyph name="guillemetright" format="2">
  <advance width="441"/>
  <unicode hex="00BB"/>
  <outline>
    <contour>
      <point x="287" y="416" type="curve"/>
      <point x="274" y="418"/>
      <point x="260" y="415"/>
      <point x="250" y="407" type="curve"/>
      <point x="274" y="364"/>
      <point x="309" y="289"/>
      <point x="324" y="248" type="curve"/>
      <point x="294" y="212"/>
      <point x="245" y="162"/>
      <point x="209" y="128" type="curve"/>
      <point x="209" y="114"/>
      <point x="215" y="99"/>
      <point x="224" y="90" type="curve"/>
      <point x="280" y="141"/>
      <point x="343" y="197"/>
      <point x="398" y="242" type="curve"/>
      <point x="402" y="254"/>
      <point x="402" y="268"/>
      <point x="396" y="281" type="curve"/>
      <point x="356" y="325"/>
      <point x="321" y="368"/>
    </contour>
    <contour>
      <point x="120" y="411" type="curve"/>
      <point x="107" y="413"/>
      <point x="93" y="410"/>
      <point x="83" y="402" type="curve"/>
      <point x="107" y="351"/>
      <point x="132" y="290"/>
      <point x="147" y="248" type="curve"/>
      <point x="118" y="212"/>
      <point x="79" y="169"/>
      <point x="43" y="133" type="curve"/>
      <point x="43" y="119"/>
      <point x="49" y="104"/>
      <point x="58" y="95" type="curve"/>
      <point x="114" y="149"/>
      <point x="166" y="196"/>
      <point x="221" y="242" type="curve"/>
      <point x="225" y="254"/>
      <point x="225" y="268"/>
      <point x="219" y="281" type="curve"/>
      <point x="181" y="326"/>
      <point x="154" y="361"/>
    </contour>
  </outline>
</glyph>
<glyph name="questiondown" format="2">
  <advance width="521"/>
  <unicode hex="00BF"/>
  <outline>
    <contour>
      <point x="315" y="-213" type="curve"/>
      <point x="318" y="-168"/>
      <point x="323" y="-145"/>
      <point x="337" y="-96" type="curve"/>
      <point x="325" y="-88"/>
      <point x="314" y="-86"/>
      <point x="293" y="-86" type="curve"/>
      <point x="265" y="-179"/>
      <point x="233" y="-215"/>
      <point x="188" y="-215" type="curve" smooth="yes"/>
      <point x="136" y="-215"/>
      <point x="120" y="-172"/>
      <point x="130" y="-118" type="curve" smooth="yes"/>
      <point x="147" y="-25"/>
      <point x="268" y="10"/>
      <point x="294" y="143" type="curve" smooth="yes"/>
      <point x="305" y="200"/>
      <point x="292" y="250"/>
      <point x="275" y="265" type="curve"/>
      <point x="263" y="265"/>
      <point x="254" y="264"/>
      <point x="242" y="257" type="curve"/>
      <point x="244" y="238"/>
      <point x="242" y="205"/>
      <point x="238" y="189" type="curve" smooth="yes"/>
      <point x="212" y="49"/>
      <point x="62" y="17"/>
      <point x="36" y="-111" type="curve" smooth="yes"/>
      <point x="19" y="-198"/>
      <point x="73" y="-256"/>
      <point x="173" y="-256" type="curve" smooth="yes"/>
      <point x="236" y="-256"/>
      <point x="292" y="-233"/>
    </contour>
    <contour>
      <point x="300" y="466" type="curve" smooth="yes"/>
      <point x="271" y="466"/>
      <point x="252" y="447"/>
      <point x="246" y="417" type="curve" smooth="yes"/>
      <point x="239" y="381"/>
      <point x="262" y="355"/>
      <point x="293" y="355" type="curve" smooth="yes"/>
      <point x="321" y="355"/>
      <point x="344" y="375"/>
      <point x="349" y="402" type="curve" smooth="yes"/>
      <point x="357" y="440"/>
      <point x="336" y="466"/>
    </contour>
  </outline>
</glyph>
<glyph name="AE" format="2">
  <advance width="856"/>
  <unicode hex="00C6"/>
  <anchor x="593" y="676" name="top"/>
  <outline>
    <contour>
      <point x="267" y="341" type="line"/>
      <point x="236" y="293" type="line"/>
      <point x="305" y="297"/>
      <point x="393" y="298"/>
      <point x="475" y="298" type="curve"/>
      <point x="484" y="341" type="line"/>
    </contour>
    <contour>
      <point x="703" y="424" type="curve"/>
      <point x="692" y="358"/>
      <point x="659" y="341"/>
      <point x="577" y="341" type="curve" smooth="yes"/>
      <point x="527" y="341" type="line"/>
      <point x="519" y="298" type="line"/>
      <point x="573" y="298" type="line" smooth="yes"/>
      <point x="655" y="298"/>
      <point x="677" y="279"/>
      <point x="672" y="212" type="curve"/>
      <point x="684" y="204"/>
      <point x="699" y="201"/>
      <point x="718" y="199" type="curve"/>
      <point x="720" y="232"/>
      <point x="723" y="266"/>
      <point x="730" y="314" type="curve" smooth="yes"/>
      <point x="737" y="366"/>
      <point x="743" y="392"/>
      <point x="751" y="425" type="curve"/>
      <point x="733" y="428"/>
      <point x="720" y="427"/>
    </contour>
    <contour>
      <point x="855" y="679" type="curve"/>
      <point x="752" y="676"/>
      <point x="669" y="676"/>
      <point x="592" y="676" type="curve"/>
      <point x="564" y="631" type="line"/>
      <point x="656" y="631" type="line" smooth="yes"/>
      <point x="785" y="631"/>
      <point x="795" y="595"/>
      <point x="798" y="509" type="curve"/>
      <point x="819" y="508"/>
      <point x="837" y="511"/>
      <point x="848" y="516" type="curve"/>
      <point x="845" y="563"/>
      <point x="849" y="629"/>
    </contour>
    <contour>
      <point x="770" y="172" type="curve"/>
      <point x="729" y="91"/>
      <point x="701" y="45"/>
      <point x="578" y="45" type="curve" smooth="yes"/>
      <point x="574" y="45" type="line"/>
      <point x="568" y="0" type="line"/>
      <point x="642" y="0"/>
      <point x="702" y="0"/>
      <point x="761" y="-3" type="curve"/>
      <point x="773" y="55"/>
      <point x="793" y="108"/>
      <point x="815" y="150" type="curve" smooth="yes"/>
      <point x="803" y="163"/>
      <point x="788" y="169"/>
    </contour>
    <contour>
      <point x="515" y="676" type="line"/>
      <point x="504" y="652"/>
      <point x="486" y="595"/>
      <point x="472" y="514" type="curve" smooth="yes"/>
      <point x="407" y="143" type="line" smooth="yes"/>
      <point x="394" y="65"/>
      <point x="384" y="48"/>
      <point x="323" y="40" type="curve"/>
      <point x="318" y="26"/>
      <point x="316" y="12"/>
      <point x="316" y="-3" type="curve"/>
      <point x="395" y="0"/>
      <point x="471" y="0"/>
      <point x="568" y="0" type="curve"/>
      <point x="574" y="45" type="line"/>
      <point x="499" y="45"/>
      <point x="487" y="59"/>
      <point x="501" y="143" type="curve" smooth="yes"/>
      <point x="592" y="676" type="line"/>
    </contour>
    <contour>
      <point x="395" y="538" type="curve" smooth="yes"/>
      <point x="304" y="413"/>
      <point x="201" y="274"/>
      <point x="96" y="137" type="curve" smooth="yes"/>
      <point x="40" y="66"/>
      <point x="18" y="51"/>
      <point x="-19" y="40" type="curve"/>
      <point x="-25" y="27"/>
      <point x="-27" y="12"/>
      <point x="-27" y="-3" type="curve"/>
      <point x="2" y="0"/>
      <point x="23" y="0"/>
      <point x="58" y="0" type="curve" smooth="yes"/>
      <point x="89" y="0"/>
      <point x="118" y="0"/>
      <point x="150" y="-3" type="curve"/>
      <point x="151" y="12"/>
      <point x="150" y="26"/>
      <point x="147" y="40" type="curve"/>
      <point x="109" y="50"/>
      <point x="109" y="73"/>
      <point x="145" y="122" type="curve" smooth="yes"/>
      <point x="395" y="463"/>
      <point x="472" y="574"/>
      <point x="530" y="676" type="curve"/>
      <point x="496" y="676"/>
      <point x="443" y="676"/>
      <point x="362" y="679" type="curve"/>
      <point x="360" y="664"/>
      <point x="360" y="650"/>
      <point x="363" y="636" type="curve"/>
      <point x="427" y="630"/>
      <point x="437" y="596"/>
    </contour>
  </outline>
</glyph>
<glyph name="Eth" format="2">
  <advance width="735"/>
  <unicode hex="00D0"/>
  <outline>
    <contour>
      <point x="75.05" y="317" type="curve"/>
      <point x="137.95" y="319"/>
      <point x="166.85" y="319"/>
      <point x="247.6" y="319" type="curve" smooth="yes"/>
      <point x="297.75" y="319"/>
      <point x="328.34999999999997" y="319"/>
      <point x="376.8" y="318" type="curve"/>
      <point x="384.45" y="332"/>
      <point x="386.15" y="348"/>
      <point x="386.15" y="368" type="curve"/>
      <point x="84.4" y="368" type="line"/>
      <point x="79.3" y="359"/>
      <point x="75.05" y="332"/>
    </contour>
    <component base="D"/>
  </outline>
</glyph>
<glyph name="Thorn" format="2">
  <advance width="586"/>
  <unicode hex="00DE"/>
  <anchor x="218" y="0" name="bottom"/>
  <anchor x="350" y="676" name="top"/>
  <outline>
    <contour>
      <point x="29" y="-3" type="curve"/>
      <point x="66" y="-1"/>
      <point x="118" y="0"/>
      <point x="160" y="0" type="curve" smooth="yes"/>
      <point x="200" y="0"/>
      <point x="244" y="-1"/>
      <point x="285" y="-3" type="curve"/>
      <point x="287" y="12"/>
      <point x="286" y="28"/>
      <point x="283" y="40" type="curve"/>
      <point x="210" y="47"/>
      <point x="198" y="59"/>
      <point x="210" y="127" type="curve" smooth="yes"/>
      <point x="283" y="549" type="line" smooth="yes"/>
      <point x="294" y="614"/>
      <point x="310" y="627"/>
      <point x="361" y="636" type="curve"/>
      <point x="367" y="649"/>
      <point x="369" y="663"/>
      <point x="370" y="679" type="curve"/>
      <point x="330" y="677"/>
      <point x="291" y="676"/>
      <point x="248" y="676" type="curve" smooth="yes"/>
      <point x="205" y="676"/>
      <point x="165" y="677"/>
      <point x="128" y="679" type="curve"/>
      <point x="126" y="663"/>
      <point x="127" y="649"/>
      <point x="129" y="636" type="curve"/>
      <point x="184" y="629"/>
      <point x="201" y="616"/>
      <point x="189" y="549" type="curve" smooth="yes"/>
      <point x="116" y="127" type="line" smooth="yes"/>
      <point x="104" y="60"/>
      <point x="91" y="46"/>
      <point x="37" y="40" type="curve"/>
      <point x="32" y="29"/>
      <point x="29" y="14"/>
    </contour>
    <contour>
      <point x="311" y="151" type="curve" smooth="yes"/>
      <point x="460" y="151"/>
      <point x="552" y="254"/>
      <point x="568" y="344" type="curve" smooth="yes"/>
      <point x="586" y="451"/>
      <point x="535" y="540"/>
      <point x="386" y="540" type="curve" smooth="yes"/>
      <point x="331" y="540"/>
      <point x="256" y="538"/>
      <point x="221" y="538" type="curve"/>
      <point x="260" y="492" type="line"/>
      <point x="294" y="500"/>
      <point x="309" y="502"/>
      <point x="333" y="502" type="curve" smooth="yes"/>
      <point x="450" y="502"/>
      <point x="489" y="437"/>
      <point x="473" y="343" type="curve" smooth="yes"/>
      <point x="452" y="227"/>
      <point x="378" y="196"/>
      <point x="306" y="196" type="curve" smooth="yes"/>
      <point x="287" y="196"/>
      <point x="271" y="197"/>
      <point x="255" y="203" type="curve"/>
      <point x="247" y="192"/>
      <point x="244" y="178"/>
      <point x="244" y="165" type="curve"/>
      <point x="260" y="154"/>
      <point x="281" y="151"/>
    </contour>
  </outline>
</glyph>
<glyph name="germandbls" format="2">
  <advance width="536"/>
  <unicode hex="00DF"/>
  <outline>
    <contour>
      <point x="57" y="448" type="line"/>
      <point x="50" y="438"/>
      <point x="46" y="424"/>
      <point x="46" y="409" type="curve"/>
      <point x="74" y="409"/>
      <point x="104" y="406"/>
      <point x="131" y="401" type="curve"/>
      <point x="139" y="448" type="line"/>
    </contour>
    <contour>
      <point x="378" y="714" type="curve" smooth="yes"/>
      <point x="218" y="714"/>
      <point x="150" y="594"/>
      <point x="126" y="452" type="curve" smooth="yes"/>
      <point x="104" y="321"/>
      <point x="84" y="151"/>
      <point x="70" y="59" type="curve" smooth="yes"/>
      <point x="41" y="-135"/>
      <point x="26" y="-168"/>
      <point x="-24" y="-168" type="curve" smooth="yes"/>
      <point x="-61" y="-168"/>
      <point x="-92" y="-164"/>
      <point x="-136" y="-152" type="curve"/>
      <point x="-141" y="-169"/>
      <point x="-144" y="-191"/>
      <point x="-143" y="-212" type="curve"/>
      <point x="-114" y="-236"/>
      <point x="-83" y="-248"/>
      <point x="-56" y="-248" type="curve" smooth="yes"/>
      <point x="55" y="-248"/>
      <point x="134" y="-92"/>
      <point x="169" y="128" type="curve" smooth="yes"/>
      <point x="178" y="185"/>
      <point x="198" y="319"/>
      <point x="223" y="447" type="curve" smooth="yes"/>
      <point x="254" y="607"/>
      <point x="287" y="669"/>
      <point x="342" y="669" type="curve" smooth="yes"/>
      <point x="417" y="669"/>
      <point x="444" y="613"/>
      <point x="433" y="556" type="curve" smooth="yes"/>
      <point x="412" y="449"/>
      <point x="288" y="448"/>
      <point x="271" y="360" type="curve" smooth="yes"/>
      <point x="245" y="224"/>
      <point x="419" y="185"/>
      <point x="403" y="88" type="curve" smooth="yes"/>
      <point x="397" y="51"/>
      <point x="373" y="34"/>
      <point x="339" y="34" type="curve" smooth="yes"/>
      <point x="286" y="34"/>
      <point x="268" y="76"/>
      <point x="270" y="148" type="curve"/>
      <point x="254" y="149"/>
      <point x="237" y="146"/>
      <point x="222" y="139" type="curve"/>
      <point x="221" y="108"/>
      <point x="217" y="73"/>
      <point x="205" y="30" type="curve"/>
      <point x="236" y="7"/>
      <point x="274" y="-7"/>
      <point x="322" y="-7" type="curve" smooth="yes"/>
      <point x="400" y="-7"/>
      <point x="458" y="30"/>
      <point x="471" y="106" type="curve" smooth="yes"/>
      <point x="497" y="257"/>
      <point x="325" y="281"/>
      <point x="344" y="374" type="curve" smooth="yes"/>
      <point x="355" y="426"/>
      <point x="474" y="451"/>
      <point x="500" y="580" type="curve" smooth="yes"/>
      <point x="512" y="640"/>
      <point x="495" y="714"/>
    </contour>
  </outline>
</glyph>
<glyph name="thorn" format="2">
  <advance width="445"/>
  <unicode hex="00FE"/>
  <outline>
    <contour>
      <point x="208" y="710" type="curve"/>
      <point x="179" y="695"/>
      <point x="105" y="672"/>
      <point x="73" y="669" type="curve"/>
      <point x="67" y="659"/>
      <point x="67" y="645"/>
      <point x="67" y="631" type="curve"/>
      <point x="131" y="631"/>
      <point x="134" y="627"/>
      <point x="118" y="534" type="curve" smooth="yes"/>
      <point x="-19" y="-245" type="line"/>
      <point x="72" y="-245" type="line"/>
      <point x="102" y="-77" type="line" smooth="yes"/>
      <point x="110" y="-31"/>
      <point x="111" y="7"/>
      <point x="101" y="54" type="curve"/>
      <point x="143" y="257" type="line"/>
      <point x="161" y="304"/>
      <point x="173" y="345"/>
      <point x="186" y="414" type="curve" smooth="yes"/>
      <point x="229" y="646" type="line" smooth="yes"/>
      <point x="236" y="683"/>
      <point x="229" y="703"/>
    </contour>
    <contour>
      <point x="86" y="5" type="line"/>
      <point x="99" y="-2"/>
      <point x="129" y="-8"/>
      <point x="151" y="-8" type="curve" smooth="yes"/>
      <point x="281" y="-8"/>
      <point x="389" y="103"/>
      <point x="420" y="257" type="curve" smooth="yes"/>
      <point x="449" y="405"/>
      <point x="417" y="468"/>
      <point x="350" y="468" type="curve" smooth="yes"/>
      <point x="266" y="468"/>
      <point x="184" y="364"/>
      <point x="147" y="263" type="curve"/>
      <point x="121" y="263" type="line"/>
      <point x="66" y="50" type="line"/>
      <point x="113" y="43" type="line"/>
      <point x="132" y="123" type="line" smooth="yes"/>
      <point x="170" y="288"/>
      <point x="259" y="387"/>
      <point x="294" y="387" type="curve" smooth="yes"/>
      <point x="334" y="387"/>
      <point x="347" y="324"/>
      <point x="323" y="211" type="curve" smooth="yes"/>
      <point x="303" y="112"/>
      <point x="258" y="43"/>
      <point x="176" y="43" type="curve" smooth="yes"/>
      <point x="149" y="43"/>
      <point x="123" y="48"/>
      <point x="103" y="59" type="curve"/>
    </contour>
  </outline>
</glyph>
<glyph name="ij" format="2">
  <advance width="447"/>
  <unicode hex="0133"/>
  <outline>
    <contour>
      <point x="197.79250000000002" y="576.3155999999999" type="curve" smooth="yes"/>
      <point x="230.05" y="576.3155999999999"/>
      <point x="255.465" y="598.4628"/>
      <point x="262.3075" y="630.7608" type="curve" smooth="yes"/>
      <point x="270.1275" y="664.9044"/>
      <point x="252.5325" y="687.0516"/>
      <point x="220.275" y="687.0516" type="curve" smooth="yes"/>
      <point x="189.9725" y="687.0516"/>
      <point x="164.5575" y="664.9044"/>
      <point x="156.7375" y="630.7608" type="curve" smooth="yes"/>
      <point x="149.895" y="598.4628"/>
      <point x="166.51250000000002" y="576.3155999999999"/>
    </contour>
    <contour>
      <point x="382.7925" y="576.3155999999999" type="curve" smooth="yes"/>
      <point x="415.05" y="576.3155999999999"/>
      <point x="440.46500000000003" y="598.4628"/>
      <point x="447.3075" y="630.7608" type="curve" smooth="yes"/>
      <point x="455.1275" y="664.9044"/>
      <point x="437.5325" y="687.0516"/>
      <point x="405.275" y="687.0516" type="curve" smooth="yes"/>
      <point x="374.97249999999997" y="687.0516"/>
      <point x="349.5575" y="664.9044"/>
      <point x="341.7375" y="630.7608" type="curve" smooth="yes"/>
      <point x="334.895" y="598.4628"/>
      <point x="351.51250000000005" y="576.3155999999999"/>
    </contour>
    <component base="_part.ij.dotless"/>
  </outline>
</glyph>
<glyph name="kgreenlandic" format="2">
  <advance width="460"/>
  <unicode hex="0138"/>
  <anchor x="184" y="0" name="bottom"/>
  <anchor x="274" y="458" name="top"/>
  <outline>
    <contour>
      <point x="309" y="-9" type="curve" smooth="yes"/>
      <point x="357" y="-9"/>
      <point x="396" y="25"/>
      <point x="427" y="59" type="curve"/>
      <point x="424" y="72"/>
      <point x="417" y="83"/>
      <point x="408" y="91" type="curve"/>
      <point x="386" y="70"/>
      <point x="374" y="62"/>
      <point x="356" y="62" type="curve" smooth="yes"/>
      <point x="337" y="62"/>
      <point x="327" y="71"/>
      <point x="304" y="107" type="curve" smooth="yes"/>
      <point x="252" y="190"/>
      <point x="237" y="213"/>
      <point x="177" y="241" type="curve"/>
      <point x="186" y="226" type="line"/>
      <point x="230" y="321"/>
      <point x="303" y="388"/>
      <point x="342" y="388" type="curve" smooth="yes"/>
      <point x="365" y="388"/>
      <point x="380" y="365"/>
      <point x="383" y="318" type="curve"/>
      <point x="397" y="314"/>
      <point x="414" y="314"/>
      <point x="429" y="320" type="curve"/>
      <point x="431" y="370"/>
      <point x="435" y="410"/>
      <point x="446" y="458" type="curve"/>
      <point x="429" y="465"/>
      <point x="406" y="467"/>
      <point x="392" y="467" type="curve" smooth="yes"/>
      <point x="292" y="467"/>
      <point x="214" y="368"/>
      <point x="146" y="239" type="curve"/>
      <point x="145" y="239" type="line"/>
      <point x="169" y="328"/>
      <point x="175" y="355"/>
      <point x="179" y="383" type="curve" smooth="yes"/>
      <point x="187" y="439"/>
      <point x="181" y="460"/>
      <point x="160" y="467" type="curve"/>
      <point x="124" y="449"/>
      <point x="66" y="432"/>
      <point x="25" y="426" type="curve"/>
      <point x="20" y="417"/>
      <point x="18" y="401"/>
      <point x="19" y="388" type="curve"/>
      <point x="83" y="388"/>
      <point x="86" y="384"/>
      <point x="70" y="291" type="curve" smooth="yes"/>
      <point x="20" y="0" type="line"/>
      <point x="111" y="0" type="line"/>
      <point x="131" y="113" type="line" smooth="yes"/>
      <point x="137" y="151"/>
      <point x="141" y="181"/>
      <point x="143" y="196" type="curve"/>
      <point x="139" y="197" type="line"/>
      <point x="168" y="160"/>
      <point x="196" y="116"/>
      <point x="213" y="83" type="curve" smooth="yes"/>
      <point x="242" y="27"/>
      <point x="260" y="-9"/>
    </contour>
  </outline>
</glyph>
<glyph name="napostrophe" format="2">
  <advance width="655"/>
  <unicode hex="0149"/>
  <outline>
    <contour>
      <point x="232" y="623" type="move"/>
    </contour>
    <component base="apostrophemod" xOffset="27"/>
    <component base="n" xOffset="137"/>
  </outline>
</glyph>
<glyph name="Eng" format="2">
  <advance width="629"/>
  <unicode hex="014A"/>
  <outline>
    <contour>
      <point x="297" y="-249" type="curve" smooth="yes"/>
      <point x="421" y="-249"/>
      <point x="511" y="-78"/>
      <point x="540" y="49" type="curve" smooth="yes"/>
      <point x="622" y="405" type="line" smooth="yes"/>
      <point x="676" y="640"/>
      <point x="572" y="682"/>
      <point x="520" y="682" type="curve" smooth="yes"/>
      <point x="423" y="682"/>
      <point x="288" y="539"/>
      <point x="247" y="454" type="curve" smooth="yes"/>
      <point x="192" y="340" type="line"/>
      <point x="211" y="217" type="line"/>
      <point x="247" y="434"/>
      <point x="393" y="601"/>
      <point x="487" y="601" type="curve" smooth="yes"/>
      <point x="540" y="601"/>
      <point x="555" y="548"/>
      <point x="525" y="407" type="curve" smooth="yes"/>
      <point x="445" y="29" type="line" smooth="yes"/>
      <point x="419" y="-96"/>
      <point x="399" y="-159"/>
      <point x="295" y="-159" type="curve" smooth="yes"/>
      <point x="282" y="-159"/>
      <point x="261" y="-158"/>
      <point x="239" y="-150" type="curve"/>
      <point x="228" y="-171"/>
      <point x="224" y="-191"/>
      <point x="225" y="-218" type="curve"/>
      <point x="239" y="-236"/>
      <point x="263" y="-249"/>
    </contour>
    <contour>
      <point x="73" y="0" type="line"/>
      <point x="168" y="0" type="line"/>
      <point x="211" y="217" type="line"/>
      <point x="223" y="406" type="line"/>
      <point x="229" y="420"/>
      <point x="267" y="512"/>
      <point x="281" y="611" type="curve" smooth="yes"/>
      <point x="288" y="658"/>
      <point x="283" y="675"/>
      <point x="260" y="684" type="curve"/>
      <point x="231" y="669"/>
      <point x="156" y="646"/>
      <point x="124" y="643" type="curve"/>
      <point x="118" y="633"/>
      <point x="118" y="619"/>
      <point x="118" y="605" type="curve"/>
      <point x="182" y="605"/>
      <point x="186" y="601"/>
      <point x="168" y="507" type="curve" smooth="yes"/>
    </contour>
  </outline>
</glyph>
<glyph name="oe" format="2">
  <advance width="657.913"/>
  <unicode hex="0153"/>
  <anchor x="404" y="458" name="top"/>
  <outline>
    <contour>
      <point x="276" y="467" type="curve" smooth="yes"/>
      <point x="157" y="467"/>
      <point x="58" y="371"/>
      <point x="31" y="230" type="curve" smooth="yes"/>
      <point x="4" y="94"/>
      <point x="60" y="-9"/>
      <point x="180" y="-9" type="curve" smooth="yes"/>
      <point x="294" y="-9"/>
      <point x="373" y="102"/>
      <point x="397" y="238" type="curve" smooth="yes"/>
      <point x="419" y="360"/>
      <point x="383" y="467"/>
    </contour>
    <contour>
      <point x="261" y="419" type="curve" smooth="yes"/>
      <point x="322" y="419"/>
      <point x="348" y="339"/>
      <point x="327" y="228" type="curve" smooth="yes"/>
      <point x="307" y="120"/>
      <point x="252" y="39"/>
      <point x="193" y="39" type="curve" smooth="yes"/>
      <point x="133" y="39"/>
      <point x="107" y="124"/>
      <point x="130" y="240" type="curve" smooth="yes"/>
      <point x="151" y="346"/>
      <point x="203" y="419"/>
    </contour>
    <contour>
      <point x="547" y="467" type="curve" smooth="yes"/>
      <point x="456" y="467"/>
      <point x="384" y="389"/>
      <point x="350" y="221" type="curve" smooth="yes"/>
      <point x="329" y="117"/>
      <point x="310" y="-9"/>
      <point x="425" y="-9" type="curve" smooth="yes"/>
      <point x="499" y="-9"/>
      <point x="558" y="34"/>
      <point x="600" y="90" type="curve"/>
      <point x="596" y="103"/>
      <point x="589" y="112"/>
      <point x="579" y="119" type="curve"/>
      <point x="546" y="79"/>
      <point x="510" y="63"/>
      <point x="478" y="63" type="curve" smooth="yes"/>
      <point x="401" y="63"/>
      <point x="399" y="158"/>
      <point x="413" y="241" type="curve" smooth="yes"/>
      <point x="433" y="359"/>
      <point x="478" y="416"/>
      <point x="521" y="416" type="curve" smooth="yes"/>
      <point x="554" y="416"/>
      <point x="570" y="384"/>
      <point x="562" y="343" type="curve" smooth="yes"/>
      <point x="549" y="280"/>
      <point x="483" y="245"/>
      <point x="408" y="240" type="curve"/>
      <point x="405" y="203" type="line"/>
      <point x="491" y="208"/>
      <point x="623" y="267"/>
      <point x="643" y="356" type="curve" smooth="yes"/>
      <point x="655" y="410"/>
      <point x="625" y="467"/>
    </contour>
  </outline>
</glyph>
<glyph name="Nhookleft" format="2">
  <advance width="742"/>
  <unicode hex="019D"/>
  <anchor x="326" y="0" name="bottom"/>
  <anchor x="458" y="676" name="top"/>
  <outline>
    <contour>
      <point x="550" y="-9" type="line"/>
      <point x="581" y="150" type="line"/>
      <point x="284" y="679" type="line"/>
      <point x="266" y="677"/>
      <point x="242" y="676"/>
      <point x="217" y="676" type="curve" smooth="yes"/>
      <point x="192" y="676"/>
      <point x="163" y="677"/>
      <point x="143" y="679" type="curve"/>
      <point x="141" y="668"/>
      <point x="139" y="650"/>
      <point x="140" y="636" type="curve"/>
      <point x="173" y="633"/>
      <point x="185" y="629"/>
      <point x="199" y="605" type="curve" smooth="yes"/>
    </contour>
    <contour>
      <point x="-90" y="-249" type="curve" smooth="yes"/>
      <point x="30" y="-249"/>
      <point x="115" y="-112"/>
      <point x="144" y="40" type="curve" smooth="yes"/>
      <point x="255" y="610" type="line"/>
      <point x="204" y="610" type="line"/>
      <point x="92" y="36" type="line" smooth="yes"/>
      <point x="66" y="-100"/>
      <point x="6" y="-159"/>
      <point x="-83" y="-159" type="curve" smooth="yes"/>
      <point x="-99" y="-159"/>
      <point x="-121" y="-157"/>
      <point x="-143" y="-153" type="curve"/>
      <point x="-151" y="-170"/>
      <point x="-160" y="-206"/>
      <point x="-158" y="-226" type="curve"/>
      <point x="-147" y="-236"/>
      <point x="-127" y="-249"/>
    </contour>
    <contour>
      <point x="550" y="-9" type="line"/>
      <point x="564" y="-9"/>
      <point x="580" y="-8"/>
      <point x="592" y="-4" type="curve"/>
      <point x="689" y="494" type="line" smooth="yes"/>
      <point x="710" y="603"/>
      <point x="731" y="636"/>
      <point x="775" y="636" type="curve"/>
      <point x="782" y="650"/>
      <point x="786" y="666"/>
      <point x="788" y="679" type="curve"/>
      <point x="761" y="677"/>
      <point x="721" y="676"/>
      <point x="693" y="676" type="curve" smooth="yes"/>
      <point x="665" y="676"/>
      <point x="628" y="677"/>
      <point x="599" y="679" type="curve"/>
      <point x="597" y="667"/>
      <point x="597" y="659"/>
      <point x="596" y="636" type="curve"/>
      <point x="650" y="636"/>
      <point x="659" y="603"/>
      <point x="638" y="494" type="curve" smooth="yes"/>
      <point x="560" y="94" type="line"/>
    </contour>
  </outline>
</glyph>
<glyph name="Ezh" format="2">
  <advance width="575"/>
  <unicode hex="01B7"/>
  <anchor x="231" y="0" name="bottom"/>
  <anchor x="368" y="676" name="top"/>
  <outline>
    <contour>
      <point x="227" y="-9" type="curve" smooth="yes"/>
      <point x="400" y="-9"/>
      <point x="512" y="64"/>
      <point x="536" y="188" type="curve" smooth="yes"/>
      <point x="559" y="305"/>
      <point x="490" y="377"/>
      <point x="340" y="380" type="curve"/>
      <point x="344" y="369" type="line"/>
      <point x="444" y="466"/>
      <point x="539" y="572"/>
      <point x="599" y="641" type="curve"/>
      <point x="601" y="654"/>
      <point x="597" y="669"/>
      <point x="590" y="678" type="curve"/>
      <point x="521" y="676"/>
      <point x="466" y="676"/>
      <point x="399" y="676" type="curve" smooth="yes"/>
      <point x="335" y="676"/>
      <point x="198" y="676"/>
      <point x="158" y="678" type="curve"/>
      <point x="150" y="625"/>
      <point x="130" y="563"/>
      <point x="111" y="524" type="curve"/>
      <point x="122" y="512"/>
      <point x="148" y="503"/>
      <point x="166" y="504" type="curve"/>
      <point x="206" y="613"/>
      <point x="246" y="636"/>
      <point x="334" y="636" type="curve" smooth="yes"/>
      <point x="491" y="636" type="line"/>
      <point x="495" y="667" type="line"/>
      <point x="422" y="577"/>
      <point x="322" y="467"/>
      <point x="235" y="388" type="curve"/>
      <point x="233" y="371"/>
      <point x="236" y="356"/>
      <point x="241" y="344" type="curve"/>
      <point x="378" y="341"/>
      <point x="448" y="289"/>
      <point x="428" y="189" type="curve" smooth="yes"/>
      <point x="410" y="98"/>
      <point x="338" y="39"/>
      <point x="229" y="39" type="curve" smooth="yes"/>
      <point x="123" y="39"/>
      <point x="92" y="89"/>
      <point x="100" y="192" type="curve"/>
      <point x="84" y="195"/>
      <point x="61" y="195"/>
      <point x="44" y="191" type="curve"/>
      <point x="42" y="148"/>
      <point x="34" y="88"/>
      <point x="24" y="46" type="curve"/>
      <point x="78" y="12"/>
      <point x="140" y="-9"/>
    </contour>
  </outline>
</glyph>
<glyph name="Gstroke" format="2">
  <advance width="693"/>
  <unicode hex="01E4"/>
  <outline>
    <contour>
      <point x="377.05" y="139" type="curve"/>
      <point x="439.95" y="141"/>
      <point x="468.85" y="141"/>
      <point x="549.6" y="141" type="curve" smooth="yes"/>
      <point x="599.75" y="141"/>
      <point x="630.3499999999999" y="141"/>
      <point x="678.8" y="140" type="curve"/>
      <point x="686.45" y="154"/>
      <point x="688.15" y="170"/>
      <point x="688.15" y="190" type="curve"/>
      <point x="386.4" y="190" type="line"/>
      <point x="381.3" y="181"/>
      <point x="377.05" y="154"/>
    </contour>
    <component base="G"/>
  </outline>
</glyph>
<glyph name="Yogh" format="2">
  <advance width="519"/>
  <unicode hex="021C"/>
  <outline>
    <contour>
      <point x="107" y="-171" type="curve" smooth="yes"/>
      <point x="287" y="-171"/>
      <point x="432" y="-60"/>
      <point x="464" y="105" type="curve" smooth="yes"/>
      <point x="495" y="264"/>
      <point x="390" y="315"/>
      <point x="273" y="308" type="curve"/>
      <point x="255" y="292" type="line"/>
      <point x="416" y="344"/>
      <point x="489" y="413"/>
      <point x="507" y="506" type="curve" smooth="yes"/>
      <point x="527" y="610"/>
      <point x="467" y="685"/>
      <point x="313" y="685" type="curve" smooth="yes"/>
      <point x="239" y="685"/>
      <point x="167" y="668"/>
      <point x="116" y="638" type="curve"/>
      <point x="112" y="593"/>
      <point x="102" y="549"/>
      <point x="91" y="508" type="curve"/>
      <point x="109" y="502"/>
      <point x="123" y="500"/>
      <point x="140" y="502" type="curve"/>
      <point x="178" y="606"/>
      <point x="224" y="640"/>
      <point x="294" y="640" type="curve" smooth="yes"/>
      <point x="379" y="640"/>
      <point x="420" y="591"/>
      <point x="402" y="495" type="curve" smooth="yes"/>
      <point x="385" y="408"/>
      <point x="330" y="339"/>
      <point x="131" y="291" type="curve"/>
      <point x="128" y="275"/>
      <point x="127" y="255"/>
      <point x="133" y="239" type="curve"/>
      <point x="168" y="255"/>
      <point x="205" y="262"/>
      <point x="239" y="262" type="curve" smooth="yes"/>
      <point x="334" y="262"/>
      <point x="380" y="205"/>
      <point x="359" y="95" type="curve" smooth="yes"/>
      <point x="333" y="-40"/>
      <point x="231" y="-121"/>
      <point x="102" y="-121" type="curve" smooth="yes"/>
      <point x="44" y="-121"/>
      <point x="-13" y="-105"/>
      <point x="-25" y="-93" type="curve"/>
      <point x="-37" y="-104"/>
      <point x="-42" y="-116"/>
      <point x="-44" y="-126" type="curve"/>
      <point x="-19" y="-151"/>
      <point x="31" y="-171"/>
    </contour>
  </outline>
</glyph>
<glyph name="jdotless" format="2">
  <advance width="233"/>
  <unicode hex="0237"/>
  <anchor x="-36" y="-242" name="bottom"/>
  <anchor x="162" y="458" name="top"/>
  <outline>
    <contour>
      <point x="-104" y="-249" type="curve"/>
      <point x="40" y="-185"/>
      <point x="112" y="-91"/>
      <point x="143" y="74" type="curve" smooth="yes"/>
      <point x="189" y="319" type="line" smooth="yes"/>
      <point x="211" y="434"/>
      <point x="201" y="451"/>
      <point x="167" y="467" type="curve"/>
      <point x="143" y="452"/>
      <point x="80" y="429"/>
      <point x="48" y="426" type="curve"/>
      <point x="42" y="414"/>
      <point x="41" y="401"/>
      <point x="42" y="388" type="curve"/>
      <point x="104" y="388"/>
      <point x="108" y="375"/>
      <point x="97" y="314" type="curve" smooth="yes"/>
      <point x="48" y="51" type="line" smooth="yes"/>
      <point x="27" y="-62"/>
      <point x="-23" y="-148"/>
      <point x="-119" y="-216" type="curve"/>
      <point x="-118" y="-231"/>
      <point x="-113" y="-241"/>
    </contour>
  </outline>
</glyph>
<glyph name="ereversed" format="2">
  <advance width="368"/>
  <unicode hex="0258"/>
  <anchor x="142" y="0" name="bottom"/>
  <anchor x="327" y="207" name="right"/>
  <anchor x="224" y="458" name="top"/>
  <outline>
    <contour>
      <point x="124" y="-9" type="curve" smooth="yes"/>
      <point x="252" y="-9"/>
      <point x="318" y="121"/>
      <point x="339" y="237" type="curve" smooth="yes"/>
      <point x="364" y="376"/>
      <point x="320" y="467"/>
      <point x="207" y="467" type="curve" smooth="yes"/>
      <point x="144" y="467"/>
      <point x="90" y="439"/>
      <point x="65" y="373" type="curve" smooth="yes"/>
      <point x="28" y="277"/>
      <point x="87" y="196"/>
      <point x="264" y="196" type="curve"/>
      <point x="278" y="235" type="line"/>
      <point x="151" y="235"/>
      <point x="120" y="326"/>
      <point x="140" y="384" type="curve" smooth="yes"/>
      <point x="150" y="412"/>
      <point x="167" y="423"/>
      <point x="186" y="423" type="curve" smooth="yes"/>
      <point x="256" y="423"/>
      <point x="279" y="282"/>
      <point x="245" y="148" type="curve" smooth="yes"/>
      <point x="233" y="100"/>
      <point x="213" y="53"/>
      <point x="151" y="53" type="curve" smooth="yes"/>
      <point x="124" y="53"/>
      <point x="107" y="62"/>
      <point x="88" y="86" type="curve"/>
      <point x="58" y="89"/>
      <point x="31" y="85"/>
      <point x="4" y="69" type="curve"/>
      <point x="23" y="22"/>
      <point x="62" y="-9"/>
    </contour>
  </outline>
</glyph>
<glyph name="nhookleft" format="2">
  <advance width="514"/>
  <unicode hex="0272"/>
  <outline>
    <contour>
      <point x="-104" y="-249" type="curve"/>
      <point x="40" y="-185"/>
      <point x="109" y="-100"/>
      <point x="149" y="104" type="curve" smooth="yes"/>
      <point x="187" y="297"/>
      <point x="282" y="394"/>
      <point x="331" y="394" type="curve" smooth="yes"/>
      <point x="353" y="394"/>
      <point x="369" y="373"/>
      <point x="346" y="271" type="curve" smooth="yes"/>
      <point x="319" y="152" type="line" smooth="yes"/>
      <point x="297" y="53"/>
      <point x="287" y="-9"/>
      <point x="366" y="-9" type="curve" smooth="yes"/>
      <point x="402" y="-9"/>
      <point x="437" y="13"/>
      <point x="481" y="58" type="curve"/>
      <point x="478" y="71"/>
      <point x="473" y="80"/>
      <point x="463" y="90" type="curve"/>
      <point x="447" y="74"/>
      <point x="421" y="59"/>
      <point x="407" y="59" type="curve" smooth="yes"/>
      <point x="390" y="59"/>
      <point x="390" y="63"/>
      <point x="411" y="153" type="curve" smooth="yes"/>
      <point x="440" y="275" type="line" smooth="yes"/>
      <point x="478" y="433"/>
      <point x="413" y="467"/>
      <point x="370" y="467" type="curve" smooth="yes"/>
      <point x="300" y="467"/>
      <point x="215" y="376"/>
      <point x="184" y="311" type="curve" smooth="yes"/>
      <point x="168" y="277" type="line"/>
      <point x="168" y="278" type="line"/>
      <point x="182" y="311"/>
      <point x="194" y="345"/>
      <point x="205" y="402" type="curve" smooth="yes"/>
      <point x="211" y="439"/>
      <point x="205" y="460"/>
      <point x="184" y="467" type="curve"/>
      <point x="155" y="452"/>
      <point x="80" y="429"/>
      <point x="48" y="426" type="curve"/>
      <point x="42" y="416"/>
      <point x="42" y="402"/>
      <point x="42" y="388" type="curve"/>
      <point x="100" y="388"/>
      <point x="111" y="385"/>
      <point x="97" y="313" type="curve" smooth="yes"/>
      <point x="44" y="32" type="line" smooth="yes"/>
      <point x="24" y="-72"/>
      <point x="-29" y="-152"/>
      <point x="-119" y="-216" type="curve"/>
      <point x="-118" y="-231"/>
      <point x="-113" y="-241"/>
    </contour>
  </outline>
</glyph>
<glyph name="ezh" format="2">
  <advance width="434"/>
  <unicode hex="0292"/>
  <anchor x="99" y="-201" name="bottom"/>
  <anchor x="262" y="458" name="top"/>
  <outline>
    <contour>
      <point x="57" y="-242" type="curve" smooth="yes"/>
      <point x="221" y="-242"/>
      <point x="342" y="-137"/>
      <point x="367" y="-8" type="curve" smooth="yes"/>
      <point x="393" y="121"/>
      <point x="316" y="197"/>
      <point x="207" y="197" type="curve"/>
      <point x="186" y="170" type="line"/>
      <point x="289" y="266"/>
      <point x="377" y="357"/>
      <point x="434" y="421" type="curve"/>
      <point x="434" y="435"/>
      <point x="428" y="450"/>
      <point x="419" y="458" type="curve"/>
      <point x="374" y="461"/>
      <point x="323" y="462"/>
      <point x="259" y="462" type="curve" smooth="yes"/>
      <point x="185" y="462"/>
      <point x="131" y="461"/>
      <point x="87" y="458" type="curve"/>
      <point x="79" y="413"/>
      <point x="68" y="370"/>
      <point x="49" y="325" type="curve"/>
      <point x="58" y="313"/>
      <point x="73" y="306"/>
      <point x="87" y="303" type="curve"/>
      <point x="123" y="377"/>
      <point x="149" y="381"/>
      <point x="196" y="381" type="curve" smooth="yes"/>
      <point x="359" y="381" type="line"/>
      <point x="352" y="392" type="line"/>
      <point x="301" y="337"/>
      <point x="232" y="270"/>
      <point x="109" y="159" type="curve"/>
      <point x="106" y="144"/>
      <point x="113" y="131"/>
      <point x="122" y="119" type="curve"/>
      <point x="221" y="119"/>
      <point x="283" y="80"/>
      <point x="265" y="-17" type="curve" smooth="yes"/>
      <point x="243" y="-132"/>
      <point x="135" y="-192"/>
      <point x="41" y="-192" type="curve" smooth="yes"/>
      <point x="-5" y="-192"/>
      <point x="-45" y="-178"/>
      <point x="-59" y="-165" type="curve"/>
      <point x="-70" y="-173"/>
      <point x="-78" y="-185"/>
      <point x="-81" y="-198" type="curve"/>
      <point x="-57" y="-223"/>
      <point x="-9" y="-242"/>
    </contour>
  </outline>
</glyph>
<glyph name="ringhalfright" format="2">
  <advance width="224"/>
  <unicode hex="02BE"/>
  <outline>
    <contour>
      <point x="138" y="718" type="curve"/>
      <point x="131" y="702"/>
      <point x="129" y="683"/>
      <point x="132" y="668" type="curve"/>
      <point x="169" y="664"/>
      <point x="188" y="636"/>
      <point x="179" y="593" type="curve" smooth="yes"/>
      <point x="170" y="547"/>
      <point x="139" y="512"/>
      <point x="98" y="516" type="curve"/>
      <point x="92" y="502"/>
      <point x="90" y="485"/>
      <point x="94" y="470" type="curve"/>
      <point x="178" y="466"/>
      <point x="239" y="515"/>
      <point x="253" y="586" type="curve" smooth="yes"/>
      <point x="268" y="664"/>
      <point x="219" y="714"/>
    </contour>
  </outline>
</glyph>
<glyph name="verticallinemod" format="2">
  <advance width="198"/>
  <unicode hex="02C8"/>
  <outline>
    <contour>
      <point x="120" y="442" type="curve"/>
      <point x="136" y="435"/>
      <point x="155" y="434"/>
      <point x="174" y="437" type="curve"/>
      <point x="190" y="529"/>
      <point x="209" y="614"/>
      <point x="227" y="696" type="curve"/>
      <point x="207" y="703"/>
      <point x="183" y="702"/>
      <point x="164" y="698" type="curve"/>
      <point x="153" y="615"/>
      <point x="137" y="528"/>
    </contour>
  </outline>
</glyph>
<glyph name="gravecomb" format="2">
  <unicode hex="0300"/>
  <anchor x="236" y="458" name="_top"/>
  <anchor x="282" y="713" name="top"/>
  <outline>
    <contour>
      <point x="219" y="706" type="curve"/>
      <point x="189" y="716"/>
      <point x="153" y="714"/>
      <point x="126" y="704" type="curve"/>
      <point x="162" y="659"/>
      <point x="199" y="591"/>
      <point x="223" y="538" type="curve"/>
      <point x="234" y="533"/>
      <point x="253" y="532"/>
      <point x="263" y="536" type="curve"/>
      <point x="241" y="596"/>
      <point x="228" y="650"/>
    </contour>
  </outline>
</glyph>
<glyph name="acutecomb" format="2">
  <unicode hex="0301"/>
  <anchor x="122" y="458" name="_top"/>
  <anchor x="181" y="722" name="top"/>
  <outline>
    <contour>
      <point x="187" y="714" type="curve"/>
      <point x="171" y="672"/>
      <point x="140" y="612"/>
      <point x="98" y="545" type="curve"/>
      <point x="107" y="537"/>
      <point x="119" y="532"/>
      <point x="133" y="531" type="curve"/>
      <point x="182" y="596"/>
      <point x="239" y="659"/>
      <point x="288" y="705" type="curve"/>
      <point x="263" y="722"/>
      <point x="226" y="724"/>
    </contour>
  </outline>
</glyph>
<glyph name="circumflexcomb" format="2">
  <unicode hex="0302"/>
  <anchor x="221" y="458" name="_top"/>
  <anchor x="264" y="706" name="top"/>
  <outline>
    <contour>
      <point x="109" y="530" type="curve"/>
      <point x="153" y="562"/>
      <point x="198" y="589"/>
      <point x="246" y="613" type="curve"/>
      <point x="287" y="590"/>
      <point x="327" y="563"/>
      <point x="364" y="532" type="curve"/>
      <point x="377" y="536"/>
      <point x="390" y="548"/>
      <point x="394" y="561" type="curve"/>
      <point x="358" y="605"/>
      <point x="324" y="650"/>
      <point x="294" y="698" type="curve"/>
      <point x="282" y="704"/>
      <point x="270" y="707"/>
      <point x="256" y="705" type="curve"/>
      <point x="208" y="659"/>
      <point x="156" y="615"/>
      <point x="100" y="575" type="curve"/>
      <point x="97" y="560"/>
      <point x="101" y="542"/>
    </contour>
  </outline>
</glyph>
<glyph name="macroncomb" format="2">
  <unicode hex="0304"/>
  <anchor x="254" y="458" name="_top"/>
  <anchor x="288" y="631" name="top"/>
  <outline>
    <contour>
      <point x="105" y="585" type="curve"/>
      <point x="200" y="587"/>
      <point x="318" y="588"/>
      <point x="453" y="588" type="curve"/>
      <point x="459" y="603"/>
      <point x="462" y="617"/>
      <point x="462" y="631" type="curve"/>
      <point x="114" y="631" type="line"/>
      <point x="107" y="619"/>
      <point x="105" y="593"/>
    </contour>
  </outline>
</glyph>
<glyph name="brevecomb" format="2">
  <unicode hex="0306"/>
  <anchor x="245" y="458" name="_top"/>
  <anchor x="304" y="703" name="top"/>
  <outline>
    <contour>
      <point x="255" y="527" type="curve" smooth="yes"/>
      <point x="362" y="527"/>
      <point x="435" y="589"/>
      <point x="456" y="697" type="curve"/>
      <point x="451" y="701"/>
      <point x="439" y="703"/>
      <point x="425" y="703" type="curve"/>
      <point x="407" y="635"/>
      <point x="351" y="592"/>
      <point x="278" y="592" type="curve" smooth="yes"/>
      <point x="205" y="592"/>
      <point x="161" y="635"/>
      <point x="165" y="703" type="curve"/>
      <point x="152" y="703"/>
      <point x="136" y="699"/>
      <point x="123" y="692" type="curve"/>
      <point x="102" y="587"/>
      <point x="150" y="527"/>
    </contour>
  </outline>
</glyph>
<glyph name="dotaccentcomb" format="2">
  <unicode hex="0307"/>
  <anchor x="174" y="458" name="_top"/>
  <anchor x="211" y="647" name="top"/>
  <outline>
    <contour>
      <point x="187" y="527" type="curve" smooth="yes"/>
      <point x="220" y="527"/>
      <point x="246" y="551"/>
      <point x="253" y="586" type="curve" smooth="yes"/>
      <point x="261" y="623"/>
      <point x="243" y="647"/>
      <point x="210" y="647" type="curve" smooth="yes"/>
      <point x="179" y="647"/>
      <point x="153" y="623"/>
      <point x="145" y="586" type="curve" smooth="yes"/>
      <point x="138" y="551"/>
      <point x="155" y="527"/>
    </contour>
  </outline>
</glyph>
<glyph name="dieresiscomb" format="2">
  <unicode hex="0308"/>
  <anchor x="206" y="458" name="_top"/>
  <anchor x="242" y="640" name="top"/>
  <outline>
    <contour>
      <point x="303" y="533" type="curve" smooth="yes"/>
      <point x="332" y="533"/>
      <point x="353" y="551"/>
      <point x="359" y="584" type="curve" smooth="yes"/>
      <point x="366" y="623"/>
      <point x="345" y="640"/>
      <point x="314" y="640" type="curve" smooth="yes"/>
      <point x="287" y="640"/>
      <point x="265" y="627"/>
      <point x="258" y="593" type="curve" smooth="yes"/>
      <point x="251" y="558"/>
      <point x="268" y="533"/>
    </contour>
    <contour>
      <point x="147" y="532" type="curve" smooth="yes"/>
      <point x="176" y="532"/>
      <point x="197" y="553"/>
      <point x="203" y="581" type="curve" smooth="yes"/>
      <point x="210" y="614"/>
      <point x="195" y="640"/>
      <point x="157" y="640" type="curve" smooth="yes"/>
      <point x="127" y="640"/>
      <point x="110" y="623"/>
      <point x="104" y="596" type="curve" smooth="yes"/>
      <point x="96" y="562"/>
      <point x="112" y="532"/>
    </contour>
  </outline>
</glyph>
<glyph name="ringcomb" format="2">
  <unicode hex="030A"/>
  <anchor x="179" y="458" name="_top"/>
  <anchor x="227" y="708" name="top"/>
  <outline>
    <contour>
      <point x="201" y="526" type="curve" smooth="yes"/>
      <point x="262" y="526"/>
      <point x="300" y="558"/>
      <point x="309" y="605" type="curve" smooth="yes"/>
      <point x="318" y="650"/>
      <point x="299" y="708"/>
      <point x="219" y="708" type="curve" smooth="yes"/>
      <point x="157" y="708"/>
      <point x="119" y="674"/>
      <point x="110" y="625" type="curve" smooth="yes"/>
      <point x="100" y="570"/>
      <point x="130" y="526"/>
    </contour>
    <contour>
      <point x="205" y="563" type="curve" smooth="yes"/>
      <point x="174" y="563"/>
      <point x="157" y="586"/>
      <point x="163" y="620" type="curve" smooth="yes"/>
      <point x="168" y="649"/>
      <point x="187" y="674"/>
      <point x="215" y="674" type="curve" smooth="yes"/>
      <point x="247" y="674"/>
      <point x="261" y="641"/>
      <point x="253" y="606" type="curve" smooth="yes"/>
      <point x="246" y="575"/>
      <point x="228" y="563"/>
    </contour>
  </outline>
</glyph>
<glyph name="dblgravecomb" format="2">
  <unicode hex="030F"/>
  <anchor x="289" y="458" name="_top"/>
  <anchor x="338" y="715" name="top"/>
  <outline>
    <contour>
      <point x="400" y="539" type="curve"/>
      <point x="411" y="534"/>
      <point x="425" y="529"/>
      <point x="437" y="532" type="curve"/>
      <point x="415" y="594"/>
      <point x="405" y="652"/>
      <point x="397" y="708" type="curve"/>
      <point x="366" y="716"/>
      <point x="330" y="719"/>
      <point x="303" y="708" type="curve"/>
      <point x="337" y="662"/>
      <point x="366" y="610"/>
    </contour>
    <contour>
      <point x="240" y="539" type="curve"/>
      <point x="251" y="534"/>
      <point x="265" y="529"/>
      <point x="277" y="532" type="curve"/>
      <point x="255" y="594"/>
      <point x="245" y="652"/>
      <point x="237" y="708" type="curve"/>
      <point x="206" y="716"/>
      <point x="170" y="719"/>
      <point x="143" y="708" type="curve"/>
      <point x="177" y="662"/>
      <point x="206" y="610"/>
    </contour>
  </outline>
</glyph>
<glyph name="breveinvertedcomb" format="2">
  <unicode hex="0311"/>
  <anchor x="247" y="458" name="_top"/>
  <anchor x="295" y="703" name="top"/>
  <outline>
    <contour>
      <point x="310" y="703" type="curve" smooth="yes"/>
      <point x="203" y="703"/>
      <point x="130" y="641"/>
      <point x="109" y="533" type="curve"/>
      <point x="114" y="529"/>
      <point x="126" y="527"/>
      <point x="140" y="527" type="curve"/>
      <point x="158" y="595"/>
      <point x="214" y="638"/>
      <point x="287" y="638" type="curve" smooth="yes"/>
      <point x="360" y="638"/>
      <point x="404" y="595"/>
      <point x="400" y="527" type="curve"/>
      <point x="413" y="527"/>
      <point x="429" y="531"/>
      <point x="442" y="538" type="curve"/>
      <point x="463" y="643"/>
      <point x="415" y="703"/>
    </contour>
  </outline>
</glyph>
<glyph name="commaturnedabovecomb" format="2">
  <unicode hex="0312"/>
  <guideline x="44" y="45" angle="79"/>
  <anchor x="144" y="458" name="_top"/>
  <anchor x="196" y="726" name="top"/>
  <outline>
    <contour>
      <point x="122" y="511" type="curve"/>
      <point x="146" y="525"/>
      <point x="176" y="536"/>
      <point x="207" y="541" type="curve"/>
      <point x="219" y="557"/>
      <point x="225" y="578"/>
      <point x="224" y="599" type="curve"/>
      <point x="194" y="601"/>
      <point x="191" y="617"/>
      <point x="194" y="630" type="curve" smooth="yes"/>
      <point x="198" y="644"/>
      <point x="219" y="675"/>
      <point x="254" y="703" type="curve"/>
      <point x="251" y="714"/>
      <point x="243" y="721"/>
      <point x="231" y="726" type="curve"/>
      <point x="170" y="688"/>
      <point x="110" y="631"/>
      <point x="99" y="578" type="curve" smooth="yes"/>
      <point x="93" y="548"/>
      <point x="100" y="519"/>
    </contour>
  </outline>
</glyph>
<glyph name="horncomb" format="2">
  <unicode hex="031B"/>
  <anchor x="-5" y="458" name="_topright"/>
  <anchor x="-5" y="458" name="topright"/>
  <outline>
    <contour>
      <point x="-40" y="416" type="line"/>
      <point x="25" y="416"/>
      <point x="91" y="443"/>
      <point x="102" y="505" type="curve" smooth="yes"/>
      <point x="107" y="533"/>
      <point x="101" y="558"/>
      <point x="90" y="573" type="curve"/>
      <point x="74" y="577"/>
      <point x="44" y="573"/>
      <point x="29" y="568" type="curve"/>
      <point x="32" y="548"/>
      <point x="31" y="529"/>
      <point x="27" y="512" type="curve" smooth="yes"/>
      <point x="17" y="469"/>
      <point x="-7" y="458"/>
      <point x="-55" y="458" type="curve"/>
    </contour>
  </outline>
</glyph>
<glyph name="dotbelowcomb" format="2">
  <unicode hex="0323"/>
  <anchor x="79" y="0" name="_bottom"/>
  <anchor x="37" y="-213" name="bottom"/>
  <outline>
    <contour>
      <point x="41" y="-213" type="curve" smooth="yes"/>
      <point x="75" y="-213"/>
      <point x="97" y="-187"/>
      <point x="103" y="-154" type="curve" smooth="yes"/>
      <point x="111" y="-109"/>
      <point x="82" y="-93"/>
      <point x="57" y="-93" type="curve" smooth="yes"/>
      <point x="25" y="-93"/>
      <point x="1" y="-119"/>
      <point x="-5" y="-154" type="curve" smooth="yes"/>
      <point x="-11" y="-191"/>
      <point x="9" y="-213"/>
    </contour>
  </outline>
</glyph>
<glyph name="commaaccentcomb" format="2">
  <unicode hex="0326"/>
  <guideline x="44" y="45" angle="79"/>
  <anchor x="35" y="0" name="_bottom"/>
  <anchor x="-19" y="-279" name="bottom"/>
  <outline>
    <contour>
      <point x="-61" y="-279" type="curve"/>
      <point x="0" y="-238"/>
      <point x="59" y="-180"/>
      <point x="72" y="-110" type="curve" smooth="yes"/>
      <point x="78" y="-77"/>
      <point x="70" y="-52"/>
      <point x="48" y="-43" type="curve"/>
      <point x="24" y="-57"/>
      <point x="-6" y="-67"/>
      <point x="-37" y="-73" type="curve"/>
      <point x="-49" y="-89"/>
      <point x="-56" y="-112"/>
      <point x="-54" y="-133" type="curve"/>
      <point x="-30" y="-136"/>
      <point x="-20" y="-149"/>
      <point x="-23" y="-169" type="curve" smooth="yes"/>
      <point x="-27" y="-193"/>
      <point x="-49" y="-226"/>
      <point x="-84" y="-256" type="curve"/>
      <point x="-81" y="-267"/>
      <point x="-73" y="-274"/>
    </contour>
  </outline>
</glyph>
<glyph name="Phi" format="2">
  <advance width="754"/>
  <unicode hex="03A6"/>
  <anchor x="461" y="676" name="top"/>
  <outline>
    <contour>
      <point x="351" y="94" type="curve" smooth="yes"/>
      <point x="550" y="94"/>
      <point x="706" y="185"/>
      <point x="735" y="336" type="curve" smooth="yes"/>
      <point x="766" y="495"/>
      <point x="637" y="580"/>
      <point x="445" y="580" type="curve" smooth="yes"/>
      <point x="253" y="580"/>
      <point x="94" y="501"/>
      <point x="64" y="345" type="curve" smooth="yes"/>
      <point x="33" y="187"/>
      <point x="155" y="94"/>
    </contour>
    <contour>
      <point x="229" y="-3" type="curve"/>
      <point x="263" y="-1"/>
      <point x="311" y="0"/>
      <point x="350" y="0" type="curve" smooth="yes"/>
      <point x="389" y="0"/>
      <point x="431" y="-1"/>
      <point x="471" y="-3" type="curve"/>
      <point x="473" y="12"/>
      <point x="472" y="28"/>
      <point x="469" y="40" type="curve"/>
      <point x="410" y="47"/>
      <point x="398" y="60"/>
      <point x="410" y="127" type="curve" smooth="yes"/>
      <point x="483" y="549" type="line" smooth="yes"/>
      <point x="495" y="614"/>
      <point x="510" y="627"/>
      <point x="561" y="636" type="curve"/>
      <point x="567" y="649"/>
      <point x="569" y="663"/>
      <point x="570" y="679" type="curve"/>
      <point x="530" y="677"/>
      <point x="491" y="676"/>
      <point x="448" y="676" type="curve" smooth="yes"/>
      <point x="405" y="676"/>
      <point x="365" y="677"/>
      <point x="328" y="679" type="curve"/>
      <point x="326" y="663"/>
      <point x="327" y="649"/>
      <point x="329" y="636" type="curve"/>
      <point x="384" y="629"/>
      <point x="401" y="616"/>
      <point x="389" y="549" type="curve" smooth="yes"/>
      <point x="316" y="127" type="line" smooth="yes"/>
      <point x="304" y="60"/>
      <point x="291" y="46"/>
      <point x="237" y="40" type="curve"/>
      <point x="232" y="29"/>
      <point x="229" y="14"/>
    </contour>
    <contour>
      <point x="367" y="146" type="curve" smooth="yes"/>
      <point x="214" y="146"/>
      <point x="141" y="220"/>
      <point x="165" y="341" type="curve" smooth="yes"/>
      <point x="190" y="473"/>
      <point x="298" y="529"/>
      <point x="428" y="529" type="curve" smooth="yes"/>
      <point x="570" y="529"/>
      <point x="660" y="468"/>
      <point x="635" y="339" type="curve" smooth="yes"/>
      <point x="612" y="218"/>
      <point x="513" y="146"/>
    </contour>
  </outline>
</glyph>
<glyph name="Psi" format="2">
  <advance width="699"/>
  <unicode hex="03A8"/>
  <anchor x="441" y="676" name="top"/>
  <outline>
    <contour>
      <point x="199" y="-3" type="curve"/>
      <point x="235" y="0"/>
      <point x="286" y="0"/>
      <point x="330" y="0" type="curve" smooth="yes"/>
      <point x="370" y="0"/>
      <point x="416" y="0"/>
      <point x="458" y="-3" type="curve"/>
      <point x="460" y="13"/>
      <point x="459" y="27"/>
      <point x="456" y="40" type="curve"/>
      <point x="385" y="49"/>
      <point x="379" y="65"/>
      <point x="389" y="122" type="curve" smooth="yes"/>
      <point x="463" y="549" type="line" smooth="yes"/>
      <point x="474" y="614"/>
      <point x="490" y="627"/>
      <point x="541" y="636" type="curve"/>
      <point x="547" y="649"/>
      <point x="549" y="663"/>
      <point x="550" y="679" type="curve"/>
      <point x="510" y="677"/>
      <point x="471" y="676"/>
      <point x="428" y="676" type="curve" smooth="yes"/>
      <point x="385" y="676"/>
      <point x="345" y="677"/>
      <point x="308" y="679" type="curve"/>
      <point x="306" y="663"/>
      <point x="307" y="649"/>
      <point x="309" y="636" type="curve"/>
      <point x="364" y="629"/>
      <point x="381" y="616"/>
      <point x="369" y="549" type="curve" smooth="yes"/>
      <point x="297" y="132" type="line" smooth="yes"/>
      <point x="285" y="65"/>
      <point x="271" y="49"/>
      <point x="206" y="41" type="curve"/>
      <point x="202" y="30"/>
      <point x="199" y="15"/>
    </contour>
    <contour>
      <point x="355" y="233" type="curve"/>
      <point x="360" y="280" type="line"/>
      <point x="216" y="280"/>
      <point x="185" y="337"/>
      <point x="224" y="539" type="curve" smooth="yes"/>
      <point x="243" y="637" type="line" smooth="yes"/>
      <point x="249" y="666"/>
      <point x="240" y="680"/>
      <point x="227" y="685" type="curve"/>
      <point x="197" y="675"/>
      <point x="143" y="663"/>
      <point x="103" y="665" type="curve"/>
      <point x="97" y="652"/>
      <point x="94" y="643"/>
      <point x="93" y="628" type="curve"/>
      <point x="149" y="621"/>
      <point x="145" y="606"/>
      <point x="136" y="549" type="curve" smooth="yes"/>
      <point x="99" y="313"/>
      <point x="124" y="233"/>
    </contour>
    <contour>
      <point x="363" y="233" type="line"/>
      <point x="644" y="233"/>
      <point x="654" y="391"/>
      <point x="704" y="585" type="curve" smooth="yes"/>
      <point x="713" y="619"/>
      <point x="720" y="643"/>
      <point x="745" y="643" type="curve" smooth="yes"/>
      <point x="749" y="643"/>
      <point x="754" y="643"/>
      <point x="759" y="638" type="curve"/>
      <point x="765" y="651"/>
      <point x="768" y="661"/>
      <point x="766" y="672" type="curve"/>
      <point x="757" y="679"/>
      <point x="744" y="682"/>
      <point x="732" y="682" type="curve" smooth="yes"/>
      <point x="673" y="682"/>
      <point x="629" y="659"/>
      <point x="618" y="607" type="curve" smooth="yes"/>
      <point x="560" y="340"/>
      <point x="545" y="280"/>
      <point x="368" y="280" type="curve"/>
    </contour>
  </outline>
</glyph>
<glyph name="gamma" format="2">
  <advance width="505"/>
  <unicode hex="03B3"/>
  <anchor x="291" y="458" name="top"/>
  <outline>
    <contour>
      <point x="165" y="-249" type="curve" smooth="yes"/>
      <point x="220" y="-249"/>
      <point x="258" y="-220"/>
      <point x="272" y="-152" type="curve" smooth="yes"/>
      <point x="283" y="-99"/>
      <point x="285" y="11"/>
      <point x="266" y="112" type="curve"/>
      <point x="259" y="206"/>
      <point x="247" y="313"/>
      <point x="230" y="377" type="curve" smooth="yes"/>
      <point x="211" y="448"/>
      <point x="187" y="467"/>
      <point x="118" y="467" type="curve" smooth="yes"/>
      <point x="90" y="467"/>
      <point x="75" y="464"/>
      <point x="61" y="458" type="curve"/>
      <point x="57" y="446"/>
      <point x="55" y="431"/>
      <point x="63" y="420" type="curve"/>
      <point x="94" y="427"/>
      <point x="118" y="425"/>
      <point x="132" y="361" type="curve" smooth="yes"/>
      <point x="158" y="243"/>
      <point x="180" y="130"/>
      <point x="198" y="21" type="curve" smooth="yes"/>
      <point x="217" y="-93"/>
      <point x="218" y="-126"/>
      <point x="215" y="-147" type="curve" smooth="yes"/>
      <point x="210" y="-182"/>
      <point x="191" y="-210"/>
      <point x="162" y="-210" type="curve" smooth="yes"/>
      <point x="139" y="-210"/>
      <point x="130" y="-191"/>
      <point x="136" y="-157" type="curve" smooth="yes"/>
      <point x="145" y="-110"/>
      <point x="175" y="-60"/>
      <point x="220" y="11" type="curve"/>
      <point x="210" y="67" type="line"/>
      <point x="125" y="-71"/>
      <point x="107" y="-103"/>
      <point x="98" y="-147" type="curve" smooth="yes"/>
      <point x="84" y="-215"/>
      <point x="105" y="-249"/>
    </contour>
    <contour>
      <point x="250" y="50" type="line"/>
      <point x="416" y="305" type="line" smooth="yes"/>
      <point x="467" y="383"/>
      <point x="487" y="410"/>
      <point x="522" y="418" type="curve"/>
      <point x="528" y="431"/>
      <point x="531" y="443"/>
      <point x="533" y="461" type="curve"/>
      <point x="509" y="459"/>
      <point x="470" y="458"/>
      <point x="439" y="458" type="curve" smooth="yes"/>
      <point x="408" y="458"/>
      <point x="373" y="459"/>
      <point x="348" y="461" type="curve"/>
      <point x="347" y="448"/>
      <point x="349" y="432"/>
      <point x="355" y="420" type="curve"/>
      <point x="404" y="416"/>
      <point x="413" y="391"/>
      <point x="362" y="307" type="curve" smooth="yes"/>
      <point x="343" y="276"/>
      <point x="286" y="187"/>
      <point x="238" y="103" type="curve"/>
    </contour>
  </outline>
</glyph>
<glyph name="delta" format="2">
  <advance width="472"/>
  <unicode hex="03B4"/>
  <anchor x="329" y="708" name="top"/>
  <outline>
    <contour>
      <point x="187" y="-8" type="curve" smooth="yes"/>
      <point x="318" y="-8"/>
      <point x="410" y="70"/>
      <point x="433" y="189" type="curve" smooth="yes"/>
      <point x="457" y="314"/>
      <point x="397" y="388"/>
      <point x="356" y="422" type="curve" smooth="yes"/>
      <point x="331" y="442"/>
      <point x="224" y="564"/>
      <point x="230" y="594" type="curve" smooth="yes"/>
      <point x="234" y="616"/>
      <point x="278" y="627"/>
      <point x="345" y="627" type="curve" smooth="yes"/>
      <point x="388" y="627"/>
      <point x="421" y="625"/>
      <point x="434" y="618" type="curve"/>
      <point x="443" y="639"/>
      <point x="449" y="670"/>
      <point x="447" y="688" type="curve"/>
      <point x="438" y="701"/>
      <point x="408" y="717"/>
      <point x="353" y="717" type="curve" smooth="yes"/>
      <point x="254" y="717"/>
      <point x="186" y="671"/>
      <point x="170" y="592" type="curve" smooth="yes"/>
      <point x="158" y="534"/>
      <point x="173" y="484"/>
      <point x="277" y="366" type="curve" smooth="yes"/>
      <point x="331" y="305"/>
      <point x="345" y="254"/>
      <point x="332" y="188" type="curve" smooth="yes"/>
      <point x="315" y="101"/>
      <point x="266" y="40"/>
      <point x="201" y="40" type="curve" smooth="yes"/>
      <point x="135" y="40"/>
      <point x="106" y="98"/>
      <point x="126" y="203" type="curve" smooth="yes"/>
      <point x="143" y="292"/>
      <point x="182" y="362"/>
      <point x="258" y="414" type="curve"/>
      <point x="230" y="451" type="line"/>
      <point x="124" y="402"/>
      <point x="49" y="320"/>
      <point x="26" y="203" type="curve" smooth="yes"/>
      <point x="0" y="70"/>
      <point x="62" y="-8"/>
    </contour>
  </outline>
</glyph>
<glyph name="zeta" format="2">
  <advance width="383"/>
  <unicode hex="03B6"/>
  <anchor x="289" y="708" name="top"/>
  <outline>
    <contour>
      <point x="133" y="-249" type="curve"/>
      <point x="208" y="-218"/>
      <point x="306" y="-133"/>
      <point x="325" y="-38" type="curve" smooth="yes"/>
      <point x="343" y="54"/>
      <point x="278" y="67"/>
      <point x="200" y="96" type="curve" smooth="yes"/>
      <point x="152" y="114"/>
      <point x="116" y="132"/>
      <point x="135" y="233" type="curve" smooth="yes"/>
      <point x="161" y="373"/>
      <point x="251" y="462"/>
      <point x="462" y="636" type="curve"/>
      <point x="467" y="669"/>
      <point x="466" y="693"/>
      <point x="460" y="710" type="curve"/>
      <point x="434" y="710"/>
      <point x="360" y="708"/>
      <point x="282" y="708" type="curve" smooth="yes"/>
      <point x="224" y="708"/>
      <point x="166" y="709"/>
      <point x="140" y="710" type="curve"/>
      <point x="129" y="654"/>
      <point x="115" y="608"/>
      <point x="95" y="559" type="curve"/>
      <point x="104" y="550"/>
      <point x="120" y="546"/>
      <point x="134" y="546" type="curve"/>
      <point x="162" y="607"/>
      <point x="185" y="622"/>
      <point x="236" y="622" type="curve" smooth="yes"/>
      <point x="396" y="622" type="line"/>
      <point x="399" y="634" type="line"/>
      <point x="155" y="462"/>
      <point x="56" y="358"/>
      <point x="28" y="208" type="curve" smooth="yes"/>
      <point x="0" y="61"/>
      <point x="66" y="26"/>
      <point x="125" y="9" type="curve" smooth="yes"/>
      <point x="174" y="-5"/>
      <point x="243" y="-15"/>
      <point x="231" y="-76" type="curve" smooth="yes"/>
      <point x="224" y="-111"/>
      <point x="191" y="-158"/>
      <point x="117" y="-221" type="curve"/>
      <point x="116" y="-234"/>
      <point x="123" y="-244"/>
    </contour>
  </outline>
</glyph>
<glyph name="eta" format="2">
  <advance width="509"/>
  <unicode hex="03B7"/>
  <anchor x="281" y="458" name="top"/>
  <outline>
    <contour>
      <point x="263" y="-242" type="curve"/>
      <point x="292" y="-215"/>
      <point x="337" y="-183"/>
      <point x="371" y="-167" type="curve"/>
      <point x="368" y="-137"/>
      <point x="370" y="-98"/>
      <point x="382" y="-40" type="curve" smooth="yes"/>
      <point x="447" y="275" type="line" smooth="yes"/>
      <point x="480" y="434"/>
      <point x="406" y="467"/>
      <point x="367" y="467" type="curve" smooth="yes"/>
      <point x="302" y="467"/>
      <point x="218" y="373"/>
      <point x="189" y="311" type="curve" smooth="yes"/>
      <point x="151" y="230" type="line"/>
      <point x="159" y="130" type="line"/>
      <point x="189" y="291"/>
      <point x="287" y="394"/>
      <point x="328" y="394" type="curve" smooth="yes"/>
      <point x="346" y="394"/>
      <point x="375" y="375"/>
      <point x="354" y="270" type="curve" smooth="yes"/>
      <point x="283" y="-85" type="line" smooth="yes"/>
      <point x="268" y="-160"/>
      <point x="257" y="-190"/>
      <point x="248" y="-220" type="curve"/>
      <point x="249" y="-228"/>
      <point x="254" y="-238"/>
    </contour>
    <contour>
      <point x="43" y="0" type="line"/>
      <point x="134" y="0" type="line"/>
      <point x="159" y="130" type="line"/>
      <point x="173" y="278" type="line"/>
      <point x="187" y="311"/>
      <point x="199" y="345"/>
      <point x="210" y="402" type="curve"/>
      <point x="216" y="439"/>
      <point x="210" y="460"/>
      <point x="189" y="467" type="curve"/>
      <point x="160" y="452"/>
      <point x="85" y="429"/>
      <point x="53" y="426" type="curve"/>
      <point x="47" y="416"/>
      <point x="45" y="402"/>
      <point x="47" y="388" type="curve"/>
      <point x="111" y="388"/>
      <point x="115" y="384"/>
      <point x="98" y="291" type="curve" smooth="yes"/>
    </contour>
  </outline>
</glyph>
<glyph name="theta" format="2">
  <advance width="550"/>
  <unicode hex="03B8"/>
  <anchor x="368" y="708" name="top"/>
  <outline>
    <contour>
      <point x="226" y="-10" type="curve" smooth="yes"/>
      <point x="380" y="-10"/>
      <point x="485" y="116"/>
      <point x="533" y="362" type="curve" smooth="yes"/>
      <point x="578" y="594"/>
      <point x="521" y="716"/>
      <point x="369" y="716" type="curve" smooth="yes"/>
      <point x="216" y="716"/>
      <point x="113" y="593"/>
      <point x="66" y="352" type="curve" smooth="yes"/>
      <point x="20" y="116"/>
      <point x="75" y="-10"/>
    </contour>
    <contour>
      <point x="237" y="38" type="curve" smooth="yes"/>
      <point x="149" y="38"/>
      <point x="125" y="146"/>
      <point x="166" y="358" type="curve" smooth="yes"/>
      <point x="206" y="561"/>
      <point x="272" y="669"/>
      <point x="358" y="669" type="curve" smooth="yes"/>
      <point x="447" y="669"/>
      <point x="473" y="563"/>
      <point x="433" y="356" type="curve" smooth="yes"/>
      <point x="392" y="148"/>
      <point x="324" y="38"/>
    </contour>
    <contour>
      <point x="146" y="331" type="line"/>
      <point x="283" y="334"/>
      <point x="347" y="334"/>
      <point x="450" y="334" type="curve"/>
      <point x="459" y="387" type="line"/>
      <point x="155" y="387" type="line"/>
    </contour>
  </outline>
</glyph>
<glyph name="iota" format="2">
  <advance width="281"/>
  <unicode hex="03B9"/>
  <anchor x="175" y="458" name="top"/>
  <anchor x="40" y="458" name="topleft"/>
  <outline>
    <contour>
      <point x="135" y="-9" type="curve" smooth="yes"/>
      <point x="178" y="-9"/>
      <point x="215" y="6"/>
      <point x="236" y="23" type="curve"/>
      <point x="236" y="36"/>
      <point x="232" y="50"/>
      <point x="225" y="61" type="curve"/>
      <point x="209" y="51"/>
      <point x="191" y="45"/>
      <point x="178" y="45" type="curve" smooth="yes"/>
      <point x="152" y="45"/>
      <point x="143" y="61"/>
      <point x="152" y="107" type="curve" smooth="yes"/>
      <point x="214" y="423" type="line" smooth="yes"/>
      <point x="219" y="448"/>
      <point x="210" y="462"/>
      <point x="197" y="468" type="curve"/>
      <point x="172" y="452"/>
      <point x="88" y="433"/>
      <point x="58" y="436" type="curve"/>
      <point x="50" y="425"/>
      <point x="47" y="415"/>
      <point x="46" y="400" type="curve"/>
      <point x="113" y="396"/>
      <point x="115" y="376"/>
      <point x="105" y="329" type="curve" smooth="yes"/>
      <point x="62" y="104" type="line" smooth="yes"/>
      <point x="47" y="29"/>
      <point x="73" y="-9"/>
    </contour>
  </outline>
</glyph>
<glyph name="lambda" format="2">
  <advance width="553"/>
  <unicode hex="03BB"/>
  <anchor x="357" y="708" name="top"/>
  <outline>
    <contour>
      <point x="424" y="-9" type="curve" smooth="yes"/>
      <point x="462" y="-9"/>
      <point x="498" y="9"/>
      <point x="525" y="35" type="curve"/>
      <point x="524" y="48"/>
      <point x="521" y="55"/>
      <point x="513" y="65" type="curve"/>
      <point x="496" y="52"/>
      <point x="479" y="45"/>
      <point x="464" y="45" type="curve" smooth="yes"/>
      <point x="445" y="45"/>
      <point x="431" y="57"/>
      <point x="427" y="93" type="curve" smooth="yes"/>
      <point x="371" y="626" type="line" smooth="yes"/>
      <point x="368" y="653"/>
      <point x="361" y="717"/>
      <point x="285" y="717" type="curve" smooth="yes"/>
      <point x="242" y="717"/>
      <point x="192" y="696"/>
      <point x="160" y="667" type="curve"/>
      <point x="160" y="653"/>
      <point x="165" y="646"/>
      <point x="173" y="637" type="curve"/>
      <point x="196" y="654"/>
      <point x="219" y="662"/>
      <point x="238" y="662" type="curve" smooth="yes"/>
      <point x="275" y="662"/>
      <point x="281" y="634"/>
      <point x="283" y="613" type="curve" smooth="yes"/>
      <point x="339" y="82" type="line" smooth="yes"/>
      <point x="345" y="27"/>
      <point x="369" y="-9"/>
    </contour>
    <contour>
      <point x="9" y="-4" type="curve"/>
      <point x="51" y="0"/>
      <point x="88" y="0"/>
      <point x="116" y="0" type="curve"/>
      <point x="198" y="189"/>
      <point x="261" y="319"/>
      <point x="349" y="500" type="curve"/>
      <point x="318" y="519" type="line"/>
      <point x="136" y="196"/>
      <point x="83" y="111"/>
      <point x="60" y="76" type="curve" smooth="yes"/>
      <point x="41" y="47"/>
      <point x="34" y="41"/>
      <point x="13" y="39" type="curve"/>
      <point x="11" y="28"/>
      <point x="8" y="8"/>
    </contour>
  </outline>
</glyph>
<glyph name="xi" format="2">
  <advance width="384"/>
  <unicode hex="03BE"/>
  <anchor x="303" y="708" name="top"/>
  <outline>
    <contour>
      <point x="137" y="-249" type="curve"/>
      <point x="211" y="-218"/>
      <point x="312" y="-133"/>
      <point x="331" y="-37" type="curve" smooth="yes"/>
      <point x="348" y="47"/>
      <point x="291" y="65"/>
      <point x="201" y="92" type="curve" smooth="yes"/>
      <point x="159" y="104"/>
      <point x="112" y="116"/>
      <point x="124" y="177" type="curve" smooth="yes"/>
      <point x="138" y="248"/>
      <point x="212" y="289"/>
      <point x="317" y="289" type="curve"/>
      <point x="327" y="303"/>
      <point x="332" y="319"/>
      <point x="335" y="332" type="curve"/>
      <point x="230" y="338"/>
      <point x="199" y="386"/>
      <point x="210" y="447" type="curve" smooth="yes"/>
      <point x="230" y="557"/>
      <point x="365" y="617"/>
      <point x="462" y="632" type="curve"/>
      <point x="467" y="657"/>
      <point x="469" y="687"/>
      <point x="466" y="710" type="curve"/>
      <point x="431" y="709"/>
      <point x="365" y="708"/>
      <point x="285" y="708" type="curve" smooth="yes"/>
      <point x="226" y="708"/>
      <point x="167" y="709"/>
      <point x="140" y="710" type="curve"/>
      <point x="131" y="661"/>
      <point x="117" y="622"/>
      <point x="99" y="579" type="curve"/>
      <point x="109" y="570"/>
      <point x="125" y="566"/>
      <point x="140" y="566" type="curve"/>
      <point x="165" y="613"/>
      <point x="187" y="624"/>
      <point x="238" y="624" type="curve" smooth="yes"/>
      <point x="383" y="624" type="line"/>
      <point x="357" y="634" type="line"/>
      <point x="215" y="584"/>
      <point x="124" y="531"/>
      <point x="107" y="442" type="curve" smooth="yes"/>
      <point x="93" y="367"/>
      <point x="144" y="310"/>
      <point x="280" y="310" type="curve"/>
      <point x="281" y="317" type="line"/>
      <point x="136" y="317"/>
      <point x="38" y="258"/>
      <point x="18" y="153" type="curve" smooth="yes"/>
      <point x="-3" y="46"/>
      <point x="75" y="19"/>
      <point x="129" y="7" type="curve" smooth="yes"/>
      <point x="178" y="-4"/>
      <point x="250" y="-15"/>
      <point x="238" y="-76" type="curve" smooth="yes"/>
      <point x="231" y="-111"/>
      <point x="197" y="-158"/>
      <point x="122" y="-221" type="curve"/>
      <point x="120" y="-234"/>
      <point x="128" y="-244"/>
    </contour>
  </outline>
</glyph>
<glyph name="sigmafinal" format="2">
  <advance width="396"/>
  <unicode hex="03C2"/>
  <anchor x="261" y="458" name="top"/>
  <outline>
    <contour>
      <point x="134" y="-249" type="curve"/>
      <point x="211" y="-220"/>
      <point x="302" y="-150"/>
      <point x="320" y="-61" type="curve" smooth="yes"/>
      <point x="339" y="34"/>
      <point x="268" y="59"/>
      <point x="201" y="105" type="curve" smooth="yes"/>
      <point x="150" y="140"/>
      <point x="116" y="177"/>
      <point x="133" y="270" type="curve" smooth="yes"/>
      <point x="150" y="364"/>
      <point x="200" y="420"/>
      <point x="256" y="420" type="curve" smooth="yes"/>
      <point x="304" y="420"/>
      <point x="330" y="381"/>
      <point x="323" y="305" type="curve"/>
      <point x="337" y="301"/>
      <point x="357" y="300"/>
      <point x="370" y="303" type="curve"/>
      <point x="377" y="342"/>
      <point x="386" y="379"/>
      <point x="397" y="416" type="curve"/>
      <point x="369" y="450"/>
      <point x="321" y="467"/>
      <point x="267" y="467" type="curve" smooth="yes"/>
      <point x="142" y="467"/>
      <point x="60" y="375"/>
      <point x="36" y="255" type="curve" smooth="yes"/>
      <point x="8" y="115"/>
      <point x="88" y="61"/>
      <point x="121" y="43" type="curve" smooth="yes"/>
      <point x="169" y="16"/>
      <point x="241" y="-12"/>
      <point x="231" y="-70" type="curve" smooth="yes"/>
      <point x="225" y="-103"/>
      <point x="191" y="-154"/>
      <point x="116" y="-215" type="curve"/>
      <point x="116" y="-230"/>
      <point x="124" y="-242"/>
    </contour>
  </outline>
</glyph>
<glyph name="sigma" format="2">
  <advance width="567"/>
  <unicode hex="03C3"/>
  <anchor x="285" y="458" name="top"/>
  <outline>
    <contour>
      <point x="195" y="-9" type="curve" smooth="yes"/>
      <point x="324" y="-9"/>
      <point x="422" y="91"/>
      <point x="445" y="208" type="curve" smooth="yes"/>
      <point x="463" y="298"/>
      <point x="428" y="350"/>
      <point x="383" y="379" type="curve"/>
      <point x="379" y="374" type="line"/>
      <point x="432" y="371"/>
      <point x="459" y="366"/>
      <point x="493" y="366" type="curve" smooth="yes"/>
      <point x="508" y="366"/>
      <point x="523" y="367"/>
      <point x="532" y="377" type="curve"/>
      <point x="541" y="415"/>
      <point x="554" y="458"/>
      <point x="569" y="498" type="curve"/>
      <point x="559" y="506"/>
      <point x="542" y="509"/>
      <point x="527" y="513" type="curve"/>
      <point x="515" y="477"/>
      <point x="500" y="458"/>
      <point x="457" y="458" type="curve" smooth="yes"/>
      <point x="422" y="458"/>
      <point x="349" y="464"/>
      <point x="306" y="464" type="curve" smooth="yes"/>
      <point x="155" y="464"/>
      <point x="60" y="370"/>
      <point x="32" y="233" type="curve" smooth="yes"/>
      <point x="2" y="87"/>
      <point x="67" y="-9"/>
    </contour>
    <contour>
      <point x="206" y="39" type="curve" smooth="yes"/>
      <point x="143" y="39"/>
      <point x="110" y="113"/>
      <point x="131" y="222" type="curve" smooth="yes"/>
      <point x="152" y="331"/>
      <point x="208" y="402"/>
      <point x="273" y="402" type="curve" smooth="yes"/>
      <point x="337" y="402"/>
      <point x="368" y="331"/>
      <point x="348" y="222" type="curve" smooth="yes"/>
      <point x="327" y="109"/>
      <point x="269" y="39"/>
    </contour>
  </outline>
</glyph>
<glyph name="tau" format="2">
  <advance width="367"/>
  <unicode hex="03C4"/>
  <anchor x="199" y="458" name="top"/>
  <outline>
    <contour>
      <point x="37" y="333" type="curve"/>
      <point x="64" y="364"/>
      <point x="76" y="371"/>
      <point x="103" y="371" type="curve" smooth="yes"/>
      <point x="146" y="371"/>
      <point x="206" y="368"/>
      <point x="257" y="368" type="curve" smooth="yes"/>
      <point x="314" y="368"/>
      <point x="326" y="377"/>
      <point x="333" y="389" type="curve"/>
      <point x="340" y="424"/>
      <point x="355" y="473"/>
      <point x="371" y="509" type="curve"/>
      <point x="360" y="515"/>
      <point x="344" y="519"/>
      <point x="328" y="520" type="curve"/>
      <point x="306" y="471"/>
      <point x="286" y="458"/>
      <point x="240" y="458" type="curve" smooth="yes"/>
      <point x="209" y="458"/>
      <point x="180" y="461"/>
      <point x="149" y="461" type="curve" smooth="yes"/>
      <point x="99" y="461"/>
      <point x="53" y="430"/>
      <point x="14" y="355" type="curve"/>
      <point x="18" y="345"/>
      <point x="25" y="334"/>
    </contour>
    <contour>
      <point x="150" y="-9" type="curve" smooth="yes"/>
      <point x="194" y="-9"/>
      <point x="235" y="14"/>
      <point x="259" y="38" type="curve"/>
      <point x="259" y="50"/>
      <point x="255" y="59"/>
      <point x="248" y="67" type="curve"/>
      <point x="232" y="54"/>
      <point x="217" y="48"/>
      <point x="202" y="48" type="curve" smooth="yes"/>
      <point x="174" y="48"/>
      <point x="164" y="67"/>
      <point x="174" y="121" type="curve" smooth="yes"/>
      <point x="226" y="391" type="line"/>
      <point x="136" y="391" type="line"/>
      <point x="80" y="100" type="line" smooth="yes"/>
      <point x="66" y="26"/>
      <point x="90" y="-9"/>
    </contour>
  </outline>
</glyph>
<glyph name="chi" format="2">
  <advance width="494"/>
  <unicode hex="03C7"/>
  <anchor x="261" y="458" name="top"/>
  <outline>
    <contour>
      <point x="233" y="-249" type="curve"/>
      <point x="264" y="-233"/>
      <point x="312" y="-218"/>
      <point x="351" y="-215" type="curve"/>
      <point x="359" y="-203"/>
      <point x="362" y="-193"/>
      <point x="365" y="-178" type="curve"/>
      <point x="302" y="-176"/>
      <point x="292" y="-160"/>
      <point x="281" y="-126" type="curve" smooth="yes"/>
      <point x="229" y="35"/>
      <point x="237" y="293"/>
      <point x="192" y="422" type="curve" smooth="yes"/>
      <point x="181" y="454"/>
      <point x="173" y="462"/>
      <point x="159" y="467" type="curve"/>
      <point x="128" y="451"/>
      <point x="79" y="436"/>
      <point x="43" y="433" type="curve"/>
      <point x="34" y="421"/>
      <point x="30" y="411"/>
      <point x="27" y="396" type="curve"/>
      <point x="90" y="394"/>
      <point x="100" y="378"/>
      <point x="111" y="344" type="curve" smooth="yes"/>
      <point x="162" y="188"/>
      <point x="156" y="-73"/>
      <point x="201" y="-204" type="curve" smooth="yes"/>
      <point x="212" y="-235"/>
      <point x="220" y="-244"/>
    </contour>
    <contour>
      <point x="85" y="-245" type="curve"/>
      <point x="88" y="-231"/>
      <point x="87" y="-216"/>
      <point x="82" y="-203" type="curve"/>
      <point x="29" y="-198"/>
      <point x="26" y="-172"/>
      <point x="67" y="-103" type="curve" smooth="yes"/>
      <point x="117" y="-19"/>
      <point x="153" y="39"/>
      <point x="165" y="56" type="curve"/>
      <point x="155" y="110" type="line"/>
      <point x="101" y="39"/>
      <point x="32" y="-82"/>
      <point x="12" y="-110" type="curve" smooth="yes"/>
      <point x="-23" y="-160"/>
      <point x="-44" y="-194"/>
      <point x="-85" y="-202" type="curve"/>
      <point x="-93" y="-214"/>
      <point x="-99" y="-227"/>
      <point x="-102" y="-245" type="curve"/>
      <point x="-77" y="-243"/>
      <point x="-40" y="-242"/>
      <point x="-8" y="-242" type="curve" smooth="yes"/>
      <point x="23" y="-242"/>
      <point x="59" y="-243"/>
    </contour>
    <contour>
      <point x="219" y="110" type="line"/>
      <point x="306" y="229"/>
      <point x="318" y="253"/>
      <point x="364" y="322" type="curve" smooth="yes"/>
      <point x="402" y="379"/>
      <point x="426" y="410"/>
      <point x="465" y="418" type="curve"/>
      <point x="473" y="430"/>
      <point x="479" y="443"/>
      <point x="482" y="461" type="curve"/>
      <point x="458" y="459"/>
      <point x="420" y="458"/>
      <point x="388" y="458" type="curve" smooth="yes"/>
      <point x="357" y="458"/>
      <point x="321" y="459"/>
      <point x="295" y="461" type="curve"/>
      <point x="292" y="447"/>
      <point x="293" y="432"/>
      <point x="298" y="419" type="curve"/>
      <point x="348" y="415"/>
      <point x="354" y="391"/>
      <point x="309" y="315" type="curve" smooth="yes"/>
      <point x="285" y="274"/>
      <point x="229" y="190"/>
      <point x="210" y="166" type="curve"/>
    </contour>
  </outline>
</glyph>
<glyph name="psi" format="2">
  <advance width="615"/>
  <unicode hex="03C8"/>
  <anchor x="397" y="708" name="top"/>
  <outline>
    <contour>
      <point x="181" y="-243" type="curve"/>
      <point x="207" y="-218"/>
      <point x="253" y="-185"/>
      <point x="286" y="-172" type="curve"/>
      <point x="283" y="-146"/>
      <point x="283" y="-112"/>
      <point x="296" y="-44" type="curve" smooth="yes"/>
      <point x="435" y="672" type="line" smooth="yes"/>
      <point x="440" y="697"/>
      <point x="431" y="711"/>
      <point x="419" y="717" type="curve"/>
      <point x="394" y="701"/>
      <point x="309" y="682"/>
      <point x="279" y="685" type="curve"/>
      <point x="272" y="674"/>
      <point x="269" y="664"/>
      <point x="268" y="649" type="curve"/>
      <point x="335" y="645"/>
      <point x="336" y="625"/>
      <point x="327" y="578" type="curve" smooth="yes"/>
      <point x="199" y="-81" type="line" smooth="yes"/>
      <point x="184" y="-156"/>
      <point x="172" y="-186"/>
      <point x="164" y="-213" type="curve"/>
      <point x="165" y="-224"/>
      <point x="171" y="-237"/>
    </contour>
    <contour>
      <point x="250" y="-5" type="curve" smooth="yes"/>
      <point x="416" y="-5"/>
      <point x="549" y="73"/>
      <point x="593" y="277" type="curve" smooth="yes"/>
      <point x="600" y="308"/>
      <point x="614" y="389"/>
      <point x="593" y="439" type="curve" smooth="yes"/>
      <point x="587" y="453"/>
      <point x="581" y="461"/>
      <point x="570" y="467" type="curve"/>
      <point x="545" y="452"/>
      <point x="494" y="435"/>
      <point x="461" y="436" type="curve"/>
      <point x="453" y="424"/>
      <point x="450" y="414"/>
      <point x="449" y="399" type="curve"/>
      <point x="505" y="395"/>
      <point x="529" y="370"/>
      <point x="509" y="267" type="curve" smooth="yes"/>
      <point x="477" y="100"/>
      <point x="392" y="46"/>
      <point x="268" y="46" type="curve" smooth="yes"/>
      <point x="155" y="46"/>
      <point x="119" y="91"/>
      <point x="148" y="241" type="curve" smooth="yes"/>
      <point x="182" y="418" type="line" smooth="yes"/>
      <point x="188" y="447"/>
      <point x="179" y="461"/>
      <point x="166" y="467" type="curve"/>
      <point x="134" y="452"/>
      <point x="76" y="435"/>
      <point x="34" y="436" type="curve"/>
      <point x="27" y="423"/>
      <point x="25" y="414"/>
      <point x="24" y="399" type="curve"/>
      <point x="84" y="393"/>
      <point x="83" y="375"/>
      <point x="74" y="328" type="curve" smooth="yes"/>
      <point x="55" y="227" type="line" smooth="yes"/>
      <point x="26" y="72"/>
      <point x="85" y="-5"/>
    </contour>
  </outline>
</glyph>
<glyph name="KaiSymbol" format="2">
  <advance width="635"/>
  <unicode hex="03CF"/>
  <anchor x="421" y="676" name="top"/>
  <outline>
    <contour>
      <point x="303" y="-248" type="curve"/>
      <point x="349" y="-242"/>
      <point x="392" y="-242"/>
      <point x="434" y="-242" type="curve"/>
      <point x="444" y="-229"/>
      <point x="449" y="-216"/>
      <point x="450" y="-200" type="curve"/>
      <point x="408" y="-197"/>
      <point x="391" y="-164"/>
      <point x="393" y="-134" type="curve" smooth="yes"/>
      <point x="396" y="-96"/>
      <point x="429" y="-26"/>
      <point x="588" y="17" type="curve"/>
      <point x="589" y="33"/>
      <point x="586" y="48"/>
      <point x="579" y="60" type="curve"/>
      <point x="563" y="57"/>
      <point x="553" y="55"/>
      <point x="540" y="55" type="curve" smooth="yes"/>
      <point x="520" y="55"/>
      <point x="501" y="86"/>
      <point x="480" y="133" type="curve" smooth="yes"/>
      <point x="429" y="245"/>
      <point x="382" y="318"/>
      <point x="323" y="378" type="curve"/>
      <point x="322" y="363" type="line"/>
      <point x="517" y="547" type="line" smooth="yes"/>
      <point x="590" y="615"/>
      <point x="619" y="628"/>
      <point x="675" y="636" type="curve"/>
      <point x="680" y="648"/>
      <point x="680" y="667"/>
      <point x="680" y="679" type="curve"/>
      <point x="640" y="676"/>
      <point x="619" y="676"/>
      <point x="582" y="676" type="curve" smooth="yes"/>
      <point x="539" y="676"/>
      <point x="513" y="676"/>
      <point x="473" y="679" type="curve"/>
      <point x="471" y="665"/>
      <point x="474" y="651"/>
      <point x="477" y="636" type="curve"/>
      <point x="514" y="630"/>
      <point x="518" y="612"/>
      <point x="449" y="546" type="curve" smooth="yes"/>
      <point x="239" y="347" type="line"/>
      <point x="301" y="282"/>
      <point x="348" y="202"/>
      <point x="396" y="77" type="curve" smooth="yes"/>
      <point x="414" y="31"/>
      <point x="432" y="6"/>
      <point x="458" y="-4" type="curve"/>
      <point x="457" y="9" type="line"/>
      <point x="338" y="-42"/>
      <point x="292" y="-121"/>
      <point x="287" y="-183" type="curve" smooth="yes"/>
      <point x="285" y="-208"/>
      <point x="292" y="-231"/>
    </contour>
    <contour>
      <point x="29" y="-3" type="curve"/>
      <point x="63" y="-1"/>
      <point x="111" y="0"/>
      <point x="150" y="0" type="curve" smooth="yes"/>
      <point x="189" y="0"/>
      <point x="221" y="-1"/>
      <point x="261" y="-3" type="curve"/>
      <point x="263" y="12"/>
      <point x="262" y="28"/>
      <point x="259" y="40" type="curve"/>
      <point x="208" y="46"/>
      <point x="198" y="60"/>
      <point x="210" y="127" type="curve" smooth="yes"/>
      <point x="283" y="549" type="line" smooth="yes"/>
      <point x="295" y="614"/>
      <point x="310" y="627"/>
      <point x="361" y="636" type="curve"/>
      <point x="367" y="649"/>
      <point x="369" y="663"/>
      <point x="370" y="679" type="curve"/>
      <point x="330" y="677"/>
      <point x="291" y="676"/>
      <point x="248" y="676" type="curve" smooth="yes"/>
      <point x="205" y="676"/>
      <point x="165" y="677"/>
      <point x="128" y="679" type="curve"/>
      <point x="126" y="663"/>
      <point x="127" y="649"/>
      <point x="129" y="636" type="curve"/>
      <point x="184" y="629"/>
      <point x="201" y="616"/>
      <point x="189" y="549" type="curve" smooth="yes"/>
      <point x="116" y="127" type="line" smooth="yes"/>
      <point x="104" y="60"/>
      <point x="91" y="46"/>
      <point x="37" y="40" type="curve"/>
      <point x="32" y="29"/>
      <point x="29" y="14"/>
    </contour>
  </outline>
</glyph>
<glyph name="thetaSymbol" format="2">
  <advance width="574"/>
  <unicode hex="03D1"/>
  <anchor x="352" y="708" name="top"/>
  <outline>
    <contour>
      <point x="188" y="-8" type="curve" smooth="yes"/>
      <point x="366" y="-8"/>
      <point x="448" y="145"/>
      <point x="487" y="348" type="curve" smooth="yes"/>
      <point x="536" y="598"/>
      <point x="480" y="714"/>
      <point x="332" y="714" type="curve" smooth="yes"/>
      <point x="229" y="714"/>
      <point x="143" y="661"/>
      <point x="122" y="555" type="curve" smooth="yes"/>
      <point x="92" y="397"/>
      <point x="235" y="333"/>
      <point x="401" y="333" type="curve" smooth="yes"/>
      <point x="543" y="329" type="line"/>
      <point x="546" y="345"/>
      <point x="546" y="362"/>
      <point x="543" y="378" type="curve"/>
      <point x="417" y="381" type="line" smooth="yes"/>
      <point x="287" y="381"/>
      <point x="190" y="390"/>
      <point x="219" y="540" type="curve" smooth="yes"/>
      <point x="236" y="625"/>
      <point x="275" y="666"/>
      <point x="324" y="666" type="curve" smooth="yes"/>
      <point x="400" y="666"/>
      <point x="431" y="574"/>
      <point x="390" y="362" type="curve" smooth="yes"/>
      <point x="359" y="202"/>
      <point x="298" y="40"/>
      <point x="202" y="40" type="curve" smooth="yes"/>
      <point x="107" y="40"/>
      <point x="151" y="196"/>
      <point x="162" y="271" type="curve" smooth="yes"/>
      <point x="166" y="295"/>
      <point x="166" y="314"/>
      <point x="147" y="322" type="curve"/>
      <point x="115" y="308"/>
      <point x="49" y="291"/>
      <point x="8" y="292" type="curve"/>
      <point x="0" y="280"/>
      <point x="-3" y="270"/>
      <point x="-4" y="255" type="curve"/>
      <point x="67" y="248"/>
      <point x="62" y="230"/>
      <point x="56" y="187" type="curve" smooth="yes"/>
      <point x="45" y="117"/>
      <point x="30" y="-8"/>
    </contour>
  </outline>
</glyph>
<glyph name="UpsilonhookSymbol" format="2">
  <advance width="618"/>
  <unicode hex="03D2"/>
  <anchor x="388" y="676" name="top"/>
  <outline>
    <contour>
      <point x="129" y="-2" type="curve"/>
      <point x="157" y="0"/>
      <point x="224" y="0"/>
      <point x="260" y="0" type="curve" smooth="yes"/>
      <point x="307" y="0"/>
      <point x="346" y="0"/>
      <point x="391" y="-2" type="curve"/>
      <point x="394" y="14"/>
      <point x="392" y="30"/>
      <point x="388" y="41" type="curve"/>
      <point x="321" y="53"/>
      <point x="315" y="58"/>
      <point x="335" y="159" type="curve" smooth="yes"/>
      <point x="364" y="306" type="line" smooth="yes"/>
      <point x="385" y="412"/>
      <point x="499" y="612"/>
      <point x="572" y="612" type="curve" smooth="yes"/>
      <point x="594" y="612"/>
      <point x="608" y="594"/>
      <point x="601" y="538" type="curve"/>
      <point x="622" y="535"/>
      <point x="640" y="535"/>
      <point x="658" y="538" type="curve"/>
      <point x="663" y="574"/>
      <point x="675" y="624"/>
      <point x="685" y="655" type="curve"/>
      <point x="667" y="674"/>
      <point x="648" y="685"/>
      <point x="620" y="685" type="curve" smooth="yes"/>
      <point x="495" y="685"/>
      <point x="376" y="500"/>
      <point x="345" y="343" type="curve"/>
      <point x="356" y="335" type="line"/>
      <point x="374" y="431"/>
      <point x="340" y="560"/>
      <point x="294" y="628" type="curve" smooth="yes"/>
      <point x="264" y="672"/>
      <point x="237" y="684"/>
      <point x="205" y="684" type="curve" smooth="yes"/>
      <point x="155" y="684"/>
      <point x="127" y="660"/>
      <point x="93" y="629" type="curve"/>
      <point x="93" y="614"/>
      <point x="102" y="605"/>
      <point x="114" y="596" type="curve"/>
      <point x="140" y="618"/>
      <point x="155" y="627"/>
      <point x="168" y="627" type="curve" smooth="yes"/>
      <point x="234" y="627"/>
      <point x="293" y="424"/>
      <point x="271" y="313" type="curve" smooth="yes"/>
      <point x="240" y="154" type="line" smooth="yes"/>
      <point x="221" y="57"/>
      <point x="209" y="43"/>
      <point x="139" y="41" type="curve"/>
      <point x="132" y="29"/>
      <point x="129" y="13"/>
    </contour>
  </outline>
</glyph>
<glyph name="phiSymbol" format="2">
  <advance width="675"/>
  <unicode hex="03D5"/>
  <anchor x="431" y="708" name="top"/>
  <outline>
    <contour>
      <point x="215" y="-243" type="curve"/>
      <point x="241" y="-218"/>
      <point x="287" y="-185"/>
      <point x="320" y="-172" type="curve"/>
      <point x="316" y="-140"/>
      <point x="319" y="-103"/>
      <point x="330" y="-44" type="curve" smooth="yes"/>
      <point x="469" y="673" type="line" smooth="yes"/>
      <point x="474" y="698"/>
      <point x="465" y="712"/>
      <point x="453" y="718" type="curve"/>
      <point x="428" y="702"/>
      <point x="343" y="683"/>
      <point x="313" y="686" type="curve"/>
      <point x="306" y="675"/>
      <point x="303" y="665"/>
      <point x="302" y="650" type="curve"/>
      <point x="369" y="646"/>
      <point x="370" y="626"/>
      <point x="361" y="579" type="curve" smooth="yes"/>
      <point x="233" y="-81" type="line" smooth="yes"/>
      <point x="218" y="-156"/>
      <point x="206" y="-186"/>
      <point x="198" y="-213" type="curve"/>
      <point x="199" y="-224"/>
      <point x="205" y="-237"/>
    </contour>
    <contour>
      <point x="254" y="-9" type="curve"/>
      <point x="259" y="39" type="line"/>
      <point x="147" y="39"/>
      <point x="110" y="115"/>
      <point x="133" y="233" type="curve" smooth="yes"/>
      <point x="154" y="343"/>
      <point x="225" y="419"/>
      <point x="337" y="419" type="curve"/>
      <point x="342" y="467" type="line"/>
      <point x="170" y="467"/>
      <point x="60" y="376"/>
      <point x="32" y="236" type="curve" smooth="yes"/>
      <point x="4" y="90"/>
      <point x="82" y="-9"/>
    </contour>
    <contour>
      <point x="332" y="-9" type="line"/>
      <point x="505" y="-9"/>
      <point x="615" y="82"/>
      <point x="643" y="222" type="curve" smooth="yes"/>
      <point x="671" y="368"/>
      <point x="593" y="467"/>
      <point x="420" y="467" type="curve"/>
      <point x="415" y="419" type="line"/>
      <point x="528" y="419"/>
      <point x="567" y="346"/>
      <point x="545" y="234" type="curve" smooth="yes"/>
      <point x="522" y="118"/>
      <point x="450" y="39"/>
      <point x="337" y="39" type="curve"/>
    </contour>
  </outline>
</glyph>
<glyph name="kaiSymbol" format="2">
  <advance width="503"/>
  <unicode hex="03D7"/>
  <anchor x="281" y="458" name="top"/>
  <outline>
    <contour>
      <point x="184" y="-249" type="curve" smooth="yes"/>
      <point x="309" y="-249"/>
      <point x="427" y="-159"/>
      <point x="453" y="-27" type="curve" smooth="yes"/>
      <point x="458" y="-1"/>
      <point x="459" y="26"/>
      <point x="455" y="54" type="curve"/>
      <point x="415" y="56"/>
      <point x="405" y="59"/>
      <point x="374" y="106" type="curve" smooth="yes"/>
      <point x="321" y="194"/>
      <point x="287" y="247"/>
      <point x="250" y="297" type="curve"/>
      <point x="237" y="257" type="line"/>
      <point x="366" y="357" type="line" smooth="yes"/>
      <point x="425" y="403"/>
      <point x="461" y="417"/>
      <point x="500" y="418" type="curve"/>
      <point x="508" y="430"/>
      <point x="513" y="447"/>
      <point x="515" y="460" type="curve"/>
      <point x="479" y="458"/>
      <point x="443" y="458"/>
      <point x="421" y="458" type="curve" smooth="yes"/>
      <point x="394" y="458"/>
      <point x="360" y="458"/>
      <point x="317" y="460" type="curve"/>
      <point x="314" y="445"/>
      <point x="314" y="432"/>
      <point x="315" y="419" type="curve"/>
      <point x="333" y="419"/>
      <point x="343" y="414"/>
      <point x="341" y="403" type="curve" smooth="yes"/>
      <point x="339" y="389"/>
      <point x="315" y="364"/>
      <point x="262" y="323" type="curve" smooth="yes"/>
      <point x="165" y="248" type="line"/>
      <point x="219" y="181"/>
      <point x="298" y="46"/>
      <point x="322" y="-9" type="curve"/>
      <point x="348" y="-5"/>
      <point x="370" y="-3"/>
      <point x="394" y="-1" type="curve"/>
      <point x="358" y="17" type="line"/>
      <point x="361" y="-7"/>
      <point x="360" y="-28"/>
      <point x="356" y="-48" type="curve" smooth="yes"/>
      <point x="339" y="-134"/>
      <point x="272" y="-186"/>
      <point x="192" y="-186" type="curve" smooth="yes"/>
      <point x="157" y="-186"/>
      <point x="117" y="-176"/>
      <point x="80" y="-152" type="curve"/>
      <point x="65" y="-159"/>
      <point x="56" y="-174"/>
      <point x="53" y="-185" type="curve"/>
      <point x="85" y="-232"/>
      <point x="126" y="-249"/>
    </contour>
    <contour>
      <point x="42" y="0" type="line"/>
      <point x="132" y="0" type="line"/>
      <point x="215" y="427" type="line" smooth="yes"/>
      <point x="220" y="452"/>
      <point x="212" y="463"/>
      <point x="201" y="467" type="curve"/>
      <point x="173" y="450"/>
      <point x="90" y="433"/>
      <point x="60" y="433" type="curve"/>
      <point x="51" y="422"/>
      <point x="47" y="411"/>
      <point x="44" y="396" type="curve"/>
      <point x="112" y="396"/>
      <point x="114" y="372"/>
      <point x="105" y="325" type="curve" smooth="yes"/>
    </contour>
  </outline>
</glyph>
<glyph name="kappaSymbol" format="2">
  <advance width="571"/>
  <unicode hex="03F0"/>
  <anchor x="331" y="458" name="top"/>
  <outline>
    <contour>
      <point x="89" y="-9" type="curve"/>
      <point x="171" y="76"/>
      <point x="265" y="169"/>
      <point x="350" y="250" type="curve"/>
      <point x="364" y="253" type="line"/>
      <point x="433" y="314"/>
      <point x="498" y="369"/>
      <point x="552" y="413" type="curve"/>
      <point x="537" y="441"/>
      <point x="513" y="459"/>
      <point x="475" y="467" type="curve"/>
      <point x="395" y="396"/>
      <point x="293" y="300"/>
      <point x="189" y="201" type="curve"/>
      <point x="176" y="198" type="line"/>
      <point x="122" y="146"/>
      <point x="67" y="95"/>
      <point x="17" y="48" type="curve"/>
      <point x="27" y="19"/>
      <point x="56" y="-3"/>
    </contour>
    <contour>
      <point x="75" y="84" type="curve"/>
      <point x="179" y="182" type="line"/>
      <point x="225" y="274"/>
      <point x="242" y="328"/>
      <point x="249" y="362" type="curve" smooth="yes"/>
      <point x="262" y="430"/>
      <point x="243" y="463"/>
      <point x="190" y="463" type="curve" smooth="yes"/>
      <point x="156" y="463"/>
      <point x="111" y="451"/>
      <point x="80" y="433" type="curve"/>
      <point x="77" y="410"/>
      <point x="81" y="393"/>
      <point x="91" y="378" type="curve"/>
      <point x="103" y="379"/>
      <point x="112" y="380"/>
      <point x="125" y="380" type="curve" smooth="yes"/>
      <point x="167" y="380"/>
      <point x="178" y="365"/>
      <point x="170" y="317" type="curve" smooth="yes"/>
      <point x="161" y="260"/>
      <point x="124" y="163"/>
    </contour>
    <contour>
      <point x="390" y="-9" type="curve" smooth="yes"/>
      <point x="428" y="-9"/>
      <point x="461" y="7"/>
      <point x="492" y="28" type="curve"/>
      <point x="494" y="49"/>
      <point x="489" y="65"/>
      <point x="479" y="78" type="curve"/>
      <point x="463" y="74"/>
      <point x="441" y="69"/>
      <point x="424" y="69" type="curve" smooth="yes"/>
      <point x="368" y="69"/>
      <point x="350" y="122"/>
      <point x="370" y="222" type="curve" smooth="yes"/>
      <point x="376" y="252"/>
      <point x="382" y="272"/>
      <point x="392" y="290" type="curve"/>
      <point x="324" y="239" type="line"/>
      <point x="308" y="204"/>
      <point x="294" y="164"/>
      <point x="289" y="138" type="curve" smooth="yes"/>
      <point x="272" y="53"/>
      <point x="314" y="-9"/>
    </contour>
  </outline>
</glyph>
<glyph name="rhoSymbol" format="2">
  <advance width="514"/>
  <unicode hex="03F1"/>
  <anchor x="302" y="458" name="top"/>
  <outline>
    <contour>
      <point x="343" y="-246" type="curve"/>
      <point x="357" y="-246"/>
      <point x="370" y="-235"/>
      <point x="376" y="-224" type="curve"/>
      <point x="361" y="-174"/>
      <point x="329" y="-127"/>
      <point x="249" y="-127" type="curve" smooth="yes"/>
      <point x="175" y="-127" type="line" smooth="yes"/>
      <point x="67" y="-127"/>
      <point x="22" y="-41"/>
      <point x="50" y="106" type="curve"/>
      <point x="32" y="119" type="line"/>
      <point x="52" y="41"/>
      <point x="116" y="-9"/>
      <point x="214" y="-9" type="curve" smooth="yes"/>
      <point x="348" y="-9"/>
      <point x="456" y="88"/>
      <point x="482" y="222" type="curve" smooth="yes"/>
      <point x="510" y="367"/>
      <point x="443" y="467"/>
      <point x="300" y="467" type="curve" smooth="yes"/>
      <point x="168" y="467"/>
      <point x="63" y="393"/>
      <point x="22" y="182" type="curve" smooth="yes"/>
      <point x="-26" y="-65"/>
      <point x="-18" y="-217"/>
      <point x="150" y="-217" type="curve" smooth="yes"/>
      <point x="242" y="-217" type="line" smooth="yes"/>
      <point x="285" y="-217"/>
      <point x="307" y="-221"/>
    </contour>
    <contour>
      <point x="225" y="39" type="curve" smooth="yes"/>
      <point x="145" y="39"/>
      <point x="109" y="111"/>
      <point x="135" y="243" type="curve" smooth="yes"/>
      <point x="155" y="346"/>
      <point x="209" y="419"/>
      <point x="287" y="419" type="curve" smooth="yes"/>
      <point x="360" y="419"/>
      <point x="405" y="345"/>
      <point x="382" y="224" type="curve" smooth="yes"/>
      <point x="361" y="116"/>
      <point x="306" y="39"/>
    </contour>
  </outline>
</glyph>
<glyph name="E-cy" format="2">
  <advance width="595"/>
  <unicode hex="0404"/>
  <outline>
    <contour>
      <point x="323" y="-9" type="curve" smooth="yes"/>
      <point x="391" y="-9"/>
      <point x="472" y="8"/>
      <point x="538" y="38" type="curve"/>
      <point x="538" y="86"/>
      <point x="547" y="139"/>
      <point x="556" y="192" type="curve"/>
      <point x="543" y="203"/>
      <point x="526" y="205"/>
      <point x="506" y="206" type="curve"/>
      <point x="479" y="79"/>
      <point x="419" y="38"/>
      <point x="341" y="38" type="curve" smooth="yes"/>
      <point x="199" y="38"/>
      <point x="149" y="175"/>
      <point x="168" y="333" type="curve" smooth="yes"/>
      <point x="188" y="502"/>
      <point x="280" y="644"/>
      <point x="437" y="644" type="curve" smooth="yes"/>
      <point x="506" y="644"/>
      <point x="555" y="617"/>
      <point x="536" y="473" type="curve"/>
      <point x="554" y="468"/>
      <point x="573" y="469"/>
      <point x="589" y="475" type="curve"/>
      <point x="596" y="532"/>
      <point x="606" y="581"/>
      <point x="622" y="626" type="curve"/>
      <point x="566" y="663"/>
      <point x="504" y="685"/>
      <point x="434" y="685" type="curve" smooth="yes"/>
      <point x="270" y="685"/>
      <point x="93" y="575"/>
      <point x="62" y="328" type="curve" smooth="yes"/>
      <point x="37" y="134"/>
      <point x="122" y="-9"/>
    </contour>
    <contour>
      <point x="92" y="308" type="line"/>
      <point x="221" y="311"/>
      <point x="369" y="311"/>
      <point x="488" y="311" type="curve"/>
      <point x="498" y="326"/>
      <point x="504" y="344"/>
      <point x="505" y="363" type="curve"/>
      <point x="106" y="363" type="line"/>
    </contour>
  </outline>
</glyph>
<glyph name="Tshe-cy" format="2">
  <advance width="755"/>
  <unicode hex="040B"/>
  <outline>
    <contour>
      <point x="109" y="-3" type="curve"/>
      <point x="149" y="-1"/>
      <point x="187" y="0"/>
      <point x="230" y="0" type="curve" smooth="yes"/>
      <point x="273" y="0"/>
      <point x="314" y="-1"/>
      <point x="351" y="-3" type="curve"/>
      <point x="354" y="15"/>
      <point x="351" y="29"/>
      <point x="349" y="40" type="curve"/>
      <point x="297" y="43"/>
      <point x="284" y="60"/>
      <point x="297" y="127" type="curve" smooth="yes"/>
      <point x="399" y="649" type="line"/>
      <point x="305" y="649" type="line"/>
      <point x="203" y="127" type="line" smooth="yes"/>
      <point x="190" y="60"/>
      <point x="171" y="43"/>
      <point x="117" y="40" type="curve"/>
      <point x="111" y="29"/>
      <point x="107" y="15"/>
    </contour>
    <contour>
      <point x="448" y="-3" type="curve"/>
      <point x="488" y="-1"/>
      <point x="526" y="0"/>
      <point x="569" y="0" type="curve" smooth="yes"/>
      <point x="612" y="0"/>
      <point x="653" y="-1"/>
      <point x="690" y="-3" type="curve"/>
      <point x="693" y="15"/>
      <point x="690" y="29"/>
      <point x="688" y="40" type="curve"/>
      <point x="626" y="44"/>
      <point x="627" y="65"/>
      <point x="634" y="117" type="curve" smooth="yes"/>
      <point x="654" y="275"/>
      <point x="664" y="381"/>
      <point x="484" y="381" type="curve" smooth="yes"/>
      <point x="434" y="381"/>
      <point x="378" y="373"/>
      <point x="337" y="361" type="curve"/>
      <point x="328" y="318" type="line"/>
      <point x="368" y="325"/>
      <point x="416" y="328"/>
      <point x="442" y="328" type="curve" smooth="yes"/>
      <point x="547" y="328"/>
      <point x="572" y="277"/>
      <point x="545" y="139" type="curve" smooth="yes"/>
      <point x="529" y="58"/>
      <point x="515" y="44"/>
      <point x="456" y="40" type="curve"/>
      <point x="450" y="29"/>
      <point x="446" y="15"/>
    </contour>
    <contour>
      <point x="109" y="510" type="curve"/>
      <point x="136" y="586"/>
      <point x="159" y="637"/>
      <point x="251" y="637" type="curve" smooth="yes"/>
      <point x="449" y="637" type="line" smooth="yes"/>
      <point x="533" y="637"/>
      <point x="559" y="591"/>
      <point x="545" y="510" type="curve"/>
      <point x="564" y="509"/>
      <point x="581" y="512"/>
      <point x="596" y="519" type="curve"/>
      <point x="601" y="583"/>
      <point x="606" y="631"/>
      <point x="614" y="679" type="curve"/>
      <point x="559" y="676"/>
      <point x="458" y="676"/>
      <point x="357" y="676" type="curve" smooth="yes"/>
      <point x="256" y="676"/>
      <point x="158" y="676"/>
      <point x="102" y="679" type="curve"/>
      <point x="95" y="633"/>
      <point x="80" y="575"/>
      <point x="62" y="519" type="curve"/>
      <point x="73" y="512"/>
      <point x="94" y="510"/>
    </contour>
  </outline>
</glyph>
<glyph name="Be-cy" format="2">
  <advance width="584"/>
  <unicode hex="0411"/>
  <outline>
    <contour>
      <point x="0" y="-3" type="curve"/>
      <point x="49" y="-1"/>
      <point x="156" y="0"/>
      <point x="268" y="0" type="curve" smooth="yes"/>
      <point x="438" y="0"/>
      <point x="521" y="83"/>
      <point x="545" y="189" type="curve" smooth="yes"/>
      <point x="577" y="329"/>
      <point x="480" y="379"/>
      <point x="318" y="379" type="curve" smooth="yes"/>
      <point x="285" y="379"/>
      <point x="257" y="377"/>
      <point x="226" y="373" type="curve"/>
      <point x="218" y="330" type="line"/>
      <point x="240" y="331"/>
      <point x="253" y="334"/>
      <point x="283" y="334" type="curve" smooth="yes"/>
      <point x="366" y="334"/>
      <point x="456" y="311"/>
      <point x="439" y="190" type="curve" smooth="yes"/>
      <point x="426" y="99"/>
      <point x="365" y="43"/>
      <point x="256" y="43" type="curve" smooth="yes"/>
      <point x="189" y="43"/>
      <point x="178" y="64"/>
      <point x="192" y="138" type="curve" smooth="yes"/>
      <point x="297" y="676" type="line"/>
      <point x="196" y="676"/>
      <point x="155" y="677"/>
      <point x="128" y="679" type="curve"/>
      <point x="126" y="663"/>
      <point x="126" y="647"/>
      <point x="126" y="636" type="curve"/>
      <point x="179" y="633"/>
      <point x="191" y="616"/>
      <point x="178" y="549" type="curve" smooth="yes"/>
      <point x="98" y="138" type="line" smooth="yes"/>
      <point x="83" y="60"/>
      <point x="63" y="43"/>
      <point x="9" y="40" type="curve"/>
      <point x="5" y="29"/>
      <point x="2" y="15"/>
    </contour>
    <contour>
      <point x="500" y="509" type="curve"/>
      <point x="518" y="509"/>
      <point x="535" y="512"/>
      <point x="548" y="521" type="curve"/>
      <point x="546" y="564"/>
      <point x="549" y="634"/>
      <point x="557" y="679" type="curve"/>
      <point x="524" y="678"/>
      <point x="434" y="676"/>
      <point x="293" y="676" type="curve"/>
      <point x="263" y="636" type="line"/>
      <point x="361" y="636" type="line" smooth="yes"/>
      <point x="490" y="636"/>
      <point x="507" y="571"/>
    </contour>
  </outline>
</glyph>
<glyph name="Ge-cy" format="2">
  <advance width="530"/>
  <unicode hex="0413"/>
  <anchor x="277" y="40" name="bottomright"/>
  <anchor x="236" y="336" name="center"/>
  <anchor x="243" y="350" name="right"/>
  <anchor x="361" y="676" name="top"/>
  <outline>
    <contour>
      <point x="18" y="-3" type="curve"/>
      <point x="43" y="-1"/>
      <point x="105" y="0"/>
      <point x="151" y="0" type="curve" smooth="yes"/>
      <point x="198" y="0"/>
      <point x="246" y="-1"/>
      <point x="277" y="-3" type="curve"/>
      <point x="280" y="15"/>
      <point x="280" y="29"/>
      <point x="277" y="40" type="curve"/>
      <point x="215" y="43"/>
      <point x="194" y="60"/>
      <point x="209" y="147" type="curve" smooth="yes"/>
      <point x="292" y="631" type="line"/>
      <point x="369" y="631" type="line" smooth="yes"/>
      <point x="498" y="631"/>
      <point x="507" y="594"/>
      <point x="509" y="509" type="curve"/>
      <point x="528" y="509"/>
      <point x="546" y="511"/>
      <point x="560" y="517" type="curve"/>
      <point x="559" y="561"/>
      <point x="561" y="630"/>
      <point x="566" y="679" type="curve"/>
      <point x="533" y="678"/>
      <point x="444" y="676"/>
      <point x="304" y="676" type="curve" smooth="yes"/>
      <point x="254" y="676"/>
      <point x="175" y="677"/>
      <point x="129" y="679" type="curve"/>
      <point x="125" y="663"/>
      <point x="123" y="649"/>
      <point x="126" y="636" type="curve"/>
      <point x="187" y="633"/>
      <point x="200" y="616"/>
      <point x="186" y="549" type="curve" smooth="yes"/>
      <point x="111" y="127" type="line" smooth="yes"/>
      <point x="100" y="60"/>
      <point x="80" y="43"/>
      <point x="28" y="40" type="curve"/>
      <point x="22" y="29"/>
      <point x="19" y="15"/>
    </contour>
  </outline>
</glyph>
<glyph name="De-cy" format="2">
  <advance width="691"/>
  <unicode hex="0414"/>
  <outline>
    <contour>
      <point x="-23" y="0" type="line"/>
      <point x="538" y="0" type="line"/>
      <point x="546" y="40" type="line"/>
      <point x="494" y="43"/>
      <point x="481" y="60"/>
      <point x="494" y="127" type="curve" smooth="yes"/>
      <point x="576" y="549" type="line" smooth="yes"/>
      <point x="589" y="616"/>
      <point x="609" y="633"/>
      <point x="662" y="636" type="curve"/>
      <point x="668" y="647"/>
      <point x="672" y="661"/>
      <point x="672" y="679" type="curve"/>
      <point x="633" y="677"/>
      <point x="587" y="676"/>
      <point x="454" y="676" type="curve" smooth="yes"/>
      <point x="321" y="676"/>
      <point x="243" y="677"/>
      <point x="199" y="679" type="curve"/>
      <point x="196" y="661"/>
      <point x="197" y="647"/>
      <point x="199" y="636" type="curve"/>
      <point x="270" y="629"/>
      <point x="275" y="621"/>
      <point x="259" y="547" type="curve" smooth="yes"/>
      <point x="228" y="406"/>
      <point x="172" y="203"/>
      <point x="90" y="101" type="curve" smooth="yes"/>
      <point x="61" y="65"/>
      <point x="27" y="40"/>
      <point x="-15" y="40" type="curve"/>
    </contour>
    <contour>
      <point x="113" y="43" type="line"/>
      <point x="200" y="134"/>
      <point x="228" y="230"/>
      <point x="312" y="541" type="curve" smooth="yes"/>
      <point x="328" y="602"/>
      <point x="333" y="608"/>
      <point x="348" y="617" type="curve" smooth="yes"/>
      <point x="365" y="627"/>
      <point x="381" y="631"/>
      <point x="410" y="631" type="curve" smooth="yes"/>
      <point x="445" y="631"/>
      <point x="465" y="625"/>
      <point x="473" y="619" type="curve" smooth="yes"/>
      <point x="490" y="608"/>
      <point x="488" y="583"/>
      <point x="480" y="541" type="curve" smooth="yes"/>
      <point x="400" y="127" type="line" smooth="yes"/>
      <point x="386" y="56"/>
      <point x="364" y="43"/>
      <point x="296" y="43" type="curve" smooth="yes"/>
    </contour>
    <component base="__descender-cy.straight.case" xOffset="611"/>
    <component base="descender-cy.left.case" xOffset="-31"/>
  </outline>
</glyph>
<glyph name="Ze-cy" format="2">
  <advance width="466"/>
  <unicode hex="0417"/>
  <anchor x="156" y="0" name="bottom"/>
  <anchor x="298" y="676" name="top"/>
  <outline>
    <contour>
      <point x="159" y="-9" type="curve" smooth="yes"/>
      <point x="302" y="-9"/>
      <point x="414" y="67"/>
      <point x="429" y="202" type="curve" smooth="yes"/>
      <point x="440" y="300"/>
      <point x="390" y="372"/>
      <point x="245" y="372" type="curve"/>
      <point x="244" y="365" type="line"/>
      <point x="358" y="365"/>
      <point x="435" y="427"/>
      <point x="454" y="526" type="curve" smooth="yes"/>
      <point x="476" y="639"/>
      <point x="403" y="685"/>
      <point x="289" y="685" type="curve" smooth="yes"/>
      <point x="223" y="685"/>
      <point x="158" y="670"/>
      <point x="105" y="638" type="curve"/>
      <point x="101" y="593"/>
      <point x="91" y="549"/>
      <point x="80" y="508" type="curve"/>
      <point x="96" y="502"/>
      <point x="114" y="500"/>
      <point x="133" y="502" type="curve"/>
      <point x="173" y="604"/>
      <point x="207" y="640"/>
      <point x="272" y="640" type="curve" smooth="yes"/>
      <point x="339" y="640"/>
      <point x="367" y="600"/>
      <point x="355" y="530" type="curve" smooth="yes"/>
      <point x="342" y="453"/>
      <point x="287" y="385"/>
      <point x="163" y="385" type="curve"/>
      <point x="154" y="374"/>
      <point x="151" y="355"/>
      <point x="155" y="338" type="curve"/>
      <point x="285" y="347"/>
      <point x="335" y="298"/>
      <point x="327" y="201" type="curve" smooth="yes"/>
      <point x="318" y="93"/>
      <point x="247" y="36"/>
      <point x="166" y="36" type="curve" smooth="yes"/>
      <point x="85" y="36"/>
      <point x="70" y="94"/>
      <point x="71" y="184" type="curve"/>
      <point x="53" y="186"/>
      <point x="34" y="184"/>
      <point x="16" y="178" type="curve"/>
      <point x="11" y="137"/>
      <point x="4" y="93"/>
      <point x="-10" y="48" type="curve"/>
      <point x="27" y="10"/>
      <point x="87" y="-9"/>
    </contour>
  </outline>
</glyph>
